<svg width="20" height="19" viewBox="0 0 20 19" fill="none" xmlns="http://www.w3.org/2000/svg">
<path d="M10 18L9.75351 17.7594C9.33477 17.3509 8.82674 16.8415 8.2641 16.277C7.84921 15.8606 7.40421 15.4143 6.94275 14.9561C4.38301 12.4143 3.56443 11.5396 2.68388 10.2277C1.74415 8.82781 1.06527 7.81627 1.0075 6.31303C0.938067 5.00361 1.35299 3.7157 2.16885 2.7082C2.86123 1.87201 3.80595 1.29862 4.85217 1.07959C5.86949 0.890992 6.91874 1.04024 7.84816 1.50575C8.68857 1.90646 9.42567 2.50481 10 3.25251C10.5743 2.5048 11.3114 1.90646 12.1518 1.50575C13.0812 1.04 14.1305 0.890738 15.1478 1.07959C16.194 1.29862 17.1388 1.87201 17.8312 2.7082C18.647 3.7157 19.0619 5.00361 18.9925 6.31303C18.9347 7.81627 18.2558 8.82781 17.3161 10.2277C16.4356 11.5396 15.617 12.4143 13.0572 14.9561C12.5958 15.4143 12.1508 15.8606 11.7359 16.277C11.1732 16.8415 10.6652 17.3509 10.2465 17.7594L10 18ZM5.72048 1.7309C5.4751 1.73103 5.23029 1.7554 4.98943 1.80366C4.10184 1.99063 3.30065 2.47799 2.71364 3.18803C2.01553 4.05446 1.66192 5.16058 1.72384 6.28422C1.77111 7.51584 2.28789 8.3397 3.27419 9.80835C4.11902 11.0674 4.92115 11.9236 7.44062 14.4251C7.90278 14.8844 8.34884 15.3318 8.76478 15.7489C9.21853 16.2039 9.63622 16.6232 10 16.982C10.3638 16.6232 10.7815 16.2039 11.2352 15.7489C11.6512 15.3318 12.0972 14.8844 12.5594 14.4251C15.0788 11.9236 15.881 11.0674 16.7258 9.80835C17.7121 8.3397 18.2289 7.51584 18.2762 6.28422C18.3381 5.16059 17.9845 4.05446 17.2864 3.18803C16.6994 2.478 15.8982 1.99063 15.0106 1.80366C14.14 1.64317 13.2424 1.7741 12.4494 2.17722C11.5767 2.59452 10.8343 3.25409 10.306 4.08176L10 4.5969L9.69401 4.08176C9.16573 3.25416 8.42355 2.5946 7.5509 2.17722C6.98011 1.89169 6.35511 1.73929 5.72048 1.7309Z" fill="white" stroke="white" stroke-width="0.5"/>
</svg>
