<svg width="17" height="13" viewBox="0 0 17 13" fill="none" xmlns="http://www.w3.org/2000/svg">
<path fill-rule="evenodd" clip-rule="evenodd" d="M1.55714 3.94115C1.76368 4.08665 2.38326 4.51762 3.41596 5.23408C4.21156 5.7826 5.00557 6.33335 5.79803 6.88638C5.85311 6.92906 5.98396 7.02409 6.18361 7.16178C6.38327 7.29948 6.54159 7.41927 6.6724 7.50602C6.80321 7.59276 6.95471 7.69189 7.14059 7.80067C7.30591 7.90032 7.48131 7.98228 7.66383 8.0451C7.81001 8.09625 7.96332 8.12388 8.11816 8.127H8.13194C8.2869 8.12504 8.44048 8.09739 8.58636 8.0451C8.76888 7.98228 8.94427 7.90032 9.1096 7.80067C9.29319 7.69189 9.4515 7.59368 9.5846 7.50602C9.71541 7.41858 9.87381 7.30292 10.0735 7.16178C10.2731 7.02065 10.397 6.92769 10.459 6.88638C11.0166 6.49946 12.4303 5.5168 14.6999 3.93838C15.1344 3.63734 15.51 3.25934 15.8084 2.82306C16.0942 2.42291 16.2504 1.94473 16.2559 1.45302C16.2584 1.26155 16.221 1.07165 16.1464 0.895323C16.0717 0.718992 15.9614 0.56008 15.8221 0.428599C15.69 0.292203 15.5316 0.184042 15.3565 0.110671C15.1813 0.0372999 14.9931 0.000207909 14.8032 0.00171128H1.44696C1.24358 -0.00870548 1.04059 0.028545 0.854129 0.110419C0.667672 0.192293 0.502865 0.316568 0.372908 0.473351C0.117174 0.81208 -0.0140531 1.22851 0.00119337 1.65266C0.029161 2.10823 0.202935 2.54275 0.496869 2.89194C0.789636 3.29807 1.14797 3.65264 1.55714 3.94115ZM15.3471 4.91187C13.3643 6.25438 11.8589 7.2974 10.8308 8.04094C10.4865 8.29498 10.2043 8.49329 9.99086 8.63511C9.71842 8.80727 9.43027 8.95319 9.13027 9.07091C8.81555 9.21041 8.47613 9.28579 8.13194 9.29261H8.11816C7.77406 9.2851 7.43485 9.20975 7.11992 9.07091C6.82056 8.95175 6.53254 8.8059 6.25933 8.63511C6.04591 8.49329 5.77055 8.29498 5.42632 8.04094C4.60704 7.44427 3.10385 6.40125 0.916824 4.91187C0.578794 4.68955 0.271039 4.42435 0.00119337 4.12289V11.3249C0.00245323 11.7085 0.154979 12.0761 0.425686 12.3478C0.696394 12.6195 1.0634 12.7735 1.44696 12.7762H14.8032C15.188 12.7753 15.5567 12.6222 15.8289 12.3502C16.1011 12.0783 16.2546 11.7097 16.2559 11.3249V4.12289C15.9853 4.42092 15.6801 4.68577 15.3471 4.91187Z" fill="white"/>
</svg>
