<svg preserveAspectRatio="xMidYMid slice" id="floor--svg"  viewBox="0 0 1920 1080" version="1.0" xmlns="http://www.w3.org/2000/svg"><polygon data-id="157" data-sec="C" data-build="1" data-floor="8" data-type_poly="flat" class="s3d-svg__house js-s3d-svg__house" points="314.33333333333,181.33333333333,267.66666666667,206.33333333333,277.66666666667,264.33333333333,287,260.33333333333,284.66666666667,244.33333333333,321,227.33333333333"></polygon><polygon data-id="158" data-sec="C" data-build="1" data-floor="8" data-type_poly="flat" class="s3d-svg__house js-s3d-svg__house" points="267.66666666667,206.33333333333,228.33333333333,228,239.33333333333,289,277.66666666667,264.33333333333"></polygon><polygon data-id="163" data-sec="C" data-build="1" data-floor="9" data-type_poly="flat" class="s3d-svg__house js-s3d-svg__house" points="305.66666666667,123.33333333333,258.66666666667,146.33333333333,267.66666666667,206.33333333333,314.33333333333,181.33333333333"></polygon><polygon data-id="164" data-sec="C" data-build="1" data-floor="9" data-type_poly="flat" class="s3d-svg__house js-s3d-svg__house" points="218.33333333333,167,258.66666666667,146.33333333333,267.66666666667,206.33333333333,228.33333333333,228"></polygon><polygon data-id="169" data-sec="C" data-build="1" data-floor="10" data-type_poly="flat" class="s3d-svg__house js-s3d-svg__house" points="297,65,249,86,258.66666666667,146.33333333333,305.66666666667,123.33333333333"></polygon><polygon data-id="170" data-sec="C" data-build="1" data-floor="10" data-type_poly="flat" class="s3d-svg__house js-s3d-svg__house" points="249,86,207.33333333333,105.33333333333,218.33333333333,167,258.66666666667,146.33333333333"></polygon><polygon data-id="175" data-sec="C" data-build="1" data-floor="11" data-type_poly="flat" class="s3d-svg__house js-s3d-svg__house" points="289,4.6666666666667,239.33333333333,24.333333333333,249,86,297,65"></polygon><polygon data-id="176" data-sec="C" data-build="1" data-floor="11" data-type_poly="flat" class="s3d-svg__house js-s3d-svg__house" points="239.33333333333,24.333333333333,196.33333333333,40.333333333333,207.33333333333,105.33333333333,249,86"></polygon></svg>