<svg preserveAspectRatio="xMidYMid slice" id="floor--svg"  viewBox="0 0 1920 1080" version="1.0" xmlns="http://www.w3.org/2000/svg"><polygon data-id="139" data-sec="C" data-build="1" data-floor="5" data-type_poly="flat" class="s3d-svg__house js-s3d-svg__house" points="1529.6666666667,349,1606.6666666667,334,1614.6666666667,287,1537,301.66666666667"></polygon><polygon data-id="138" data-sec="C" data-build="1" data-floor="5" data-type_poly="flat" class="s3d-svg__house js-s3d-svg__house" points="1652.6666666667,281,1726.3333333333,267.66666666667,1718.6666666667,306,1696.3333333333,310.66666666667,1692,324,1680,321.33333333333,1674.3333333333,319.33333333333,1657,323,1646,324.33333333333"></polygon><polygon data-id="145" data-sec="C" data-build="1" data-floor="6" data-type_poly="flat" class="s3d-svg__house js-s3d-svg__house" points="1537,301.66666666667,1543.3333333333,253.66666666667,1621.6666666667,240.33333333333,1614.6666666667,287"></polygon><polygon data-id="144" data-sec="C" data-build="1" data-floor="6" data-type_poly="flat" class="s3d-svg__house js-s3d-svg__house" points="1652.6666666667,281,1660.6666666667,234.33333333333,1734.6666666667,221.33333333333,1726.3333333333,267.66666666667"></polygon><polygon data-id="151" data-sec="C" data-build="1" data-floor="7" data-type_poly="flat" class="s3d-svg__house js-s3d-svg__house" points="1543.3333333333,253.66666666667,1550.6666666667,204.33333333333,1629.6666666667,191.66666666667,1621.6666666667,240.33333333333"></polygon><polygon data-id="152" data-sec="C" data-build="1" data-floor="7" data-type_poly="flat" class="s3d-svg__house js-s3d-svg__house" points="1660.6666666667,234.33333333333,1669.3333333333,186,1744,174,1734.6666666667,221.33333333333"></polygon><polygon data-id="157" data-sec="C" data-build="1" data-floor="8" data-type_poly="flat" class="s3d-svg__house js-s3d-svg__house" points="1558,154,1638.6666666667,142.66666666667,1629.6666666667,191.66666666667,1550.6666666667,204.33333333333,1540.3333333333,201.33333333333,1542,186.66666666667,1504,162,1509,133.66666666667"></polygon><polygon data-id="156" data-sec="C" data-build="1" data-floor="8" data-type_poly="flat" class="s3d-svg__house js-s3d-svg__house" points="1669.3333333333,186,1677,136.33333333333,1753.6666666667,124.33333333333,1744,174"></polygon><polygon data-id="163" data-sec="C" data-build="1" data-floor="9" data-type_poly="flat" class="s3d-svg__house js-s3d-svg__house" points="1564.6666666667,102,1646.3333333333,91.333333333333,1638.6666666667,142.66666666667,1558,154,1509,133.66666666667,1515.6666666667,83.666666666667"></polygon><polygon data-id="162" data-sec="C" data-build="1" data-floor="9" data-type_poly="flat" class="s3d-svg__house js-s3d-svg__house" points="1677,136.33333333333,1686.6666666667,85.666666666667,1762.6666666667,75.666666666667,1753.6666666667,124.33333333333"></polygon><polygon data-id="169" data-sec="C" data-build="1" data-floor="10" data-type_poly="flat" class="s3d-svg__house js-s3d-svg__house" points="1573,49,1655,38.666666666667,1646.3333333333,91.333333333333,1564.6666666667,102,1515.6666666667,83.666666666667,1522.6666666667,32.333333333333"></polygon><polygon data-id="168" data-sec="C" data-build="1" data-floor="10" data-type_poly="flat" class="s3d-svg__house js-s3d-svg__house" points="1695.3333333333,34,1772.6666666667,24.666666666667,1762.6666666667,75.666666666667,1686.6666666667,85.666666666667"></polygon></svg>