<svg preserveAspectRatio="xMidYMid slice" id="floor--svg"  viewBox="0 0 1920 1080" version="1.0" xmlns="http://www.w3.org/2000/svg"><polygon data-id="213" data-sec="D" data-build="1" data-floor="5" data-type_poly="flat" class="s3d-svg__house js-s3d-svg__house" points="472.33333333333,844.66666666667,479.66666666667,895.66666666667,499.33333333333,800.66666666667,493.66666666667,751.33333333333"></polygon><polygon data-id="214" data-sec="D" data-build="1" data-floor="5" data-type_poly="flat" class="s3d-svg__house js-s3d-svg__house" points="433.66666666667,1013.3333333333,460.66666666667,897,467.33333333333,952.66666666667,441.33333333333,1072.3333333333,248,1063.6666666667,237.33333333333,1006"></polygon><polygon data-id="222" data-sec="D" data-build="1" data-floor="6" data-type_poly="flat" class="s3d-svg__house js-s3d-svg__house" points="472.33333333333,844.66666666667,463.33333333333,767,485.33333333333,678.66666666667,493.66666666667,751.33333333333"></polygon><polygon data-id="223" data-sec="D" data-build="1" data-floor="6" data-type_poly="flat" class="s3d-svg__house js-s3d-svg__house" points="421,929,450,817,460.66666666667,897,433.66666666667,1013.3333333333,237.33333333333,1006,219.66666666667,921"></polygon><polygon data-id="232" data-sec="D" data-build="1" data-floor="7" data-type_poly="flat" class="s3d-svg__house js-s3d-svg__house" points="409.33333333333,839.33333333333,439.33333333333,734.66666666667,450,817,421,929,219.66666666667,921,203.33333333333,832"></polygon><polygon data-id="231" data-sec="D" data-build="1" data-floor="7" data-type_poly="flat" class="s3d-svg__house js-s3d-svg__house" points="463.33333333333,767,453.33333333333,685.66666666667,477.33333333333,602.33333333333,485.33333333333,678.66666666667"></polygon><polygon data-id="241" data-sec="D" data-build="1" data-floor="8" data-type_poly="flat" class="s3d-svg__house js-s3d-svg__house" points="396.33333333333,746,429,646.33333333333,439.33333333333,734.66666666667,409.33333333333,839.33333333333,203.33333333333,832,185.33333333333,739"></polygon><polygon data-id="240" data-sec="D" data-build="1" data-floor="8" data-type_poly="flat" class="s3d-svg__house js-s3d-svg__house" points="453.33333333333,685.66666666667,442.66666666667,602.66666666667,468,524.66666666667,477.33333333333,602.33333333333"></polygon><polygon data-id="250" data-sec="D" data-build="1" data-floor="9" data-type_poly="flat" class="s3d-svg__house js-s3d-svg__house" points="383.66666666667,648,417,554.33333333333,429,646.33333333333,396.33333333333,746,185.33333333333,739,167.66666666667,640.66666666667"></polygon><polygon data-id="249" data-sec="D" data-build="1" data-floor="9" data-type_poly="flat" class="s3d-svg__house js-s3d-svg__house" points="442.66666666667,602.66666666667,431.66666666667,515.33333333333,459.33333333333,442.33333333333,468,524.66666666667"></polygon><polygon data-id="259" data-sec="D" data-build="1" data-floor="10" data-type_poly="flat" class="s3d-svg__house js-s3d-svg__house" points="369,546,405.33333333333,461.66666666667,417,554.33333333333,383.66666666667,648,167.66666666667,640.66666666667,148,539.33333333333"></polygon><polygon data-id="258" data-sec="D" data-build="1" data-floor="10" data-type_poly="flat" class="s3d-svg__house js-s3d-svg__house" points="431.66666666667,515.33333333333,420.66666666667,424,448.66666666667,359,459.33333333333,442.33333333333"></polygon></svg>