<svg preserveAspectRatio="xMidYMid slice" id="floor--svg"  viewBox="0 0 1920 1080" version="1.0" xmlns="http://www.w3.org/2000/svg"><polygon data-id="142" data-sec="1" data-build="1" data-floor="1" class="s3d-svg__house js-s3d-svg__house" points="1077.25,871.25,1076.75,901.5,1121.75,914.5,1134,903.25,1137,861,1123.25,881"></polygon><polygon data-id="141" data-sec="1" data-build="1" data-floor="1" class="s3d-svg__house js-s3d-svg__house" points="1077,870.5,1076.5,902.25,982.75,877.25,982.75,847.5"></polygon><polygon data-id="143" data-sec="1" data-build="1" data-floor="1" class="s3d-svg__house js-s3d-svg__house" points="982.25,846.75,982.25,877.75,889.75,854.75,890.5,826.25"></polygon><polygon data-id="145" data-sec="1" data-build="1" data-floor="1" class="s3d-svg__house js-s3d-svg__house" points="889.75,825.5,889.5,855.75,795.75,831,793.5,802.5"></polygon><polygon data-id="205" data-sec="2" data-build="1" data-floor="1" class="s3d-svg__house js-s3d-svg__house" points="793,799.75,794.75,831.75,732.25,814.5,730.75,786"></polygon><polygon data-id="207" data-sec="2" data-build="1" data-floor="1" class="s3d-svg__house js-s3d-svg__house" points="730.5,786,732,814.75,629,789,627.5,762"></polygon><polygon data-id="208" data-sec="2" data-build="1" data-floor="1" class="s3d-svg__house js-s3d-svg__house" points="627,761.5,628.5,788.75,556.75,770,551.25,767,555,764,553.25,743.25"></polygon><polygon data-id="147" data-sec="1" data-build="1" data-floor="2" class="s3d-svg__house js-s3d-svg__house" points="1137,861.75,1137.5,818,1125.25,845,1078.75,833.75,1077.25,871.5,1123.25,881.75"></polygon><polygon data-id="146" data-sec="1" data-build="1" data-floor="2" class="s3d-svg__house js-s3d-svg__house" points="1079,833.75,1077,870.5,982.5,847.5,983.5,813"></polygon><polygon data-id="148" data-sec="1" data-build="1" data-floor="2" class="s3d-svg__house js-s3d-svg__house" points="983.25,812.5,982,847,889.5,825.75,889.5,791.75"></polygon><polygon data-id="150" data-sec="1" data-build="1" data-floor="2" class="s3d-svg__house js-s3d-svg__house" points="889.25,791.5,889,825.75,793.25,803.5,792.25,768.75"></polygon><polygon data-id="212" data-sec="2" data-build="1" data-floor="2" class="s3d-svg__house js-s3d-svg__house" points="792,763.25,792.75,800.25,731,786.25,731.25,749.75"></polygon><polygon data-id="214" data-sec="2" data-build="1" data-floor="2" class="s3d-svg__house js-s3d-svg__house" points="730.75,749.5,730.25,786.25,626.5,760.25,625,727"></polygon><polygon data-id="215" data-sec="2" data-build="1" data-floor="2" class="s3d-svg__house js-s3d-svg__house" points="624.25,726.75,626.5,761.25,553,743,549.25,710"></polygon><polygon data-id="152" data-sec="1" data-build="1" data-floor="3" class="s3d-svg__house js-s3d-svg__house" points="1138,818.25,1140.5,776.75,1127.5,796,1080.75,788,1078.25,834.5,1124.75,845.75"></polygon><polygon data-id="151" data-sec="1" data-build="1" data-floor="3" class="s3d-svg__house js-s3d-svg__house" points="1080.25,787.75,1077.75,833.75,980.75,812,982,767.5"></polygon><polygon data-id="153" data-sec="1" data-build="1" data-floor="3" class="s3d-svg__house js-s3d-svg__house" points="981.5,767.5,980,812.25,888,791.5,889,746.75"></polygon><polygon data-id="155" data-sec="1" data-build="1" data-floor="3" class="s3d-svg__house js-s3d-svg__house" points="888.75,747,887.5,791.5,791.75,769.25,791,726.75"></polygon><polygon data-id="219" data-sec="2" data-build="1" data-floor="3" class="s3d-svg__house js-s3d-svg__house" points="790,722.5,790.75,763.75,730.25,749.25,728.5,709.75"></polygon><polygon data-id="221" data-sec="2" data-build="1" data-floor="3" class="s3d-svg__house js-s3d-svg__house" points="728.25,710.5,729.25,748.75,624.5,726.25,621.25,689"></polygon><polygon data-id="222" data-sec="2" data-build="1" data-floor="3" class="s3d-svg__house js-s3d-svg__house" points="620.75,689.25,624.25,726.75,548.75,710,545,674.25"></polygon><polygon data-id="157" data-sec="1" data-build="1" data-floor="4" class="s3d-svg__house js-s3d-svg__house" points="1142.75,729.75,1140.5,777,1127.5,796.25,1079.75,788.25,1081.75,744,1128.75,754"></polygon><polygon data-id="156" data-sec="1" data-build="1" data-floor="4" class="s3d-svg__house js-s3d-svg__house" points="1081.5,744,1079.75,788.5,981,768.25,982.25,724.5"></polygon><polygon data-id="158" data-sec="1" data-build="1" data-floor="4" class="s3d-svg__house js-s3d-svg__house" points="982,724.75,981,768,887.75,746.75,887.5,707.5"></polygon><polygon data-id="160" data-sec="1" data-build="1" data-floor="4" class="s3d-svg__house js-s3d-svg__house" points="887,707.25,887.5,747.25,790.75,727,788.75,686.5"></polygon><polygon data-id="226" data-sec="2" data-build="1" data-floor="4" class="s3d-svg__house js-s3d-svg__house" points="788,684,790,722.75,727.75,710.5,726,672.25"></polygon><polygon data-id="228" data-sec="2" data-build="1" data-floor="4" class="s3d-svg__house js-s3d-svg__house" points="726,672.25,727.75,710.75,621.25,689.25,618.75,653.25"></polygon><polygon data-id="229" data-sec="2" data-build="1" data-floor="4" class="s3d-svg__house js-s3d-svg__house" points="618.25,653.5,620.25,689.25,544.75,674.5,541.75,639.75"></polygon><polygon data-id="162" data-sec="1" data-build="1" data-floor="5" class="s3d-svg__house js-s3d-svg__house" points="1128.5,754,1143.25,728.25,1144.75,686,1131.5,703.25,1083.5,695.5,1081.75,745"></polygon><polygon data-id="161" data-sec="1" data-build="1" data-floor="5" class="s3d-svg__house js-s3d-svg__house" points="1083.25,695,1081.25,744,981.25,724.75,982,678.5"></polygon><polygon data-id="163" data-sec="1" data-build="1" data-floor="5" class="s3d-svg__house js-s3d-svg__house" points="981.75,678.5,980.75,724.75,886.25,707,886.25,661.5"></polygon><polygon data-id="165" data-sec="1" data-build="1" data-floor="5" class="s3d-svg__house js-s3d-svg__house" points="886,661.75,885.75,706.75,788.75,687,786.5,644.75"></polygon><polygon data-id="233" data-sec="2" data-build="1" data-floor="5" class="s3d-svg__house js-s3d-svg__house" points="786,641.75,787.5,684.5,726,671.75,723.75,632.25"></polygon><polygon data-id="235" data-sec="2" data-build="1" data-floor="5" class="s3d-svg__house js-s3d-svg__house" points="723.75,631.75,725.5,672.5,618,653,615,614.75"></polygon><polygon data-id="236" data-sec="2" data-build="1" data-floor="5" class="s3d-svg__house js-s3d-svg__house" points="614.75,614.25,617.75,653,542,640.5,538,604"></polygon><polygon data-id="167" data-sec="1" data-build="1" data-floor="6" class="s3d-svg__house js-s3d-svg__house" points="1131.25,703.25,1145,685.75,1147.75,638.75,1134.5,656.25,1085,649.5,1083,694.75"></polygon><polygon data-id="166" data-sec="1" data-build="1" data-floor="6" class="s3d-svg__house js-s3d-svg__house" points="1084.5,649.5,1083,695.25,981.25,678.75,982,635.75"></polygon><polygon data-id="168" data-sec="1" data-build="1" data-floor="6" class="s3d-svg__house js-s3d-svg__house" points="981.25,635.5,981,678.75,886,661.75,885,620.75"></polygon><polygon data-id="170" data-sec="1" data-build="1" data-floor="6" class="s3d-svg__house js-s3d-svg__house" points="885,621,885.25,661.75,786.25,645.5,784,606"></polygon><polygon data-id="240" data-sec="2" data-build="1" data-floor="6" class="s3d-svg__house js-s3d-svg__house" points="783.75,600.25,785.5,641.75,724.25,631.75,722.5,593"></polygon><polygon data-id="242" data-sec="2" data-build="1" data-floor="6" class="s3d-svg__house js-s3d-svg__house" points="722,593.5,723.75,632.25,614.5,613.75,612,579"></polygon><polygon data-id="243" data-sec="2" data-build="1" data-floor="6" class="s3d-svg__house js-s3d-svg__house" points="611.75,579,614,614.25,537.75,603.75,534.25,569.75"></polygon><polygon data-id="172" data-sec="1" data-build="1" data-floor="7" class="s3d-svg__house js-s3d-svg__house" points="1133.5,656.5,1147.75,637.75,1150.5,592,1136.25,605.25,1086.5,600.75,1084.5,650.25"></polygon><polygon data-id="171" data-sec="1" data-build="1" data-floor="7" class="s3d-svg__house js-s3d-svg__house" points="1086,601,1084.5,649.5,981.25,635.75,981.5,587.75"></polygon><polygon data-id="173" data-sec="1" data-build="1" data-floor="7" class="s3d-svg__house js-s3d-svg__house" points="981.25,587.75,980.75,635.5,884.5,621.5,883.5,575"></polygon><polygon data-id="175" data-sec="1" data-build="1" data-floor="7" class="s3d-svg__house js-s3d-svg__house" points="883.5,574.5,884.25,621.25,783.75,606.75,782.5,560.5"></polygon><polygon data-id="247" data-sec="2" data-build="1" data-floor="7" class="s3d-svg__house js-s3d-svg__house" points="781.75,556.75,783.25,599.75,721.5,593,719.5,550.5"></polygon><polygon data-id="249" data-sec="2" data-build="1" data-floor="7" class="s3d-svg__house js-s3d-svg__house" points="719,550,721.25,592.5,611.5,579,609,539.25"></polygon><polygon data-id="250" data-sec="2" data-build="1" data-floor="7" class="s3d-svg__house js-s3d-svg__house" points="608.75,539.25,611,579,534.5,570.25,530.25,531.75"></polygon><polygon data-id="177" data-sec="1" data-build="1" data-floor="8" class="s3d-svg__house js-s3d-svg__house" points="1136,605.25,1150.25,591.75,1152.5,543,1138,555.5,1087.75,551,1086.25,600.75"></polygon><polygon data-id="176" data-sec="1" data-build="1" data-floor="8" class="s3d-svg__house js-s3d-svg__house" points="1087.25,551.25,1086,601.25,980.75,588.75,981.25,539.25"></polygon><polygon data-id="178" data-sec="1" data-build="1" data-floor="8" class="s3d-svg__house js-s3d-svg__house" points="981,538.75,980.5,587.75,883,575.25,881.75,529.25"></polygon><polygon data-id="180" data-sec="1" data-build="1" data-floor="8" class="s3d-svg__house js-s3d-svg__house" points="882,529.5,883,575,782,561.25,781,519.25"></polygon><polygon data-id="254" data-sec="2" data-build="1" data-floor="8" class="s3d-svg__house js-s3d-svg__house" points="780.5,514.5,781.5,557.25,718.75,551,716.75,509.5"></polygon><polygon data-id="256" data-sec="2" data-build="1" data-floor="8" class="s3d-svg__house js-s3d-svg__house" points="716.5,510,718.5,550.5,608,538.75,604.75,501"></polygon><polygon data-id="257" data-sec="2" data-build="1" data-floor="8" class="s3d-svg__house js-s3d-svg__house" points="604.5,501.5,607.25,539.75,529.5,532.75,526.25,494.25"></polygon><polygon data-id="182" data-sec="1" data-build="1" data-floor="9" class="s3d-svg__house js-s3d-svg__house" points="1137.75,556.25,1152,543.5,1153.25,507.25,1196.25,474.5,1197,463.25,1140.75,501.5,1089.5,500,1087.75,551"></polygon><polygon data-id="181" data-sec="1" data-build="1" data-floor="9" class="s3d-svg__house js-s3d-svg__house" points="1088.75,500,1087.25,551,981,539.5,982.25,490.75"></polygon><polygon data-id="183" data-sec="1" data-build="1" data-floor="9" class="s3d-svg__house js-s3d-svg__house" points="981.25,491.25,980.75,539,880.75,529.75,880,482.5"></polygon><polygon data-id="185" data-sec="1" data-build="1" data-floor="9" class="s3d-svg__house js-s3d-svg__house" points="879.75,482.25,880.75,529.5,780.5,520.25,779,474.25"></polygon><polygon data-id="261" data-sec="2" data-build="1" data-floor="9" class="s3d-svg__house js-s3d-svg__house" points="777.75,443.5,779.5,514.75,715.75,509.75,711.5,439.75"></polygon><polygon data-id="263" data-sec="2" data-build="1" data-floor="9" class="s3d-svg__house js-s3d-svg__house" points="711,440,715,510.25,603.5,501.5,598,431.75"></polygon><polygon data-id="264" data-sec="2" data-build="1" data-floor="9" class="s3d-svg__house js-s3d-svg__house" points="598,432.5,603.5,502,526,495,518.75,428.5"></polygon><polygon data-id="187" data-sec="1" data-build="1" data-floor="10" class="s3d-svg__house js-s3d-svg__house" points="1197.25,463.25,1140.25,502.25,1088.5,499.75,1088.5,446.5,1142.5,448.25,1199.75,417.75"></polygon><polygon data-id="186" data-sec="1" data-build="1" data-floor="10" class="s3d-svg__house js-s3d-svg__house" points="1088.25,446.25,1088.25,500.25,981.25,490.75,981,440"></polygon><polygon data-id="188" data-sec="1" data-build="1" data-floor="10" class="s3d-svg__house js-s3d-svg__house" points="981,439.75,981.25,491.5,879.75,483,879.25,433.75"></polygon><polygon data-id="190" data-sec="1" data-build="1" data-floor="10" class="s3d-svg__house js-s3d-svg__house" points="879,433.75,879.25,482.25,779,474.75,777,426.5"></polygon><polygon data-id="192" data-sec="1" data-build="1" data-floor="11" class="s3d-svg__house js-s3d-svg__house" points="1088.5,446.5,1142.75,448.25,1199.75,417.5,1202.5,375.5,1146.5,394.75,1090,393"></polygon><polygon data-id="191" data-sec="1" data-build="1" data-floor="11" class="s3d-svg__house js-s3d-svg__house" points="1089.5,393,1088.25,446.5,981,440.75,981,388.25"></polygon><polygon data-id="193" data-sec="1" data-build="1" data-floor="11" class="s3d-svg__house js-s3d-svg__house" points="980.5,388.25,980.5,439.5,879.25,434.25,877.25,383"></polygon><polygon data-id="195" data-sec="1" data-build="1" data-floor="11" class="s3d-svg__house js-s3d-svg__house" points="877.5,383,878.75,434.25,777,426.75,775.5,378.5"></polygon><polygon data-id="196" data-sec="1" data-build="1" data-floor="12" class="s3d-svg__house js-s3d-svg__house" points="1146.25,395.25,1203,375.5,1205.25,331,1148,336,1090.5,336.75,1089.25,392.75"></polygon><polygon data-id="197" data-sec="1" data-build="1" data-floor="12" class="s3d-svg__house js-s3d-svg__house" points="1090,336.5,1089,393.25,980.25,388.75,979.75,336.25"></polygon><polygon data-id="198" data-sec="1" data-build="1" data-floor="12" class="s3d-svg__house js-s3d-svg__house" points="979.75,336,980,388,877.5,383.5,876.5,334.75"></polygon><polygon data-id="199" data-sec="1" data-build="1" data-floor="13" class="s3d-svg__house js-s3d-svg__house" points="1090,336.25,1147.75,336.75,1205,331.5,1208.25,278.5,1151.75,274.75,1091.5,275"></polygon><polygon data-id="200" data-sec="1" data-build="1" data-floor="13" class="s3d-svg__house js-s3d-svg__house" points="1091.25,274.75,1089.75,337,979.25,336,979.75,275.75"></polygon><polygon data-id="201" data-sec="1" data-build="1" data-floor="13" class="s3d-svg__house js-s3d-svg__house" points="979,275.25,979,336.25,876,335.5,874.75,277.25"></polygon><polygon data-id="202" data-sec="1" data-build="1" data-floor="14" class="s3d-svg__house js-s3d-svg__house" points="1091.25,274.75,1152,275.25,1208.25,278.75,1210.75,226,1154.75,196.5,1093.25,199"></polygon><polygon data-id="203" data-sec="1" data-build="1" data-floor="14" class="s3d-svg__house js-s3d-svg__house" points="1092.25,199,1091,275.75,978.5,275.5,978.25,204.25"></polygon><polygon data-id="204" data-sec="1" data-build="1" data-floor="14" class="s3d-svg__house js-s3d-svg__house" points="977.75,204,978.5,275.75,874.25,276.75,872,210"></polygon></svg>