<svg preserveAspectRatio="xMidYMid slice" id="floor--svg" viewBox="0 0 1920 1080" version="1.0"
     xmlns="http://www.w3.org/2000/svg">
    <polygon data-sec="1" data-build="1" data-type="flyby" data-flyby="2" class="s3d-svg__house js-s3d-svg__house"
             points="1128.6666666667,107.5,1004,144.5,998.33333333333,559.5,1021,576.83333333333,1257,645.16666666667,1281.6666666667,199.16666666667,1193.6666666667,177.83333333333"></polygon>
    <polygon data-sec="1" data-build="1" data-type="flyby" data-flyby="3" class="s3d-svg__house js-s3d-svg__house"
             points="1289.368057251,818.33333333333,1299.7013905843,657.55558268229,842.96875,527.5,805.30208333333,545.16666666667,783.828125,556.16666666667,791.36805725098,726.27775065104,790.53472391764,740.94441731771,1240.828125,882.16666666667,1287.998046875,835.45833333333"></polygon>
    <polygon data-sec="1" data-build="1" data-type="flyby" data-flyby="4" class="s3d-svg__house js-s3d-svg__house"
             points="559.66666666667,303.5,592,749.83333333333,671,806.5,737.66666666667,758.16666666667,754,765.16666666667,790.53472391764,740.94441731771,791.36805725098,726.27775065104,783.828125,556.16666666667,805.30208333333,545.16666666667,842.96875,527.5,975,564.5,997.33333333333,553.5,1001,342.16666666667,935,339.83333333333,800.66666666667,389.5,796.66666666667,291.5,694,285.16666666667"></polygon>
</svg>