<svg preserveAspectRatio="xMidYMid slice" id="floor--svg"  viewBox="0 0 1920 1080" version="1.0" xmlns="http://www.w3.org/2000/svg"><polygon data-id="273" data-sec="3" data-build="1" data-floor="1" class="s3d-svg__house js-s3d-svg__house" points="697.66666666667,1023.6666666667,790,1022.3333333333,867,1025.3333333333,864.33333333333,1080.3333333333,683,1080.6666666667,689.33333333333,1023.3333333333"></polygon><polygon data-id="272" data-sec="3" data-build="1" data-floor="1" class="s3d-svg__house js-s3d-svg__house" points="689.33333333333,1023,683,1080.3333333333,567.66666666667,1080.6666666667,577.66666666667,1025"></polygon><polygon data-id="271" data-sec="3" data-build="1" data-floor="1" class="s3d-svg__house js-s3d-svg__house" points="577,1025.6666666667,567,1080,469.66666666667,1080.3333333333,480,1021.6666666667,535,1024"></polygon><polygon data-id="211" data-sec="2" data-build="1" data-floor="1" class="s3d-svg__house js-s3d-svg__house" points="480,1021.6666666667,469.33333333333,1080.6666666667,233.66666666667,1079.3333333333,254.33333333333,1017"></polygon><polygon data-id="210" data-sec="2" data-build="1" data-floor="1" class="s3d-svg__house js-s3d-svg__house" points="254,1017.6666666667,234.66666666667,1079.6666666667,9,1080.3333333333,39,1010.3333333333"></polygon><polygon data-id="370" data-sec="4" data-build="1" data-floor="2" class="s3d-svg__house js-s3d-svg__house" points="1144.5,914.5,1155,1022.5,1587.5,1016.5,1665,995,1626,872.5,1548,879.5"></polygon><polygon data-id="369" data-sec="4" data-build="1" data-floor="2" class="s3d-svg__house js-s3d-svg__house" points="1144.5,914,1154.5,1021.5,983,1024.5,983,924.5"></polygon><polygon data-id="368" data-sec="4" data-build="1" data-floor="2" class="s3d-svg__house js-s3d-svg__house" points="983,925,983,1025,810.5,1024,816.5,930,856,927.5,896.5,932.5"></polygon><polygon data-id="276" data-sec="3" data-build="1" data-floor="2" class="s3d-svg__house js-s3d-svg__house" points="816,931,809.5,1023,789.5,1022,689.5,1024,698.5,944.5"></polygon><polygon data-id="275" data-sec="3" data-build="1" data-floor="2" class="s3d-svg__house js-s3d-svg__house" points="698.5,943.5,688,1023,576.5,1025.5,588,952.5"></polygon><polygon data-id="274" data-sec="3" data-build="1" data-floor="2" class="s3d-svg__house js-s3d-svg__house" points="587.5,952,576,1026,535.5,1024.5,480,1021.5,494.5,949.5,534.5,956.5"></polygon><polygon data-id="218" data-sec="2" data-build="1" data-floor="2" class="s3d-svg__house js-s3d-svg__house" points="494,950.5,480,1023,254,1016.5,279.5,935"></polygon><polygon data-id="217" data-sec="2" data-build="1" data-floor="2" class="s3d-svg__house js-s3d-svg__house" points="279,935.5,253.5,1018,38.5,1011,75.5,921.5"></polygon><polygon data-id="373" data-sec="4" data-build="1" data-floor="3" class="s3d-svg__house js-s3d-svg__house" points="1143.5,915,1136,804.5,1510.5,737,1586,747.5,1624.5,873.5,1548,879"></polygon><polygon data-id="372" data-sec="4" data-build="1" data-floor="3" class="s3d-svg__house js-s3d-svg__house" points="1135.5,804,1144,914.5,983,925.5,980.5,825.5"></polygon><polygon data-id="371" data-sec="4" data-build="1" data-floor="3" class="s3d-svg__house js-s3d-svg__house" points="979.5,826,982,925.5,896,934,856,929,816,930.5,822.5,846.5,859.5,843,898.5,848.5,899.5,837.5"></polygon><polygon data-id="279" data-sec="3" data-build="1" data-floor="3" class="s3d-svg__house js-s3d-svg__house" points="821.5,847,816,931,698,943.5,707,865"></polygon><polygon data-id="278" data-sec="3" data-build="1" data-floor="3" class="s3d-svg__house js-s3d-svg__house" points="707,865.5,698.5,944.5,587,953,600,881"></polygon><polygon data-id="277" data-sec="3" data-build="1" data-floor="3" class="s3d-svg__house js-s3d-svg__house" points="600,881,586.5,953.5,534.5,956.5,493.5,950.5,505,880.5,547,887"></polygon><polygon data-id="225" data-sec="2" data-build="1" data-floor="3" class="s3d-svg__house js-s3d-svg__house" points="504.5,880,493.5,949.5,279,936.5,304,858"></polygon><polygon data-id="224" data-sec="2" data-build="1" data-floor="3" class="s3d-svg__house js-s3d-svg__house" points="304,858.5,278.5,937,75,922.5,111,835.5"></polygon><polygon data-id="379" data-sec="4" data-build="1" data-floor="4" class="s3d-svg__house js-s3d-svg__house" points="1135,805.5,1128,717,1480,636,1554,650,1585,748.5,1509.5,737"></polygon><polygon data-id="378" data-sec="4" data-build="1" data-floor="4" class="s3d-svg__house js-s3d-svg__house" points="1127.5,717.5,1135,805,979.5,826.5,980.5,746.5"></polygon><polygon data-id="377" data-sec="4" data-build="1" data-floor="4" class="s3d-svg__house js-s3d-svg__house" points="980,747,980,827.5,898.5,838,898.5,848.5,822,848,826,772.5,862,767,898,773.5,900.5,766"></polygon><polygon data-id="285" data-sec="3" data-build="1" data-floor="4" class="s3d-svg__house js-s3d-svg__house" points="826,772.5,822,848.5,707.5,866,715.5,796,808.5,768"></polygon><polygon data-id="284" data-sec="3" data-build="1" data-floor="4" class="s3d-svg__house js-s3d-svg__house" points="715,796.5,706.5,866,599.5,881.5,608,824.5"></polygon><polygon data-id="283" data-sec="3" data-build="1" data-floor="4" class="s3d-svg__house js-s3d-svg__house" points="607.5,824,600,882,547,887.5,505.5,880.5,517.5,819,564,830.5"></polygon><polygon data-id="232" data-sec="2" data-build="1" data-floor="4" class="s3d-svg__house js-s3d-svg__house" points="517.5,819,505.5,881.5,304.5,858.5,325,792"></polygon><polygon data-id="231" data-sec="2" data-build="1" data-floor="4" class="s3d-svg__house js-s3d-svg__house" points="325,791.5,303.5,858.5,110.5,836,143,761"></polygon><polygon data-id="385" data-sec="4" data-build="1" data-floor="5" class="s3d-svg__house js-s3d-svg__house" points="1120,635.5,1128,718,1480,636.5,1555,650.5,1525.5,560.5,1453,533.5"></polygon><polygon data-id="384" data-sec="4" data-build="1" data-floor="5" class="s3d-svg__house js-s3d-svg__house" points="1119.5,636.5,1127,718.5,980,747.5,980,673"></polygon><polygon data-id="383" data-sec="4" data-build="1" data-floor="5" class="s3d-svg__house js-s3d-svg__house" points="980,673,980.5,748,900.5,766,897.5,774.5,862.5,768,826,774,831.5,701.5,866.5,691,902,702,902.5,694.5"></polygon><polygon data-id="291" data-sec="3" data-build="1" data-floor="5" class="s3d-svg__house js-s3d-svg__house" points="832,701,826.5,772.5,809,768,714,797,722,727,832,697"></polygon><polygon data-id="290" data-sec="3" data-build="1" data-floor="5" class="s3d-svg__house js-s3d-svg__house" points="721,727,713.5,797.5,608,824.5,618.5,760.5"></polygon><polygon data-id="289" data-sec="3" data-build="1" data-floor="5" class="s3d-svg__house js-s3d-svg__house" points="618,760.5,608,825,564.5,831,517.5,819,530,763.5,574.5,773"></polygon><polygon data-id="239" data-sec="2" data-build="1" data-floor="5" class="s3d-svg__house js-s3d-svg__house" points="530.5,763,518,820,325.5,791.5,346.5,728.5"></polygon><polygon data-id="238" data-sec="2" data-build="1" data-floor="5" class="s3d-svg__house js-s3d-svg__house" points="345.5,727.5,325.5,792,143,761.5,172.5,691"></polygon><polygon data-id="391" data-sec="4" data-build="1" data-floor="6" class="s3d-svg__house js-s3d-svg__house" points="1119.5,637,1114,562.5,1426.5,448,1498,470,1526,559.5,1452.5,533.5"></polygon><polygon data-id="390" data-sec="4" data-build="1" data-floor="6" class="s3d-svg__house js-s3d-svg__house" points="1113.5,562,1119.5,637,980,673.5,980,603.5"></polygon><polygon data-id="389" data-sec="4" data-build="1" data-floor="6" class="s3d-svg__house js-s3d-svg__house" points="979.5,604,980,674,902,694.5,902.5,703,867,692,832,702.5,837,637,870,624,904.5,640,904,630"></polygon><polygon data-id="297" data-sec="3" data-build="1" data-floor="6" class="s3d-svg__house js-s3d-svg__house" points="836.5,637,832.5,697.5,721.5,728.5,727,671,818,634.5"></polygon><polygon data-id="296" data-sec="3" data-build="1" data-floor="6" class="s3d-svg__house js-s3d-svg__house" points="726.5,670.5,721,728,617.5,761.5,624,711.5"></polygon><polygon data-id="295" data-sec="3" data-build="1" data-floor="6" class="s3d-svg__house js-s3d-svg__house" points="623.5,710.5,618,762,574.5,773,529.5,763,540.5,712.5,581.5,723"></polygon><polygon data-id="246" data-sec="2" data-build="1" data-floor="6" class="s3d-svg__house js-s3d-svg__house" points="540.5,712,529.5,764.5,345,729.5,365,669"></polygon><polygon data-id="245" data-sec="2" data-build="1" data-floor="6" class="s3d-svg__house js-s3d-svg__house" points="365,668,345,728.5,172.5,691.5,196.5,627"></polygon><polygon data-id="244" data-sec="2" data-build="1" data-floor="6" class="s3d-svg__house js-s3d-svg__house" points="196,627,171.5,692,0,656.5,0.5,578.5"></polygon><polygon data-id="397" data-sec="4" data-build="1" data-floor="7" class="s3d-svg__house js-s3d-svg__house" points="1113.5,563,1107.5,493,1406,374,1475,398,1497,470.5,1427,447.5"></polygon><polygon data-id="396" data-sec="4" data-build="1" data-floor="7" class="s3d-svg__house js-s3d-svg__house" points="1107,493.5,1113.5,563.5,980,605,980,540.5"></polygon><polygon data-id="395" data-sec="4" data-build="1" data-floor="7" class="s3d-svg__house js-s3d-svg__house" points="979.5,541,980,605,904,630.5,903.5,640.5,870.5,625,836,637,840,575,874,563,905,575.5,906.5,568"></polygon><polygon data-id="303" data-sec="3" data-build="1" data-floor="7" class="s3d-svg__house js-s3d-svg__house" points="840.5,575.5,836.5,638.5,818,635,726.5,671,733.5,610"></polygon><polygon data-id="302" data-sec="3" data-build="1" data-floor="7" class="s3d-svg__house js-s3d-svg__house" points="733,610,726.5,671.5,624,711,634.5,649.5"></polygon><polygon data-id="301" data-sec="3" data-build="1" data-floor="7" class="s3d-svg__house js-s3d-svg__house" points="634,648.5,623.5,711.5,580.5,723,539.5,712,552.5,654.5,594.5,668.5"></polygon><polygon data-id="253" data-sec="2" data-build="1" data-floor="7" class="s3d-svg__house js-s3d-svg__house" points="552.5,654.5,539,713,365.5,668.5,383,611"></polygon><polygon data-id="252" data-sec="2" data-build="1" data-floor="7" class="s3d-svg__house js-s3d-svg__house" points="382.5,611,364,669,197.5,627.5,221.5,567.5"></polygon><polygon data-id="251" data-sec="2" data-build="1" data-floor="7" class="s3d-svg__house js-s3d-svg__house" points="222,568,196,627,1,578.5,0.5,501.5"></polygon><polygon data-id="403" data-sec="4" data-build="1" data-floor="8" class="s3d-svg__house js-s3d-svg__house" points="1108,494,1102.5,429,1388,303,1449.5,323,1473.5,399,1406.5,373.5"></polygon><polygon data-id="402" data-sec="4" data-build="1" data-floor="8" class="s3d-svg__house js-s3d-svg__house" points="1102.5,428,1107.5,495,979.5,542.5,980,481"></polygon><polygon data-id="401" data-sec="4" data-build="1" data-floor="8" class="s3d-svg__house js-s3d-svg__house" points="980,481.5,979.5,541,906.5,568.5,905,576.5,874,564.5,840.5,575,843.5,517.5,876,505,907,519.5,906.5,511.5"></polygon><polygon data-id="309" data-sec="3" data-build="1" data-floor="8" class="s3d-svg__house js-s3d-svg__house" points="843.5,517.5,840.5,575,733.5,610.5,738.5,559,827.5,510.5"></polygon><polygon data-id="308" data-sec="3" data-build="1" data-floor="8" class="s3d-svg__house js-s3d-svg__house" points="737,559.5,732.5,611,634.5,649,642.5,607"></polygon><polygon data-id="307" data-sec="3" data-build="1" data-floor="8" class="s3d-svg__house js-s3d-svg__house" points="642,607,634,649.5,595,668,552,656,563.5,610,599.5,624"></polygon><polygon data-id="260" data-sec="2" data-build="1" data-floor="8" class="s3d-svg__house js-s3d-svg__house" points="563,610,552.5,655,383,611,399,557"></polygon><polygon data-id="259" data-sec="2" data-build="1" data-floor="8" class="s3d-svg__house js-s3d-svg__house" points="399.5,556.5,383,612,222,567,244.5,509"></polygon><polygon data-id="258" data-sec="2" data-build="1" data-floor="8" class="s3d-svg__house js-s3d-svg__house" points="244,508.5,221,570,0.5,503,0,448,10,430.5"></polygon><polygon data-id="409" data-sec="4" data-build="1" data-floor="9" class="s3d-svg__house js-s3d-svg__house" points="1103,429.5,1099,372.5,1370,239.5,1428.5,259,1450,322,1387,303"></polygon><polygon data-id="408" data-sec="4" data-build="1" data-floor="9" class="s3d-svg__house js-s3d-svg__house" points="1098.5,372,1103,430.5,979.5,482.5,978.5,428"></polygon><polygon data-id="407" data-sec="4" data-build="1" data-floor="9" class="s3d-svg__house js-s3d-svg__house" points="979,428.5,979.5,483,905.5,512,906.5,520.5,875.5,506,843,519,847,463.5,880,449.5,907.5,464"></polygon><polygon data-id="315" data-sec="3" data-build="1" data-floor="9" class="s3d-svg__house js-s3d-svg__house" points="846.5,463.5,843,518.5,827.5,511,737,560.5,745,508.5,831.5,459.5"></polygon><polygon data-id="314" data-sec="3" data-build="1" data-floor="9" class="s3d-svg__house js-s3d-svg__house" points="745,508.5,737,561,642,608,651.5,557.5"></polygon><polygon data-id="313" data-sec="3" data-build="1" data-floor="9" class="s3d-svg__house js-s3d-svg__house" points="651,557.5,642,608,600,625,563,611,573,569.5,609,583"></polygon><polygon data-id="267" data-sec="2" data-build="1" data-floor="9" class="s3d-svg__house js-s3d-svg__house" points="573.5,569,563.5,611.5,400,557.5,414,510.5"></polygon><polygon data-id="266" data-sec="2" data-build="1" data-floor="9" class="s3d-svg__house js-s3d-svg__house" points="414.5,510.5,399.5,558.5,244,508.5,266.5,456.5"></polygon><polygon data-id="265" data-sec="2" data-build="1" data-floor="9" class="s3d-svg__house js-s3d-svg__house" points="266.5,456,244,508.5,10,430.5,46,370"></polygon><polygon data-id="415" data-sec="4" data-build="1" data-floor="10" class="s3d-svg__house js-s3d-svg__house" points="1098.5,373.5,1093,317,1352,178.5,1411.5,199.5,1429,260,1369,240"></polygon><polygon data-id="414" data-sec="4" data-build="1" data-floor="10" class="s3d-svg__house js-s3d-svg__house" points="1093,316.5,1098.5,373.5,979,428,978,373.5"></polygon><polygon data-id="413" data-sec="4" data-build="1" data-floor="10" class="s3d-svg__house js-s3d-svg__house" points="979,373.5,979,428.5,907.5,465,879.5,449,848,464.5,851.5,414.5,883,396,909,415,910,409.5"></polygon><polygon data-id="321" data-sec="3" data-build="1" data-floor="10" class="s3d-svg__house js-s3d-svg__house" points="851,415,848,463.5,831.5,460.5,744.5,508,749,460.5,835.5,407.5"></polygon><polygon data-id="320" data-sec="3" data-build="1" data-floor="10" class="s3d-svg__house js-s3d-svg__house" points="749,460,744,510,651,557.5,657.5,516"></polygon><polygon data-id="319" data-sec="3" data-build="1" data-floor="10" class="s3d-svg__house js-s3d-svg__house" points="657.5,516.5,650.5,559,609,584,572,569.5,582.5,525.5,616,539.5"></polygon><polygon data-id="270" data-sec="2" data-build="1" data-floor="10" class="s3d-svg__house js-s3d-svg__house" points="582.5,525,572.5,569,414.5,511,428.5,461.5"></polygon><polygon data-id="269" data-sec="2" data-build="1" data-floor="10" class="s3d-svg__house js-s3d-svg__house" points="428.5,461,414,511.5,267,457.5,288.5,404.5"></polygon><polygon data-id="268" data-sec="2" data-build="1" data-floor="10" class="s3d-svg__house js-s3d-svg__house" points="288.5,404.5,266.5,458,46.5,370.5,75.5,318"></polygon><polygon data-id="421" data-sec="4" data-build="1" data-floor="11" class="s3d-svg__house js-s3d-svg__house" points="1093.5,318,1088.5,259.5,1338.5,120,1392,145.5,1410.5,199,1351.5,179"></polygon><polygon data-id="420" data-sec="4" data-build="1" data-floor="11" class="s3d-svg__house js-s3d-svg__house" points="1088,258.5,1093,317.5,978.5,373.5,978,323"></polygon><polygon data-id="419" data-sec="4" data-build="1" data-floor="11" class="s3d-svg__house js-s3d-svg__house" points="977,323,978.5,373.5,910,409.5,909,416,883.5,397,850.5,413,854.5,367.5,883,349.5,911,365.5,912.5,360"></polygon><polygon data-id="326" data-sec="3" data-build="1" data-floor="11" class="s3d-svg__house js-s3d-svg__house" points="854,367,851,414.5,835,409,752.5,458,756,414.5,839.5,362"></polygon><polygon data-id="325" data-sec="3" data-build="1" data-floor="11" class="s3d-svg__house js-s3d-svg__house" points="756.5,414,752,459,657.5,516.5,666.5,467"></polygon><polygon data-id="427" data-sec="4" data-build="1" data-floor="12" class="s3d-svg__house js-s3d-svg__house" points="1087.5,261,1083.5,210.5,1325,71.5,1379,100.5,1392,144.5,1338.5,120.5"></polygon><polygon data-id="426" data-sec="4" data-build="1" data-floor="12" class="s3d-svg__house js-s3d-svg__house" points="1083.5,211.5,1088,259.5,977.5,324,977.5,277"></polygon><polygon data-id="425" data-sec="4" data-build="1" data-floor="12" class="s3d-svg__house js-s3d-svg__house" points="977.5,276.5,976.5,323.5,912,360,910.5,367,882.5,351,854,367,855.5,321.5,885.5,303,913.5,321.5,913.5,317"></polygon><polygon data-id="331" data-sec="3" data-build="1" data-floor="12" class="s3d-svg__house js-s3d-svg__house" points="855,321,853.5,368,839,361.5,756.5,415,761,371.5,842.5,316"></polygon><polygon data-id="330" data-sec="3" data-build="1" data-floor="12" class="s3d-svg__house js-s3d-svg__house" points="761,372.5,756,416,666,467.5,669.5,434.5"></polygon><polygon data-id="433" data-sec="4" data-build="1" data-floor="13" class="s3d-svg__house js-s3d-svg__house" points="1083,211.5,1080.5,176,1309.5,27.5,1368.5,68.5,1378.5,102,1323,71.5"></polygon><polygon data-id="432" data-sec="4" data-build="1" data-floor="13" class="s3d-svg__house js-s3d-svg__house" points="1080.5,176.5,1084,211.5,977,275.5,977,234.5"></polygon><polygon data-id="431" data-sec="4" data-build="1" data-floor="13" class="s3d-svg__house js-s3d-svg__house" points="977.5,235,977.5,277,913.5,316.5,913.5,322,885,303.5,855.5,320.5,859,277.5,887.5,260,913,280.5,914,274"></polygon><polygon data-id="336" data-sec="3" data-build="1" data-floor="13" class="s3d-svg__house js-s3d-svg__house" points="859,277.5,856,322.5,842.5,316.5,761,374,767,333,847.5,275.5"></polygon><polygon data-id="335" data-sec="3" data-build="1" data-floor="13" class="s3d-svg__house js-s3d-svg__house" points="766,333.5,760.5,373.5,669.5,434.5,675.5,396"></polygon><polygon data-id="439" data-sec="4" data-build="1" data-floor="14" class="s3d-svg__house js-s3d-svg__house" points="1076.5,134.5,1081,177,1308.5,28.5,1368,69,1357,26.5,1300.5,1.5,1274,2"></polygon><polygon data-id="438" data-sec="4" data-build="1" data-floor="14" class="s3d-svg__house js-s3d-svg__house" points="1076,134,1080.5,177.5,977,235,975.5,196"></polygon><polygon data-id="437" data-sec="4" data-build="1" data-floor="14" class="s3d-svg__house js-s3d-svg__house" points="975.5,197,976.5,237,914,275,912,281.5,887.5,261,858,278,862.5,239.5,890,221.5,916.5,240"></polygon><polygon data-id="341" data-sec="3" data-build="1" data-floor="14" class="s3d-svg__house js-s3d-svg__house" points="861.5,239,859.5,277.5,847,275.5,766.5,333.5,771,291.5,849.5,232"></polygon><polygon data-id="340" data-sec="3" data-build="1" data-floor="14" class="s3d-svg__house js-s3d-svg__house" points="770.5,292,767,334.5,674,396.5,680.5,356.5"></polygon><polygon data-id="445" data-sec="4" data-build="1" data-floor="15" class="s3d-svg__house js-s3d-svg__house" points="1077,134.5,1073,88.5,1206,2,1274.5,1.5"></polygon><polygon data-id="444" data-sec="4" data-build="1" data-floor="15" class="s3d-svg__house js-s3d-svg__house" points="1073,89.5,1077,134.5,976.5,198,975,155"></polygon><polygon data-id="443" data-sec="4" data-build="1" data-floor="15" class="s3d-svg__house js-s3d-svg__house" points="975,155,976.5,198,916.5,240.5,890.5,222.5,862.5,239.5,865,200,892.5,179.5,915.5,201.5,918,196.5"></polygon><polygon data-id="346" data-sec="3" data-build="1" data-floor="15" class="s3d-svg__house js-s3d-svg__house" points="864,200.5,862.5,240.5,849.5,233,771,292.5,777,251.5,853,194"></polygon><polygon data-id="345" data-sec="3" data-build="1" data-floor="15" class="s3d-svg__house js-s3d-svg__house" points="777,252,771,292.5,681,358,687,318.5"></polygon><polygon data-id="451" data-sec="4" data-build="1" data-floor="16" class="s3d-svg__house js-s3d-svg__house" points="1072,90,1068.5,57,1146.5,2,1206,3.5"></polygon><polygon data-id="449" data-sec="4" data-build="1" data-floor="16" class="s3d-svg__house js-s3d-svg__house" points="974.5,121,976,156,919,197.5,915.5,203,892.5,181,865.5,200.5,868.5,163.5,894,144.5,918.5,166,919.5,160.5"></polygon><polygon data-id="450" data-sec="4" data-build="1" data-floor="16" class="s3d-svg__house js-s3d-svg__house" points="1068.5,56.5,1072,89.5,975,156.5,974.5,120.5"></polygon><polygon data-id="351" data-sec="3" data-build="1" data-floor="16" class="s3d-svg__house js-s3d-svg__house" points="868.5,163.5,865,202,853,195.5,777,252,779,217,855.5,156.5"></polygon><polygon data-id="350" data-sec="3" data-build="1" data-floor="16" class="s3d-svg__house js-s3d-svg__house" points="779.5,217.5,777.5,253,687,319,692.5,284"></polygon><polygon data-id="356" data-sec="3" data-build="1" data-floor="17" class="s3d-svg__house js-s3d-svg__house" points="868,162.5,870.5,126.5,858.5,123.5,784.5,182.5,779.5,217.5,854.5,156"></polygon><polygon data-id="355" data-sec="3" data-build="1" data-floor="17" class="s3d-svg__house js-s3d-svg__house" points="784,182,779,218.5,691,283.5,701.5,245"></polygon><polygon data-id="361" data-sec="3" data-build="1" data-floor="18" class="s3d-svg__house js-s3d-svg__house" points="858.5,124,784.5,182.5,791,148,861,91.5,909,131.5,896.5,141.5,870.5,128.5"></polygon><polygon data-id="360" data-sec="3" data-build="1" data-floor="18" class="s3d-svg__house js-s3d-svg__house" points="791,148,784.5,184,701.5,245.5,705.5,217.5"></polygon><polygon data-id="365" data-sec="3" data-build="1" data-floor="19" class="s3d-svg__house js-s3d-svg__house" points="790,148.5,793.5,115,709.5,192.5,705.5,217.5"></polygon></svg>