<svg preserveAspectRatio="xMidYMid slice" id="floor--svg"  viewBox="0 0 1920 1080" version="1.0" xmlns="http://www.w3.org/2000/svg"><polygon data-id="206" data-sec="2" data-build="1" data-floor="1" class="s3d-svg__house js-s3d-svg__house" points="515.66666666667,925,515.66666666667,925,512.33333333333,1020.6666666667,512.33333333333,1020.6666666667,527,1021.3333333333,527,1021.3333333333,540,1007.6666666667,540,1007.6666666667,607,936.66666666667,607,936.66666666667,654.66666666667,937.66666666667,654.66666666667,937.66666666667,656,865,656,865,605.33333333333,863.66666666667,605.33333333333,863.66666666667,542.66666666667,912.33333333333,542.66666666667,912.33333333333,528.33333333333,925.33333333333,528.33333333333,925.33333333333"></polygon><polygon data-id="209" data-sec="2" data-build="1" data-floor="1" class="s3d-svg__house js-s3d-svg__house" points="655.33333333333,865.33333333333,655.33333333333,865.33333333333,655.33333333333,938,655.33333333333,938,672,938.33333333333,672,938.33333333333,680.33333333333,925,680.33333333333,925,852.33333333333,924.33333333333,852.33333333333,924.33333333333,853,849,853,849,680,850.33333333333,680,850.33333333333,678.66666666667,863.66666666667,678.66666666667,863.66666666667,673.66666666667,866.66666666667,673.66666666667,866.66666666667"></polygon><polygon data-id="210" data-sec="2" data-build="1" data-floor="1" class="s3d-svg__house js-s3d-svg__house" points="853,849.33333333333,853,849.33333333333,852.33333333333,924,852.33333333333,924,1023.3333333333,925,1023.3333333333,925,1023.3333333333,848.66666666667,1023.3333333333,848.66666666667"></polygon><polygon data-id="211" data-sec="2" data-build="1" data-floor="1" class="s3d-svg__house js-s3d-svg__house" points="1023,848.66666666667,1023,848.66666666667,1023.6666666667,926.33333333333,1023.6666666667,926.33333333333,1280.6666666667,925,1280.6666666667,925,1280.3333333333,851.33333333333,1280.3333333333,851.33333333333"></polygon><polygon data-id="271" data-sec="3" data-build="1" data-floor="1" class="s3d-svg__house js-s3d-svg__house" points="1280.6666666667,850.33333333333,1280.6666666667,850.33333333333,1280.3333333333,925.33333333333,1280.3333333333,925.33333333333,1328,925.66666666667,1328,925.66666666667,1371.6666666667,963,1371.6666666667,963,1377.3333333333,969.66666666667,1377.3333333333,969.66666666667,1377.6666666667,877.33333333333,1377.6666666667,877.33333333333,1331.3333333333,849,1331.3333333333,849"></polygon><polygon data-id="272" data-sec="3" data-build="1" data-floor="1" class="s3d-svg__house js-s3d-svg__house" points="1377.6666666667,877.66666666667,1377.6666666667,877.66666666667,1377.6666666667,970.33333333333,1377.6666666667,970.33333333333,1495,1080,1495,1080,1536.6666666667,1080.6666666667,1536.6666666667,1080.6666666667,1540,1079.6666666667,1540,1079.6666666667,1542,987,1542,987"></polygon><polygon data-id="144" data-sec="1" data-build="1" data-floor="1" class="s3d-svg__house js-s3d-svg__house" points="515.33333333333,925.33333333333,515.33333333333,925.33333333333,513,1022.6666666667,513,1022.6666666667,457.33333333333,1080.6666666667,457.33333333333,1080.6666666667,363.66666666667,1079.6666666667,363.66666666667,1079.6666666667,363.66666666667,1043.6666666667,363.66666666667,1043.6666666667"></polygon><polygon data-id="149" data-sec="1" data-build="1" data-floor="2" class="s3d-svg__house js-s3d-svg__house" points="363.33333333333,1043.3333333333,363.33333333333,1043.3333333333,364.66666666667,939,364.66666666667,939,515,844.66666666667,515,844.66666666667,515.33333333333,924.33333333333,515.33333333333,924.33333333333"></polygon><polygon data-id="213" data-sec="2" data-build="1" data-floor="2" class="s3d-svg__house js-s3d-svg__house" points="514.66666666667,844,514.66666666667,844,515.33333333333,926.33333333333,515.33333333333,926.33333333333,527.66666666667,926,527.66666666667,926,605,864,605,864,655.66666666667,864.66666666667,655.66666666667,864.66666666667,656.66666666667,787.33333333333,656.66666666667,787.33333333333,607.66666666667,787.66666666667,607.66666666667,787.66666666667"></polygon><polygon data-id="216" data-sec="2" data-build="1" data-floor="2" class="s3d-svg__house js-s3d-svg__house" points="656.33333333333,787.33333333333,656.33333333333,787.33333333333,655.33333333333,865.33333333333,655.33333333333,865.33333333333,673.66666666667,867,673.66666666667,867,678.33333333333,864,678.33333333333,864,679,850.33333333333,679,850.33333333333,853.33333333333,849,853.33333333333,849,853.33333333333,779.33333333333,853.33333333333,779.33333333333,682,779.33333333333,682,779.33333333333,673,786.66666666667,673,786.66666666667"></polygon><polygon data-id="217" data-sec="2" data-build="1" data-floor="2" class="s3d-svg__house js-s3d-svg__house" points="853.33333333333,780,853.33333333333,780,853.33333333333,849.33333333333,853.33333333333,849.33333333333,1023.3333333333,848.66666666667,1023.3333333333,848.66666666667,1023.3333333333,779.66666666667,1023.3333333333,779.66666666667"></polygon><polygon data-id="218" data-sec="2" data-build="1" data-floor="2" class="s3d-svg__house js-s3d-svg__house" points="1023.3333333333,779.66666666667,1023.3333333333,779.66666666667,1023,849,1023,849,1280,851,1280,851,1280.3333333333,782,1280.3333333333,782"></polygon><polygon data-id="274" data-sec="3" data-build="1" data-floor="2" class="s3d-svg__house js-s3d-svg__house" points="1280.3333333333,782.33333333333,1280.3333333333,782.33333333333,1280.6666666667,850.33333333333,1280.6666666667,850.33333333333,1331,848.66666666667,1331,848.66666666667,1377.6666666667,877.66666666667,1377.6666666667,877.66666666667,1378.6666666667,805.33333333333,1378.6666666667,805.33333333333,1328,783,1328,783"></polygon><polygon data-id="275" data-sec="3" data-build="1" data-floor="2" class="s3d-svg__house js-s3d-svg__house" points="1378.6666666667,806.66666666667,1378.6666666667,806.66666666667,1542.6666666667,898.66666666667,1542.6666666667,898.66666666667,1541.6666666667,987.33333333333,1541.6666666667,987.33333333333,1376.6666666667,876.66666666667,1376.6666666667,876.66666666667"></polygon><polygon data-id="154" data-sec="1" data-build="1" data-floor="3" class="s3d-svg__house js-s3d-svg__house" points="364.66666666667,939.33333333333,364.66666666667,939.33333333333,367,806.33333333333,367,806.33333333333,514.33333333333,746.66666666667,514.33333333333,746.66666666667,514.33333333333,844,514.33333333333,844"></polygon><polygon data-id="220" data-sec="2" data-build="1" data-floor="3" class="s3d-svg__house js-s3d-svg__house" points="514,747,514,747,514.33333333333,844.66666666667,514.33333333333,844.66666666667,607,787.66666666667,607,787.66666666667,656,788.33333333333,656,788.33333333333,657.66666666667,704.33333333333,657.66666666667,704.33333333333,609,705,609,705"></polygon><polygon data-id="223" data-sec="2" data-build="1" data-floor="3" class="s3d-svg__house js-s3d-svg__house" points="657.33333333333,703.66666666667,657.33333333333,703.66666666667,656,787.66666666667,656,787.66666666667,673.66666666667,787.33333333333,673.66666666667,787.33333333333,682,779,682,779,853.66666666667,778.66666666667,853.66666666667,778.66666666667,854,696.66666666667,854,696.66666666667,686.33333333333,696.33333333333,686.33333333333,696.33333333333,674.66666666667,704,674.66666666667,704"></polygon><polygon data-id="224" data-sec="2" data-build="1" data-floor="3" class="s3d-svg__house js-s3d-svg__house" points="853.66666666667,696,853.66666666667,696,853,779.66666666667,853,779.66666666667,1024,780.33333333333,1024,780.33333333333,1023.3333333333,695.33333333333,1023.3333333333,695.33333333333"></polygon><polygon data-id="225" data-sec="2" data-build="1" data-floor="3" class="s3d-svg__house js-s3d-svg__house" points="1023.3333333333,695,1023.3333333333,695,1023.6666666667,780,1023.6666666667,780,1280.6666666667,781.66666666667,1280.6666666667,781.66666666667,1279.6666666667,692,1279.6666666667,692"></polygon><polygon data-id="277" data-sec="3" data-build="1" data-floor="3" class="s3d-svg__house js-s3d-svg__house" points="1279.3333333333,692,1279.3333333333,692,1280.3333333333,782.33333333333,1280.3333333333,782.33333333333,1328,783,1328,783,1379,806.33333333333,1379,806.33333333333,1379.3333333333,709.33333333333,1379.3333333333,709.33333333333,1332.6666666667,692,1332.6666666667,692"></polygon><polygon data-id="278" data-sec="3" data-build="1" data-floor="3" class="s3d-svg__house js-s3d-svg__house" points="1379.3333333333,709.66666666667,1379.3333333333,709.66666666667,1543.6666666667,782,1543.6666666667,782,1543,897.66666666667,1543,897.66666666667,1378.3333333333,806.66666666667,1378.3333333333,806.66666666667"></polygon><polygon data-id="159" data-sec="1" data-build="1" data-floor="4" class="s3d-svg__house js-s3d-svg__house" points="368.33333333333,682.33333333333,368.33333333333,682.33333333333,367.33333333333,806.66666666667,367.33333333333,806.66666666667,514,747,514,747,514.66666666667,651.33333333333,514.66666666667,651.33333333333"></polygon><polygon data-id="227" data-sec="2" data-build="1" data-floor="4" class="s3d-svg__house js-s3d-svg__house" points="515,650.66666666667,515,650.66666666667,513.66666666667,747.66666666667,513.66666666667,747.66666666667,608.66666666667,705.33333333333,608.66666666667,705.33333333333,657.66666666667,704,657.66666666667,704,657.66666666667,630,657.66666666667,630,606,628.66666666667,606,628.66666666667"></polygon><polygon data-id="230" data-sec="2" data-build="1" data-floor="4" class="s3d-svg__house js-s3d-svg__house" points="657,630.33333333333,657,630.33333333333,657.33333333333,705,657.33333333333,705,675,704.33333333333,675,704.33333333333,686.33333333333,696.33333333333,686.33333333333,696.33333333333,853.66666666667,696.66666666667,853.66666666667,696.66666666667,854,619.33333333333,854,619.33333333333,683.66666666667,622,683.66666666667,622,674,630.66666666667,674,630.66666666667"></polygon><polygon data-id="231" data-sec="2" data-build="1" data-floor="4" class="s3d-svg__house js-s3d-svg__house" points="853.66666666667,619.66666666667,853.66666666667,619.66666666667,853.33333333333,696.33333333333,853.33333333333,696.33333333333,1023,695,1023,695,1022.6666666667,620.66666666667,1022.6666666667,620.66666666667"></polygon><polygon data-id="232" data-sec="2" data-build="1" data-floor="4" class="s3d-svg__house js-s3d-svg__house" points="1022.3333333333,621.33333333333,1022.3333333333,621.33333333333,1022.3333333333,694.66666666667,1022.3333333333,694.66666666667,1280,691.33333333333,1280,691.33333333333,1278.3333333333,619.66666666667,1278.3333333333,619.66666666667"></polygon><polygon data-id="283" data-sec="3" data-build="1" data-floor="4" class="s3d-svg__house js-s3d-svg__house" points="1278,620.33333333333,1278,620.33333333333,1279.6666666667,692,1279.6666666667,692,1333,692,1333,692,1379.3333333333,709,1379.3333333333,709,1379,629.33333333333,1379,629.33333333333,1328.6666666667,620.33333333333,1328.6666666667,620.33333333333"></polygon><polygon data-id="284" data-sec="3" data-build="1" data-floor="4" class="s3d-svg__house js-s3d-svg__house" points="1378.3333333333,630,1378.3333333333,630,1379,710.33333333333,1379,710.33333333333,1544,781.33333333333,1544,781.33333333333,1544,669.33333333333,1544,669.33333333333"></polygon><polygon data-id="164" data-sec="1" data-build="1" data-floor="5" class="s3d-svg__house js-s3d-svg__house" points="368,682.33333333333,368,682.33333333333,371,533.66666666667,371,533.66666666667,516.66666666667,539.66666666667,516.66666666667,539.66666666667,515,651.66666666667,515,651.66666666667"></polygon><polygon data-id="234" data-sec="2" data-build="1" data-floor="5" class="s3d-svg__house js-s3d-svg__house" points="516.33333333333,539.66666666667,516.33333333333,539.66666666667,514.66666666667,651,514.66666666667,651,606,628.66666666667,606,628.66666666667,657.33333333333,630.66666666667,657.33333333333,630.66666666667,659.33333333333,546,659.33333333333,546,609.66666666667,546,609.66666666667,546"></polygon><polygon data-id="237" data-sec="2" data-build="1" data-floor="5" class="s3d-svg__house js-s3d-svg__house" points="659,546.33333333333,659,546.33333333333,657.33333333333,630.66666666667,657.33333333333,630.66666666667,674,631,674,631,683.66666666667,622,683.66666666667,622,854.33333333333,620,854.33333333333,620,852.66666666667,545.66666666667,852.66666666667,545.66666666667,681.33333333333,547.33333333333,681.33333333333,547.33333333333"></polygon><polygon data-id="238" data-sec="2" data-build="1" data-floor="5" class="s3d-svg__house js-s3d-svg__house" points="853,546,853,546,854.33333333333,620,854.33333333333,620,1023.3333333333,620.33333333333,1023.3333333333,620.33333333333,1022.3333333333,547.33333333333,1022.3333333333,547.33333333333"></polygon><polygon data-id="239" data-sec="2" data-build="1" data-floor="5" class="s3d-svg__house js-s3d-svg__house" points="1021.6666666667,547,1021.6666666667,547,1022.3333333333,622,1022.3333333333,622,1278,620,1278,620,1277,547,1277,547"></polygon><polygon data-id="289" data-sec="3" data-build="1" data-floor="5" class="s3d-svg__house js-s3d-svg__house" points="1277.3333333333,546.66666666667,1277.3333333333,546.66666666667,1278,620,1278,620,1328.6666666667,620,1328.6666666667,620,1379.6666666667,629.66666666667,1379.6666666667,629.66666666667,1379.3333333333,547.33333333333,1379.3333333333,547.33333333333,1328.3333333333,548.33333333333,1328.3333333333,548.33333333333"></polygon><polygon data-id="290" data-sec="3" data-build="1" data-floor="5" class="s3d-svg__house js-s3d-svg__house" points="1542.6666666667,548.66666666667,1542.6666666667,548.66666666667,1544.6666666667,669.33333333333,1544.6666666667,669.33333333333,1378.6666666667,630.33333333333,1378.6666666667,630.33333333333,1379,547.33333333333,1379,547.33333333333"></polygon><polygon data-id="291" data-sec="3" data-build="1" data-floor="5" class="s3d-svg__house js-s3d-svg__house" points="1812.6666666667,706.33333333333,1812.6666666667,706.33333333333,1765.6666666667,708.33333333333,1765.6666666667,708.33333333333,1544.3333333333,669.33333333333,1544.3333333333,669.33333333333,1543.6666666667,548.33333333333,1543.6666666667,548.33333333333,1760.6666666667,544.33333333333,1760.6666666667,544.33333333333,1808.3333333333,549.33333333333,1808.3333333333,549.33333333333"></polygon><polygon data-id="285" data-sec="3" data-build="1" data-floor="4" class="s3d-svg__house js-s3d-svg__house" points="1544,669.33333333333,1544,669.33333333333,1543.6666666667,781.33333333333,1543.6666666667,781.33333333333,1769.6666666667,863,1769.6666666667,863,1815.3333333333,861,1815.3333333333,861,1811.6666666667,706,1811.6666666667,706,1765.6666666667,708.66666666667,1765.6666666667,708.66666666667"></polygon><polygon data-id="279" data-sec="3" data-build="1" data-floor="3" class="s3d-svg__house js-s3d-svg__house" points="1543.3333333333,781.66666666667,1543.3333333333,781.66666666667,1542.6666666667,898.66666666667,1542.6666666667,898.66666666667,1773.3333333333,1026,1773.3333333333,1026,1822.6666666667,1023.3333333333,1822.6666666667,1023.3333333333,1816,861.33333333333,1816,861.33333333333,1768.3333333333,863,1768.3333333333,863"></polygon><polygon data-id="169" data-sec="1" data-build="1" data-floor="6" class="s3d-svg__house js-s3d-svg__house" points="375,411.33333333333,375,411.33333333333,370.66666666667,533.66666666667,370.66666666667,533.66666666667,516.66666666667,539,516.66666666667,539,518,447.66666666667,518,447.66666666667"></polygon><polygon data-id="241" data-sec="2" data-build="1" data-floor="6" class="s3d-svg__house js-s3d-svg__house" points="518,448.33333333333,518,448.33333333333,516.33333333333,539.66666666667,516.33333333333,539.66666666667,609.66666666667,546.33333333333,609.66666666667,546.33333333333,659,546,659,546,660,469.33333333333,660,469.33333333333,613,470.66666666667,613,470.66666666667"></polygon><polygon data-id="244" data-sec="2" data-build="1" data-floor="6" class="s3d-svg__house js-s3d-svg__house" points="660,469.33333333333,660,469.33333333333,659,546.33333333333,659,546.33333333333,853.33333333333,545.33333333333,853.33333333333,545.33333333333,853.33333333333,469.33333333333,853.33333333333,469.33333333333"></polygon><polygon data-id="245" data-sec="2" data-build="1" data-floor="6" class="s3d-svg__house js-s3d-svg__house" points="853.33333333333,469.66666666667,853.33333333333,469.66666666667,853,546,853,546,1022,546.33333333333,1022,546.33333333333,1022.6666666667,470.66666666667,1022.6666666667,470.66666666667"></polygon><polygon data-id="246" data-sec="2" data-build="1" data-floor="6" class="s3d-svg__house js-s3d-svg__house" points="1022.3333333333,471,1022.3333333333,471,1022.3333333333,547,1022.3333333333,547,1277.3333333333,546.66666666667,1277.3333333333,546.66666666667,1276.3333333333,474,1276.3333333333,474"></polygon><polygon data-id="295" data-sec="3" data-build="1" data-floor="6" class="s3d-svg__house js-s3d-svg__house" points="1276.3333333333,474,1276.3333333333,474,1276.6666666667,547.33333333333,1276.6666666667,547.33333333333,1327.6666666667,549,1327.6666666667,549,1379,547.33333333333,1379,547.33333333333,1379.6666666667,464.66666666667,1379.6666666667,464.66666666667,1324.3333333333,475.33333333333,1324.3333333333,475.33333333333"></polygon><polygon data-id="296" data-sec="3" data-build="1" data-floor="6" class="s3d-svg__house js-s3d-svg__house" points="1379.3333333333,464.33333333333,1379.3333333333,464.33333333333,1379.3333333333,547.66666666667,1379.3333333333,547.66666666667,1543.3333333333,548,1543.3333333333,548,1541.6666666667,424.33333333333,1541.6666666667,424.33333333333"></polygon><polygon data-id="297" data-sec="3" data-build="1" data-floor="6" class="s3d-svg__house js-s3d-svg__house" points="1541.6666666667,424,1541.6666666667,424,1543.3333333333,549,1543.3333333333,549,1761,544.66666666667,1761,544.66666666667,1808.3333333333,550,1808.3333333333,550,1804,375.33333333333,1804,375.33333333333,1755.6666666667,370,1755.6666666667,370"></polygon><polygon data-id="174" data-sec="1" data-build="1" data-floor="7" class="s3d-svg__house js-s3d-svg__house" points="376,282,376,282,371.33333333333,410,371.33333333333,410,517.66666666667,448.33333333333,517.66666666667,448.33333333333,520.66666666667,354,520.66666666667,354"></polygon><polygon data-id="248" data-sec="2" data-build="1" data-floor="7" class="s3d-svg__house js-s3d-svg__house" points="520.66666666667,354.33333333333,520.66666666667,354.33333333333,518,448.33333333333,518,448.33333333333,613.33333333333,470.66666666667,613.33333333333,470.66666666667,659.66666666667,469.33333333333,659.66666666667,469.33333333333,660.33333333333,395.33333333333,660.33333333333,395.33333333333,608.33333333333,395.66666666667,608.33333333333,395.66666666667"></polygon><polygon data-id="251" data-sec="2" data-build="1" data-floor="7" class="s3d-svg__house js-s3d-svg__house" points="660.66666666667,395.66666666667,660.66666666667,395.66666666667,659.66666666667,471,659.66666666667,471,853.66666666667,470.66666666667,853.66666666667,470.66666666667,853.66666666667,395,853.66666666667,395"></polygon><polygon data-id="252" data-sec="2" data-build="1" data-floor="7" class="s3d-svg__house js-s3d-svg__house" points="853.66666666667,395.33333333333,853.66666666667,395.33333333333,853.66666666667,471.33333333333,853.66666666667,471.33333333333,1022,471,1022,471,1022,396.33333333333,1022,396.33333333333"></polygon><polygon data-id="253" data-sec="2" data-build="1" data-floor="7" class="s3d-svg__house js-s3d-svg__house" points="1021.6666666667,397,1021.6666666667,397,1021.6666666667,472,1021.6666666667,472,1276.6666666667,474,1276.6666666667,474,1276,399.33333333333,1276,399.33333333333"></polygon><polygon data-id="301" data-sec="3" data-build="1" data-floor="7" class="s3d-svg__house js-s3d-svg__house" points="1276,399.66666666667,1276,399.66666666667,1276,474.66666666667,1276,474.66666666667,1324,475.66666666667,1324,475.66666666667,1379.6666666667,464.66666666667,1379.6666666667,464.66666666667,1377.6666666667,384.33333333333,1377.6666666667,384.33333333333,1330,401,1330,401"></polygon><polygon data-id="302" data-sec="3" data-build="1" data-floor="7" class="s3d-svg__house js-s3d-svg__house" points="1378,384.66666666667,1378,384.66666666667,1379.3333333333,465,1379.3333333333,465,1541.6666666667,425,1541.6666666667,425,1539.3333333333,321,1539.3333333333,321"></polygon><polygon data-id="303" data-sec="3" data-build="1" data-floor="7" class="s3d-svg__house js-s3d-svg__house" points="1539.3333333333,321,1539.3333333333,321,1541,425.66666666667,1541,425.66666666667,1756,370,1756,370,1804,375,1804,375,1798.6666666667,247.33333333333,1798.6666666667,247.33333333333,1752.6666666667,238,1752.6666666667,238"></polygon><polygon data-id="179" data-sec="1" data-build="1" data-floor="8" class="s3d-svg__house js-s3d-svg__house" points="380.33333333333,160,380.33333333333,160,375.66666666667,281.33333333333,375.66666666667,281.33333333333,520.66666666667,354.66666666667,520.66666666667,354.66666666667,522,259.33333333333,522,259.33333333333"></polygon><polygon data-id="255" data-sec="2" data-build="1" data-floor="8" class="s3d-svg__house js-s3d-svg__house" points="521.66666666667,260,521.66666666667,260,520.66666666667,354,520.66666666667,354,608,395,608,395,660.33333333333,396,660.33333333333,396,661,321,661,321,610.33333333333,320.66666666667,610.33333333333,320.66666666667"></polygon><polygon data-id="258" data-sec="2" data-build="1" data-floor="8" class="s3d-svg__house js-s3d-svg__house" points="661,320.66666666667,661,320.66666666667,659.66666666667,394.66666666667,659.66666666667,394.66666666667,854.66666666667,395,854.66666666667,395,854.66666666667,320.33333333333,854.66666666667,320.33333333333"></polygon><polygon data-id="259" data-sec="2" data-build="1" data-floor="8" class="s3d-svg__house js-s3d-svg__house" points="854.66666666667,320.33333333333,854.66666666667,320.33333333333,853.66666666667,395.33333333333,853.66666666667,395.33333333333,1022.6666666667,396.66666666667,1022.6666666667,396.66666666667,1022,319.66666666667,1022,319.66666666667"></polygon><polygon data-id="260" data-sec="2" data-build="1" data-floor="8" class="s3d-svg__house js-s3d-svg__house" points="1022.6666666667,320,1022.6666666667,320,1022.3333333333,396.66666666667,1022.3333333333,396.66666666667,1276,399.33333333333,1276,399.33333333333,1274,323.66666666667,1274,323.66666666667"></polygon><polygon data-id="307" data-sec="3" data-build="1" data-floor="8" class="s3d-svg__house js-s3d-svg__house" points="1273.6666666667,323.66666666667,1273.6666666667,323.66666666667,1276,400.33333333333,1276,400.33333333333,1329.6666666667,401.33333333333,1329.6666666667,401.33333333333,1378,384.66666666667,1378,384.66666666667,1377.3333333333,299.66666666667,1377.3333333333,299.66666666667,1328.6666666667,324.33333333333,1328.6666666667,324.33333333333"></polygon><polygon data-id="308" data-sec="3" data-build="1" data-floor="8" class="s3d-svg__house js-s3d-svg__house" points="1377.3333333333,300,1377.3333333333,300,1378,384.66666666667,1378,384.66666666667,1539,321.33333333333,1539,321.33333333333,1534.6666666667,201.33333333333,1534.6666666667,201.33333333333"></polygon><polygon data-id="309" data-sec="3" data-build="1" data-floor="8" class="s3d-svg__house js-s3d-svg__house" points="1534,200.66666666667,1534,200.66666666667,1538.6666666667,321,1538.6666666667,321,1752.6666666667,238.66666666667,1752.6666666667,238.66666666667,1798.6666666667,247.66666666667,1798.6666666667,247.66666666667,1796.6666666667,66.666666666667,1796.6666666667,66.666666666667,1748.6666666667,65.333333333333,1748.6666666667,65.333333333333"></polygon><polygon data-id="184" data-sec="1" data-build="1" data-floor="9" class="s3d-svg__house js-s3d-svg__house" points="381,36.333333333333,381,36.333333333333,380.33333333333,159.66666666667,380.33333333333,159.66666666667,521.66666666667,260,521.66666666667,260,524,164.66666666667,524,164.66666666667"></polygon><polygon data-id="262" data-sec="2" data-build="1" data-floor="9" class="s3d-svg__house js-s3d-svg__house" points="524,165.66666666667,524,165.66666666667,521.66666666667,260,521.66666666667,260,609.66666666667,320.33333333333,609.66666666667,320.33333333333,660.66666666667,321.33333333333,660.66666666667,321.33333333333,660.66666666667,247,660.66666666667,247,609.66666666667,245,609.66666666667,245"></polygon><polygon data-id="265" data-sec="2" data-build="1" data-floor="9" class="s3d-svg__house js-s3d-svg__house" points="661,246.66666666667,661,246.66666666667,660.66666666667,321.66666666667,660.66666666667,321.66666666667,855.33333333333,320.66666666667,855.33333333333,320.66666666667,854.66666666667,247.33333333333,854.66666666667,247.33333333333"></polygon><polygon data-id="266" data-sec="2" data-build="1" data-floor="9" class="s3d-svg__house js-s3d-svg__house" points="855.33333333333,247.33333333333,855.33333333333,247.33333333333,855.33333333333,321,855.33333333333,321,1022.3333333333,321,1022.3333333333,321,1022,248.66666666667,1022,248.66666666667"></polygon><polygon data-id="267" data-sec="2" data-build="1" data-floor="9" class="s3d-svg__house js-s3d-svg__house" points="1021.6666666667,248.33333333333,1021.6666666667,248.33333333333,1022.3333333333,320.66666666667,1022.3333333333,320.66666666667,1274,323.66666666667,1274,323.66666666667,1275.6666666667,250,1275.6666666667,250"></polygon><polygon data-id="313" data-sec="3" data-build="1" data-floor="9" class="s3d-svg__house js-s3d-svg__house" points="1275.3333333333,250,1275.3333333333,250,1273.6666666667,324,1273.6666666667,324,1329,324.33333333333,1329,324.33333333333,1377,299,1377,299,1375.3333333333,223.66666666667,1375.3333333333,223.66666666667,1333,249,1333,249"></polygon><polygon data-id="314" data-sec="3" data-build="1" data-floor="9" class="s3d-svg__house js-s3d-svg__house" points="1375.3333333333,223,1375.3333333333,223,1377.3333333333,300,1377.3333333333,300,1534.6666666667,200.33333333333,1534.6666666667,200.33333333333,1528.6666666667,95.333333333333,1528.6666666667,95.333333333333"></polygon><polygon data-id="315" data-sec="3" data-build="1" data-floor="9" class="s3d-svg__house js-s3d-svg__house" points="1528.6666666667,95.666666666667,1528.6666666667,95.666666666667,1534,200.33333333333,1534,200.33333333333,1748.6666666667,66,1748.6666666667,66,1796.6666666667,67.333333333333,1796.6666666667,67.333333333333,1796.3333333333,1,1796.3333333333,1,1647.3333333333,1,1647.3333333333,1"></polygon><polygon data-id="189" data-sec="1" data-build="1" data-floor="10" class="s3d-svg__house js-s3d-svg__house" points="381,37,381,37,525,165.33333333333,525,165.33333333333,528,82.333333333333,528,82.333333333333,450,1.6666666666667,450,1.6666666666667,382,1,382,1"></polygon><polygon data-id="268" data-sec="2" data-build="1" data-floor="10" class="s3d-svg__house js-s3d-svg__house" points="662.33333333333,176.66666666667,662.33333333333,176.66666666667,660.66666666667,246.33333333333,660.66666666667,246.33333333333,855,247.66666666667,855,247.66666666667,854,177,854,177"></polygon><polygon data-id="269" data-sec="2" data-build="1" data-floor="10" class="s3d-svg__house js-s3d-svg__house" points="854.66666666667,176.66666666667,854.66666666667,176.66666666667,854.66666666667,247.66666666667,854.66666666667,247.66666666667,1021.6666666667,249.33333333333,1021.6666666667,249.33333333333,1022,178,1022,178"></polygon><polygon data-id="270" data-sec="2" data-build="1" data-floor="10" class="s3d-svg__house js-s3d-svg__house" points="1022,177.66666666667,1022,177.66666666667,1021.3333333333,248.33333333333,1021.3333333333,248.33333333333,1275,249.33333333333,1275,249.33333333333,1273,177.33333333333,1273,177.33333333333"></polygon><polygon data-id="319" data-sec="3" data-build="1" data-floor="10" class="s3d-svg__house js-s3d-svg__house" points="1273,178,1273,178,1275,250.66666666667,1275,250.66666666667,1332.6666666667,249.66666666667,1332.6666666667,249.66666666667,1375.3333333333,222.66666666667,1375.3333333333,222.66666666667,1372.3333333333,141,1372.3333333333,141,1325.3333333333,178.66666666667,1325.3333333333,178.66666666667"></polygon><polygon data-id="320" data-sec="3" data-build="1" data-floor="10" class="s3d-svg__house js-s3d-svg__house" points="1372.6666666667,140,1372.6666666667,140,1376,224,1376,224,1529.6666666667,95,1529.6666666667,95,1522.6666666667,1,1522.6666666667,1,1510,2,1510,2"></polygon><polygon data-id="330" data-sec="3" data-build="1" data-floor="12" class="s3d-svg__house js-s3d-svg__house" points="1373,140.66666666667,1373,140.66666666667,1369.6666666667,65.333333333333,1369.6666666667,65.333333333333,1435.6666666667,1,1435.6666666667,1,1510.3333333333,2,1510.3333333333,2"></polygon><polygon data-id="521" data-sec="2" data-build="1" data-floor="11" class="s3d-svg__house js-s3d-svg__house" points="854.33333333333,177.66666666667,855,74.666666666667,1021.6666666667,76.333333333333,1022.3333333333,178.33333333333"></polygon></svg>