<svg preserveAspectRatio="xMidYMid slice" id="floor--svg"  viewBox="0 0 1920 1080" version="1.0" xmlns="http://www.w3.org/2000/svg"><polygon data-id="376" data-sec="4" data-build="1" data-floor="3" class="s3d-svg__house js-s3d-svg__house" points="745.33333333333,995.66666666667,811.66666666667,975,809.66666666667,964.66666666667,890.33333333333,935,889.33333333333,899.66666666667,808.33333333333,923.66666666667,810,937.66666666667,742.66666666667,955"></polygon><polygon data-id="375" data-sec="4" data-build="1" data-floor="3" class="s3d-svg__house js-s3d-svg__house" points="889,900.66666666667,889.66666666667,936.66666666667,983.66666666667,906.66666666667,984.33333333333,873.33333333333,968,877,971.66666666667,885,972,889.33333333333,941,897.66666666667,933.33333333333,886"></polygon><polygon data-id="374" data-sec="4" data-build="1" data-floor="3" class="s3d-svg__house js-s3d-svg__house" points="984.66666666667,873.33333333333,983.66666666667,907.33333333333,1073,883.33333333333,1076,855,1023,871.33333333333,1014.3333333333,862.66666666667"></polygon><polygon data-id="282" data-sec="3" data-build="1" data-floor="3" class="s3d-svg__house js-s3d-svg__house" points="1075.3333333333,856,1073.6666666667,883.66666666667,1100.3333333333,874.33333333333,1100.3333333333,844.66666666667,1113.6666666667,840,1114,803,1102,804.66666666667,1100,830.33333333333,1068.6666666667,837,1069.3333333333,843.33333333333,1078,851.66666666667"></polygon><polygon data-id="280" data-sec="3" data-build="1" data-floor="3" class="s3d-svg__house js-s3d-svg__house" points="1295,755.33333333333,1291.6666666667,787.66666666667,1209.3333333333,811.33333333333,1211.6666666667,776.66666666667"></polygon><polygon data-id="281" data-sec="3" data-build="1" data-floor="3" class="s3d-svg__house js-s3d-svg__house" points="1211.3333333333,776.66666666667,1209,811.66666666667,1113.6666666667,839,1114.3333333333,803"></polygon><polygon data-id="382" data-sec="4" data-build="1" data-floor="4" class="s3d-svg__house js-s3d-svg__house" points="739,914.66666666667,741.66666666667,955.33333333333,809.33333333333,937.66666666667,810,937,807.33333333333,924,889,900.33333333333,888,862.33333333333,806.66666666667,886.66666666667,808.33333333333,895,809,899.66666666667,760.33333333333,914.33333333333,758,910.66666666667"></polygon><polygon data-id="381" data-sec="4" data-build="1" data-floor="4" class="s3d-svg__house js-s3d-svg__house" points="887.66666666667,862.33333333333,888.33333333333,901.66666666667,932.66666666667,886.33333333333,934.33333333333,885.66666666667,941,898.33333333333,972,889.33333333333,971.33333333333,885.66666666667,967.33333333333,877,984.66666666667,873.33333333333,984.33333333333,837.66666666667,968,841.33333333333,972.33333333333,848.33333333333,971.33333333333,853.33333333333,942,860.66666666667,933.33333333333,850.33333333333"></polygon><polygon data-id="380" data-sec="4" data-build="1" data-floor="4" class="s3d-svg__house js-s3d-svg__house" points="983.66666666667,837.66666666667,984.33333333333,874,1014.3333333333,862.66666666667,1023.3333333333,871.33333333333,1075,855.66666666667,1079,852.33333333333,1070,843.66666666667,1071,809.33333333333,1044,815.33333333333,1051,825,1051.3333333333,829.33333333333,1023,836.33333333333,1016.3333333333,829"></polygon><polygon data-id="288" data-sec="3" data-build="1" data-floor="4" class="s3d-svg__house js-s3d-svg__house" points="1071,809,1070,835.66666666667,1099,830.66666666667,1102,804.66666666667,1114,802.33333333333,1114.3333333333,779.33333333333,1103.6666666667,781.66666666667,1102.3333333333,797.33333333333"></polygon><polygon data-id="287" data-sec="3" data-build="1" data-floor="4" class="s3d-svg__house js-s3d-svg__house" points="1114,779.33333333333,1113.3333333333,803.33333333333,1211.6666666667,777,1213.6666666667,752.33333333333"></polygon><polygon data-id="286" data-sec="3" data-build="1" data-floor="4" class="s3d-svg__house js-s3d-svg__house" points="1213,752.66666666667,1211.3333333333,777,1295,756,1297.6666666667,729.66666666667"></polygon><polygon data-id="388" data-sec="4" data-build="1" data-floor="5" class="s3d-svg__house js-s3d-svg__house" points="736.66666666667,877.66666666667,738.66666666667,916,757.66666666667,911.66666666667,760.66666666667,915,809,899.66666666667,806.66666666667,887,887.66666666667,863.33333333333,887,823.66666666667,807,846.33333333333,803.33333333333,848.66666666667,807.66666666667,859,757,874.33333333333"></polygon><polygon data-id="387" data-sec="4" data-build="1" data-floor="5" class="s3d-svg__house js-s3d-svg__house" points="886.33333333333,823.66666666667,887.66666666667,863.66666666667,932.66666666667,849.33333333333,941.66666666667,862,970.66666666667,854.33333333333,971.66666666667,848.66666666667,967.66666666667,841.66666666667,984.33333333333,837.66666666667,983.33333333333,800.66666666667,969.66666666667,805,972.33333333333,810.66666666667,972.33333333333,816.66666666667,940,820.66666666667,933.33333333333,811.33333333333"></polygon><polygon data-id="386" data-sec="4" data-build="1" data-floor="5" class="s3d-svg__house js-s3d-svg__house" points="983,801,984.33333333333,838,1016.3333333333,829,1023,837,1051,830.33333333333,1051,825.33333333333,1043.3333333333,814.66666666667,1071,810.33333333333,1071.6666666667,771,1045.3333333333,780,1052,788.66666666667,1052.6666666667,794,1024,800.33333333333,1015.6666666667,792"></polygon><polygon data-id="294" data-sec="3" data-build="1" data-floor="5" class="s3d-svg__house js-s3d-svg__house" points="1070.6666666667,771,1070.3333333333,810,1101.6666666667,797.33333333333,1103,782,1115,779,1116.3333333333,742.66666666667,1104,745.33333333333,1104.3333333333,763"></polygon><polygon data-id="293" data-sec="3" data-build="1" data-floor="5" class="s3d-svg__house js-s3d-svg__house" points="1116,742.66666666667,1114.6666666667,780,1213.3333333333,753.33333333333,1215.3333333333,716.33333333333"></polygon><polygon data-id="292" data-sec="3" data-build="1" data-floor="5" class="s3d-svg__house js-s3d-svg__house" points="1215,716,1213,754,1298.3333333333,729.66666666667,1302.3333333333,693.66666666667"></polygon><polygon data-id="394" data-sec="4" data-build="1" data-floor="6" class="s3d-svg__house js-s3d-svg__house" points="732.66666666667,833,735.33333333333,878.66666666667,756.33333333333,874.33333333333,807.33333333333,859,803.33333333333,848.66666666667,806.33333333333,847,888,823.33333333333,886.66666666667,784,802.33333333333,809,803.33333333333,814.33333333333,804.66666666667,820.66666666667,754.33333333333,832.66666666667,752.66666666667,829,732.66666666667,832"></polygon><polygon data-id="393" data-sec="4" data-build="1" data-floor="6" class="s3d-svg__house js-s3d-svg__house" points="886.66666666667,784.33333333333,887.33333333333,824.33333333333,932.66666666667,810.66666666667,939.66666666667,821.33333333333,972,817,971.66666666667,812,969.33333333333,806,983.66666666667,800.33333333333,982.66666666667,763.33333333333,968.33333333333,767.66666666667,972.66666666667,772,974,777.33333333333,940,784,928.66666666667,772"></polygon><polygon data-id="392" data-sec="4" data-build="1" data-floor="6" class="s3d-svg__house js-s3d-svg__house" points="982.33333333333,763.33333333333,982.66666666667,800.66666666667,1016,792,1023.6666666667,801.66666666667,1052.6666666667,794,1052,789.33333333333,1045,780.66666666667,1044.3333333333,779.33333333333,1073,770.33333333333,1073.6666666667,734.33333333333,1048.6666666667,744,1053.3333333333,750.33333333333,1053.6666666667,755,1025,762,1016.6666666667,754.66666666667"></polygon><polygon data-id="300" data-sec="3" data-build="1" data-floor="6" class="s3d-svg__house js-s3d-svg__house" points="1073.3333333333,735,1073,770,1104.6666666667,763.33333333333,1104,745.66666666667,1116.3333333333,743,1118.6666666667,711.66666666667,1107.3333333333,714.66666666667,1105.6666666667,728.66666666667"></polygon><polygon data-id="299" data-sec="3" data-build="1" data-floor="6" class="s3d-svg__house js-s3d-svg__house" points="1119,711.33333333333,1115.6666666667,742.66666666667,1215.3333333333,716,1217,687"></polygon><polygon data-id="298" data-sec="3" data-build="1" data-floor="6" class="s3d-svg__house js-s3d-svg__house" points="1217,687.66666666667,1215,716.66666666667,1303,694,1304.6666666667,665.66666666667"></polygon><polygon data-id="400" data-sec="4" data-build="1" data-floor="7" class="s3d-svg__house js-s3d-svg__house" points="729.66666666667,788.66666666667,733,832.66666666667,752.33333333333,829,754,834.33333333333,804.33333333333,822,801.66666666667,809.33333333333,887,783,886.33333333333,745.33333333333,800.66666666667,766,803.33333333333,777.66666666667,751.33333333333,790,749,785.33333333333"></polygon><polygon data-id="399" data-sec="4" data-build="1" data-floor="7" class="s3d-svg__house js-s3d-svg__house" points="885.66666666667,744.66666666667,886.66666666667,784.33333333333,929.33333333333,772,940,784.33333333333,973.33333333333,778.33333333333,972.66666666667,772.33333333333,966.66666666667,768,986,762.33333333333,984.33333333333,723,967.66666666667,726,973,732.33333333333,972.33333333333,737.66666666667,939.66666666667,743.66666666667,933,733"></polygon><polygon data-id="398" data-sec="4" data-build="1" data-floor="7" class="s3d-svg__house js-s3d-svg__house" points="984.33333333333,723.33333333333,985.66666666667,761.66666666667,1015.6666666667,754.66666666667,1025,762.33333333333,1054,755.33333333333,1053,751.33333333333,1048.6666666667,744.66666666667,1047.3333333333,742.33333333333,1074.3333333333,734.33333333333,1075,697,1047.3333333333,704,1055.6666666667,712.33333333333,1056,716.66666666667,1046,720.66666666667,1025.3333333333,723.66666666667,1018,715.33333333333"></polygon><polygon data-id="306" data-sec="3" data-build="1" data-floor="7" class="s3d-svg__house js-s3d-svg__house" points="1075.6666666667,697.33333333333,1073.6666666667,735.66666666667,1105.6666666667,728.66666666667,1106.3333333333,713.66666666667,1119,712,1119,673.66666666667,1108,675.33333333333,1107.6666666667,687.33333333333"></polygon><polygon data-id="305" data-sec="3" data-build="1" data-floor="7" class="s3d-svg__house js-s3d-svg__house" points="1118.6666666667,673.66666666667,1118.3333333333,712,1216.6666666667,687.66666666667,1219,649.33333333333"></polygon><polygon data-id="304" data-sec="3" data-build="1" data-floor="7" class="s3d-svg__house js-s3d-svg__house" points="1219,649,1217,688,1305,665.66666666667,1310,628.33333333333"></polygon><polygon data-id="406" data-sec="4" data-build="1" data-floor="8" class="s3d-svg__house js-s3d-svg__house" points="726.33333333333,741,729.33333333333,789.33333333333,749,785,750,790.66666666667,803.66666666667,778.66666666667,799,764.66666666667,886,745.66666666667,885,703,798,724.66666666667,799.66666666667,727.66666666667,800,734.33333333333,749.33333333333,743.66666666667,745,738.33333333333"></polygon><polygon data-id="405" data-sec="4" data-build="1" data-floor="8" class="s3d-svg__house js-s3d-svg__house" points="884.66666666667,703.66666666667,886.33333333333,745,932,734,939.66666666667,744.33333333333,972,738.33333333333,972.33333333333,731.33333333333,966.33333333333,725.33333333333,984.33333333333,723,985.33333333333,683,967.66666666667,687,972.66666666667,690.66666666667,973,697,940,702.66666666667,931.33333333333,692.66666666667"></polygon><polygon data-id="404" data-sec="4" data-build="1" data-floor="8" class="s3d-svg__house js-s3d-svg__house" points="985.66666666667,683.66666666667,984,724,1017.6666666667,715.33333333333,1024.6666666667,723.33333333333,1056.3333333333,718.33333333333,1056.3333333333,712.33333333333,1046.6666666667,703.66666666667,1076,696.66666666667,1077.3333333333,661.66666666667,1049,667.33333333333,1055.3333333333,672.66666666667,1056.3333333333,679.33333333333,1025.6666666667,684.33333333333,1018,677"></polygon><polygon data-id="312" data-sec="3" data-build="1" data-floor="8" class="s3d-svg__house js-s3d-svg__house" points="1077,661,1075.6666666667,698,1107.3333333333,688.33333333333,1108,675.66666666667,1119.6666666667,673.33333333333,1120.6666666667,640.33333333333,1110,643.66666666667,1110,654.33333333333"></polygon><polygon data-id="311" data-sec="3" data-build="1" data-floor="8" class="s3d-svg__house js-s3d-svg__house" points="1120.3333333333,641,1118.6666666667,673.66666666667,1219,650,1220.6666666667,619.66666666667"></polygon><polygon data-id="310" data-sec="3" data-build="1" data-floor="8" class="s3d-svg__house js-s3d-svg__house" points="1220.6666666667,619.66666666667,1218.6666666667,650,1310.3333333333,628,1312.6666666667,600.66666666667"></polygon><polygon data-id="412" data-sec="4" data-build="1" data-floor="9" class="s3d-svg__house js-s3d-svg__house" points="722.33333333333,697.33333333333,726.33333333333,741.33333333333,744.33333333333,738.66666666667,749.33333333333,744.66666666667,799.66666666667,735.33333333333,799.66666666667,729.33333333333,796.66666666667,725.66666666667,885,702.33333333333,884.33333333333,663,795.33333333333,678,798,683.33333333333,798.33333333333,689.66666666667,744.66666666667,699.33333333333,742,695"></polygon><polygon data-id="411" data-sec="4" data-build="1" data-floor="9" class="s3d-svg__house js-s3d-svg__house" points="884,663,884.33333333333,704,930.66666666667,692.66666666667,940,703.33333333333,973,697.66666666667,973,691,967,687.33333333333,987.33333333333,684,985.66666666667,642.33333333333,970.66666666667,646.66666666667,972.66666666667,649.66666666667,973,655,938.66666666667,660.33333333333,932,654"></polygon><polygon data-id="410" data-sec="4" data-build="1" data-floor="9" class="s3d-svg__house js-s3d-svg__house" points="985.33333333333,642.33333333333,987,684,1018,676.66666666667,1025.6666666667,685.33333333333,1056.6666666667,680.33333333333,1055,672.66666666667,1047.3333333333,668,1076.6666666667,662.33333333333,1078.6666666667,621,1047.6666666667,625.33333333333,1057.6666666667,632.33333333333,1057.6666666667,639,1027.3333333333,644.33333333333,1019,636.33333333333"></polygon><polygon data-id="318" data-sec="3" data-build="1" data-floor="9" class="s3d-svg__house js-s3d-svg__house" points="1078,621,1077.3333333333,661,1109.3333333333,654.66666666667,1109,644.33333333333,1122,640.33333333333,1123.3333333333,599.66666666667,1112,601.33333333333,1111.3333333333,615.66666666667"></polygon><polygon data-id="317" data-sec="3" data-build="1" data-floor="9" class="s3d-svg__house js-s3d-svg__house" points="1123,599.66666666667,1122.3333333333,640.66666666667,1220.3333333333,620,1223,580.66666666667"></polygon><polygon data-id="316" data-sec="3" data-build="1" data-floor="9" class="s3d-svg__house js-s3d-svg__house" points="1222.6666666667,581,1220.3333333333,620,1313,601.66666666667,1317,563.33333333333"></polygon><polygon data-id="418" data-sec="4" data-build="1" data-floor="10" class="s3d-svg__house js-s3d-svg__house" points="719.33333333333,650.33333333333,722,697,741.66666666667,694.66666666667,744.33333333333,700.66666666667,798,691,798.33333333333,683.33333333333,795,677.66666666667,884,663.66666666667,883,619.66666666667,794,634,795,642,794.33333333333,646.33333333333,741,651.33333333333,738.66666666667,647.33333333333"></polygon><polygon data-id="417" data-sec="4" data-build="1" data-floor="10" class="s3d-svg__house js-s3d-svg__house" points="883.33333333333,619.33333333333,884.33333333333,664.33333333333,932.33333333333,653.66666666667,938.66666666667,661,973.33333333333,656,972.66666666667,650.33333333333,969.66666666667,646.33333333333,986,641.66666666667,987.33333333333,600.33333333333,969.66666666667,601.66666666667,973,607.33333333333,973.66666666667,611.66666666667,939.33333333333,617.33333333333,930.66666666667,611"></polygon><polygon data-id="416" data-sec="4" data-build="1" data-floor="10" class="s3d-svg__house js-s3d-svg__house" points="986.33333333333,599,985.66666666667,642,1019.3333333333,636,1027.3333333333,644,1057.6666666667,639.33333333333,1058.6666666667,632.66666666667,1047.6666666667,625.33333333333,1078.6666666667,620.33333333333,1080.6666666667,578,1048.6666666667,583.66666666667,1059.3333333333,591.33333333333,1059.3333333333,597,1028,601.33333333333,1021,594"></polygon><polygon data-id="324" data-sec="3" data-build="1" data-floor="10" class="s3d-svg__house js-s3d-svg__house" points="1080,577.66666666667,1078.3333333333,621.33333333333,1111,615.66666666667,1112,601.66666666667,1123.3333333333,600.66666666667,1125,565.66666666667,1113.3333333333,568.33333333333,1112.3333333333,573.66666666667"></polygon><polygon data-id="323" data-sec="3" data-build="1" data-floor="10" class="s3d-svg__house js-s3d-svg__house" points="1124.6666666667,566.33333333333,1123.3333333333,600.66666666667,1223,580.66666666667,1225,548.66666666667"></polygon><polygon data-id="322" data-sec="3" data-build="1" data-floor="10" class="s3d-svg__house js-s3d-svg__house" points="1225,548.33333333333,1223,581.33333333333,1317,563.66666666667,1320.3333333333,532.33333333333"></polygon><polygon data-id="424" data-sec="4" data-build="1" data-floor="11" class="s3d-svg__house js-s3d-svg__house" points="715,603,718.66666666667,650.33333333333,739,646.33333333333,741.66666666667,652,794.33333333333,647.33333333333,794.66666666667,641.66666666667,793,633,883.33333333333,620,881.66666666667,573,790.33333333333,583.66666666667,791.66666666667,590,792.33333333333,596.33333333333,737.66666666667,603,735,600"></polygon><polygon data-id="423" data-sec="4" data-build="1" data-floor="11" class="s3d-svg__house js-s3d-svg__house" points="881.33333333333,573.33333333333,883,620.33333333333,930,611.66666666667,939,618,973.66666666667,612,973.33333333333,607.66666666667,968.66666666667,602.33333333333,987.33333333333,600.33333333333,986.33333333333,555.66666666667,969,558,972.33333333333,562.33333333333,972.66666666667,568.33333333333,938,572.66666666667,930,567.66666666667"></polygon><polygon data-id="422" data-sec="4" data-build="1" data-floor="11" class="s3d-svg__house js-s3d-svg__house" points="986.33333333333,556,987,599.33333333333,1020.3333333333,593.33333333333,1027,601,1059,596.66666666667,1059,590.33333333333,1047.3333333333,584.33333333333,1080,578,1081,539.33333333333,1052,545,1061,549.33333333333,1061.3333333333,554.33333333333,1030,559.66666666667,1020.3333333333,550.66666666667"></polygon><polygon data-id="329" data-sec="3" data-build="1" data-floor="11" class="s3d-svg__house js-s3d-svg__house" points="1081,538.66666666667,1079.6666666667,578.33333333333,1111.3333333333,574.33333333333,1113.3333333333,567.33333333333,1124.6666666667,566,1127,525.33333333333,1114.6666666667,526,1114.3333333333,534.66666666667"></polygon><polygon data-id="328" data-sec="3" data-build="1" data-floor="11" class="s3d-svg__house js-s3d-svg__house" points="1127,525.33333333333,1124,566.33333333333,1224.6666666667,548,1227.3333333333,509.66666666667"></polygon><polygon data-id="327" data-sec="3" data-build="1" data-floor="11" class="s3d-svg__house js-s3d-svg__house" points="1226.6666666667,510,1224.6666666667,548.66666666667,1321,531.66666666667,1325.3333333333,495.66666666667"></polygon><polygon data-id="430" data-sec="4" data-build="1" data-floor="12" class="s3d-svg__house js-s3d-svg__house" points="711.33333333333,552.66666666667,714.33333333333,602.66666666667,734.66666666667,600.33333333333,738,602.33333333333,792,597,790.66666666667,584.66666666667,882,572.66666666667,880.66666666667,525,787,533.66666666667,788.66666666667,539.33333333333,789.33333333333,546.33333333333,733.33333333333,553.33333333333,732,550.33333333333"></polygon><polygon data-id="429" data-sec="4" data-build="1" data-floor="12" class="s3d-svg__house js-s3d-svg__house" points="879.66666666667,525,881.66666666667,573.66666666667,930,568,937.66666666667,573.33333333333,972.66666666667,568,972,562.66666666667,968,559.33333333333,987,557,987,515.33333333333,973,517.66666666667,974,521.66666666667,938.33333333333,526,930,520.66666666667"></polygon><polygon data-id="428" data-sec="4" data-build="1" data-floor="12" class="s3d-svg__house js-s3d-svg__house" points="986.66666666667,515,986,556,1019.6666666667,551,1030,560,1060.6666666667,554.66666666667,1060.6666666667,549.66666666667,1051.6666666667,545.33333333333,1082,539.66666666667,1083.6666666667,498.33333333333,1056,500,1062,505.33333333333,1062,511,1029.6666666667,514,1022.6666666667,511"></polygon><polygon data-id="334" data-sec="3" data-build="1" data-floor="12" class="s3d-svg__house js-s3d-svg__house" points="1083.6666666667,498.33333333333,1081.6666666667,539.66666666667,1114,535,1114,526.66666666667,1126.6666666667,526,1128.3333333333,479,1118.3333333333,479.66666666667,1117.6666666667,496"></polygon><polygon data-id="333" data-sec="3" data-build="1" data-floor="12" class="s3d-svg__house js-s3d-svg__house" points="1128.6666666667,479.33333333333,1126.3333333333,526.33333333333,1227,510.33333333333,1230,469.33333333333"></polygon><polygon data-id="332" data-sec="3" data-build="1" data-floor="12" class="s3d-svg__house js-s3d-svg__house" points="1230,469.66666666667,1227.3333333333,510.33333333333,1325.6666666667,495.33333333333,1329,458"></polygon><polygon data-id="436" data-sec="4" data-build="1" data-floor="13" class="s3d-svg__house js-s3d-svg__house" points="706.33333333333,501.66666666667,710.66666666667,552.66666666667,731.33333333333,549,733.66666666667,553.66666666667,789.33333333333,546.66666666667,789.66666666667,540.66666666667,786.33333333333,534,880.66666666667,525,879,479,785.33333333333,487.33333333333,786.66666666667,496,729.66666666667,501.33333333333,728,498.33333333333"></polygon><polygon data-id="435" data-sec="4" data-build="1" data-floor="13" class="s3d-svg__house js-s3d-svg__house" points="878.33333333333,479.33333333333,880.33333333333,525,929.66666666667,521,938.66666666667,526.66666666667,974.33333333333,521.33333333333,972,517.33333333333,988.33333333333,515.33333333333,989.66666666667,468.66666666667,973.33333333333,471,974.33333333333,476.66666666667,937.33333333333,478.33333333333,929.66666666667,474.66666666667"></polygon><polygon data-id="434" data-sec="4" data-build="1" data-floor="13" class="s3d-svg__house js-s3d-svg__house" points="989,468,987.33333333333,515.33333333333,1022,511,1028.6666666667,515,1062,511.66666666667,1062,504.33333333333,1056,500.33333333333,1083.3333333333,498.66666666667,1084.6666666667,456.33333333333,1061,458.66666666667,1063,465.33333333333,1031,470.33333333333,1023.3333333333,465"></polygon><polygon data-id="339" data-sec="3" data-build="1" data-floor="13" class="s3d-svg__house js-s3d-svg__house" points="1085,456,1084,499.66666666667,1118,496,1117,480.66666666667,1129,479,1131,440.66666666667,1120.3333333333,440.33333333333,1119,454.66666666667"></polygon><polygon data-id="338" data-sec="3" data-build="1" data-floor="13" class="s3d-svg__house js-s3d-svg__house" points="1131,440.66666666667,1129,479.66666666667,1230.3333333333,470.33333333333,1233,431.33333333333"></polygon><polygon data-id="337" data-sec="3" data-build="1" data-floor="13" class="s3d-svg__house js-s3d-svg__house" points="1233.3333333333,431,1229.6666666667,471,1329.6666666667,458,1333,420.66666666667"></polygon><polygon data-id="442" data-sec="4" data-build="1" data-floor="14" class="s3d-svg__house js-s3d-svg__house" points="702,447,706.66666666667,501.33333333333,728,498.33333333333,729.66666666667,501,787.33333333333,495.33333333333,785.66666666667,487.33333333333,879,478.33333333333,878,428,784,439.66666666667,726.66666666667,447.33333333333,723.33333333333,444.66666666667"></polygon><polygon data-id="441" data-sec="4" data-build="1" data-floor="14" class="s3d-svg__house js-s3d-svg__house" points="878.33333333333,428.66666666667,878.33333333333,479.66666666667,930,474.66666666667,937,478.66666666667,973,476.66666666667,972.33333333333,470.66666666667,989.66666666667,468.66666666667,989.33333333333,418.33333333333,973.66666666667,420.33333333333,973.33333333333,428.66666666667,938.33333333333,429.66666666667,929.66666666667,424.33333333333"></polygon><polygon data-id="440" data-sec="4" data-build="1" data-floor="14" class="s3d-svg__house js-s3d-svg__house" points="989,417.66666666667,989.33333333333,468,1023.3333333333,465,1030.3333333333,471,1063,466.33333333333,1060.6666666667,459,1084.3333333333,456.33333333333,1086.6666666667,410.33333333333,1064.6666666667,413.33333333333,1065.6666666667,420,1032.6666666667,422.33333333333,1022.6666666667,416"></polygon><polygon data-id="344" data-sec="3" data-build="1" data-floor="14" class="s3d-svg__house js-s3d-svg__house" points="1086.3333333333,411,1084.6666666667,457.33333333333,1119,456,1119.3333333333,440.66666666667,1130.6666666667,440,1132,406,1120.6666666667,407.33333333333,1121,410.33333333333"></polygon><polygon data-id="343" data-sec="3" data-build="1" data-floor="14" class="s3d-svg__house js-s3d-svg__house" points="1131.6666666667,407,1131,440.33333333333,1232.3333333333,431.66666666667,1234.6666666667,398.33333333333"></polygon><polygon data-id="342" data-sec="3" data-build="1" data-floor="14" class="s3d-svg__house js-s3d-svg__house" points="1234.3333333333,398.66666666667,1232.3333333333,431,1334,421,1336.6666666667,390.66666666667"></polygon><polygon data-id="448" data-sec="4" data-build="1" data-floor="15" class="s3d-svg__house js-s3d-svg__house" points="698,390.33333333333,702,446.66666666667,723.33333333333,444.66666666667,726.33333333333,447.33333333333,878,429,876.66666666667,374.66666666667,780.66666666667,381,781,387,721.66666666667,390,720,388.66666666667"></polygon><polygon data-id="447" data-sec="4" data-build="1" data-floor="15" class="s3d-svg__house js-s3d-svg__house" points="876,375,877.66666666667,428.33333333333,928.66666666667,425,938,429.66666666667,973,428.33333333333,973.66666666667,421.66666666667,988.33333333333,418,986.66666666667,371.33333333333,973.66666666667,374,973.66666666667,376,937,379,928.66666666667,373.66666666667"></polygon><polygon data-id="446" data-sec="4" data-build="1" data-floor="15" class="s3d-svg__house js-s3d-svg__house" points="986.66666666667,372,988.33333333333,418.66666666667,1022,416.66666666667,1032.3333333333,422.66666666667,1065.6666666667,420.33333333333,1064.6666666667,413.33333333333,1086.6666666667,410.66666666667,1089,366.33333333333,1067.3333333333,369,1067,370.66666666667,1034.3333333333,371.66666666667,1026.6666666667,370.66666666667"></polygon><polygon data-id="349" data-sec="3" data-build="1" data-floor="15" class="s3d-svg__house js-s3d-svg__house" points="1088.6666666667,367,1086.3333333333,411.33333333333,1121,409.66666666667,1120.6666666667,406.66666666667,1132,406.66666666667,1134.3333333333,361,1124,361.33333333333,1123.6666666667,366"></polygon><polygon data-id="348" data-sec="3" data-build="1" data-floor="15" class="s3d-svg__house js-s3d-svg__house" points="1134.3333333333,361,1131.3333333333,406,1234.3333333333,399,1237.6666666667,354"></polygon><polygon data-id="347" data-sec="3" data-build="1" data-floor="15" class="s3d-svg__house js-s3d-svg__house" points="1238,354.33333333333,1234.6666666667,399,1336.6666666667,391,1341.3333333333,349"></polygon><polygon data-id="454" data-sec="4" data-build="1" data-floor="16" class="s3d-svg__house js-s3d-svg__house" points="693.33333333333,332,698,391.33333333333,719.33333333333,388.33333333333,721.66666666667,390.66666666667,781,388.66666666667,779.66666666667,381,877.33333333333,375.66666666667,876.33333333333,323,775.66666666667,326.33333333333,775.66666666667,330.66666666667,718.66666666667,333.33333333333,716.33333333333,330.33333333333"></polygon><polygon data-id="453" data-sec="4" data-build="1" data-floor="16" class="s3d-svg__house js-s3d-svg__house" points="875.66666666667,322,877,374.66666666667,929,374.33333333333,937.33333333333,379.66666666667,973.66666666667,376.33333333333,972.66666666667,374,987,370.66666666667,986,319"></polygon><polygon data-id="452" data-sec="4" data-build="1" data-floor="16" class="s3d-svg__house js-s3d-svg__house" points="985.66666666667,318.66666666667,986.66666666667,371.33333333333,1026,371.33333333333,1034,372.33333333333,1067,370.66666666667,1066.3333333333,367.33333333333,1088.6666666667,367.33333333333,1090.3333333333,317.66666666667"></polygon><polygon data-id="354" data-sec="3" data-build="1" data-floor="16" class="s3d-svg__house js-s3d-svg__house" points="1090.3333333333,318,1088,366.33333333333,1123.6666666667,366.66666666667,1124,361.66666666667,1134,361.33333333333,1136.3333333333,315,1126.6666666667,315,1126,318.33333333333"></polygon><polygon data-id="353" data-sec="3" data-build="1" data-floor="16" class="s3d-svg__house js-s3d-svg__house" points="1135.6666666667,316,1134.3333333333,361.66666666667,1238.6666666667,355.66666666667,1240.3333333333,314.33333333333"></polygon><polygon data-id="352" data-sec="3" data-build="1" data-floor="16" class="s3d-svg__house js-s3d-svg__house" points="1240.6666666667,314,1238.3333333333,355.33333333333,1342,349.66666666667,1346.3333333333,310.33333333333"></polygon><polygon data-id="359" data-sec="3" data-build="1" data-floor="17" class="s3d-svg__house js-s3d-svg__house" points="1092,267.33333333333,1089.6666666667,319,1126,318,1126.6666666667,314.66666666667,1136.6666666667,315.33333333333,1139.3333333333,266"></polygon><polygon data-id="358" data-sec="3" data-build="1" data-floor="17" class="s3d-svg__house js-s3d-svg__house" points="1139,266.33333333333,1136.6666666667,316.33333333333,1241.6666666667,314.66666666667,1245,266.66666666667"></polygon><polygon data-id="357" data-sec="3" data-build="1" data-floor="17" class="s3d-svg__house js-s3d-svg__house" points="1245,266.33333333333,1241.3333333333,315.66666666667,1346.3333333333,311.66666666667,1351,266.33333333333"></polygon><polygon data-id="364" data-sec="3" data-build="1" data-floor="18" class="s3d-svg__house js-s3d-svg__house" points="1064.3333333333,223,1143.6666666667,225,1141,267,1128.6666666667,266,1128.6666666667,243,1064.6666666667,240.66666666667"></polygon><polygon data-id="363" data-sec="3" data-build="1" data-floor="18" class="s3d-svg__house js-s3d-svg__house" points="1143.6666666667,225,1140.6666666667,266.33333333333,1248.3333333333,266.66666666667,1251.3333333333,229"></polygon><polygon data-id="362" data-sec="3" data-build="1" data-floor="18" class="s3d-svg__house js-s3d-svg__house" points="1251.3333333333,229,1248.6666666667,267.66666666667,1351,266,1354.3333333333,230"></polygon><polygon data-id="367" data-sec="3" data-build="1" data-floor="19" class="s3d-svg__house js-s3d-svg__house" points="1146.6666666667,172.66666666667,1144,226,1251.3333333333,229.33333333333,1255.3333333333,178.66666666667"></polygon><polygon data-id="366" data-sec="3" data-build="1" data-floor="19" class="s3d-svg__house js-s3d-svg__house" points="1255,178.66666666667,1251.3333333333,228.33333333333,1355,230.33333333333,1360.6666666667,183.66666666667"></polygon></svg>