<svg preserveAspectRatio="xMidYMid slice" id="floor--svg"  viewBox="0 0 1920 1080" version="1.0" xmlns="http://www.w3.org/2000/svg"><polygon data-id="142" data-sec="1" data-build="1" data-floor="1" class="s3d-svg__house js-s3d-svg__house" points="332,924,332,924,284.33333333333,1079.3333333333,284.33333333333,1079.3333333333,663.66666666667,1080.3333333333,663.66666666667,1080.3333333333,682.66666666667,950.66666666667,682.66666666667,950.66666666667"></polygon><polygon data-id="144" data-sec="1" data-build="1" data-floor="1" class="s3d-svg__house js-s3d-svg__house" points="906.5,965,906.5,965,904.5,1080,904.5,1080,1116.5,1078.5,1116.5,1078.5,1109.5,977.5,1109.5,977.5"></polygon><polygon data-id="206" data-sec="2" data-build="1" data-floor="1" class="s3d-svg__house js-s3d-svg__house" points="1109.5,979,1109.5,979,1116,1080,1116,1080,1276.5,1078.5,1276.5,1078.5,1330,1078.5,1330,1078.5,1314.5,985,1314.5,985,1260,990,1260,990"></polygon><polygon data-id="209" data-sec="2" data-build="1" data-floor="1" class="s3d-svg__house js-s3d-svg__house" points="1315.5,986,1315.5,986,1330,1079,1330,1079,1582.5,1080,1582.5,1080,1547,960.5,1547,960.5"></polygon><polygon data-id="210" data-sec="2" data-build="1" data-floor="1" class="s3d-svg__house js-s3d-svg__house" points="1547.5,959.5,1547.5,959.5,1582.5,1080.5,1582.5,1080.5,1864,1079.5,1864,1079.5,1802.5,931.5,1802.5,931.5"></polygon><polygon data-id="211" data-sec="2" data-build="1" data-floor="1" class="s3d-svg__house js-s3d-svg__house" points="1802,931.5,1802,931.5,1919.5,915.5,1919.5,915.5,1919.5,1080.5,1919.5,1080.5,1863.5,1080.5,1863.5,1080.5"></polygon><polygon data-id="147" data-sec="1" data-build="1" data-floor="2" class="s3d-svg__house js-s3d-svg__house" points="370,814.5,370,814.5,332.5,924,332.5,924,682.5,952.5,682.5,952.5,697.5,850.5,697.5,850.5"></polygon><polygon data-id="149" data-sec="1" data-build="1" data-floor="2" class="s3d-svg__house js-s3d-svg__house" points="909.5,878,909.5,878,906,966,906,966,1109,979,1109,979,1104,900.5,1104,900.5"></polygon><polygon data-id="213" data-sec="2" data-build="1" data-floor="2" class="s3d-svg__house js-s3d-svg__house" points="1104,900.5,1104,900.5,1109,979,1109,979,1260,989.5,1260,989.5,1316,986.5,1316,986.5,1303.5,908.5,1303.5,908.5,1249.5,919.5,1249.5,919.5"></polygon><polygon data-id="216" data-sec="2" data-build="1" data-floor="2" class="s3d-svg__house js-s3d-svg__house" points="1303.5,908.5,1303.5,908.5,1315.5,986,1315.5,986,1547.5,961.5,1547.5,961.5,1522.5,870,1522.5,870"></polygon><polygon data-id="217" data-sec="2" data-build="1" data-floor="2" class="s3d-svg__house js-s3d-svg__house" points="1522.5,870.5,1522.5,870.5,1547,961,1547,961,1802,932,1802,932,1753.5,824.5,1753.5,824.5"></polygon><polygon data-id="218" data-sec="2" data-build="1" data-floor="2" class="s3d-svg__house js-s3d-svg__house" points="1754,825.5,1754,825.5,1801.5,931.5,1801.5,931.5,1919,915.5,1919,915.5,1919,790,1919,790,1752,824,1752,824"></polygon><polygon data-id="152" data-sec="1" data-build="1" data-floor="3" class="s3d-svg__house js-s3d-svg__house" points="369,814,369,814,407,697,407,697,710.5,744.5,710.5,744.5,696.5,851,696.5,851"></polygon><polygon data-id="154" data-sec="1" data-build="1" data-floor="3" class="s3d-svg__house js-s3d-svg__house" points="909.5,879.5,909.5,879.5,910.5,787,910.5,787,1099.5,818,1099.5,818,1104,901,1104,901"></polygon><polygon data-id="220" data-sec="2" data-build="1" data-floor="3" class="s3d-svg__house js-s3d-svg__house" points="1099.5,818,1099.5,818,1104.5,901.5,1104.5,901.5,1249.5,920.5,1249.5,920.5,1304,909,1304,909,1288.5,831,1288.5,831,1237.5,843.5,1237.5,843.5"></polygon><polygon data-id="223" data-sec="2" data-build="1" data-floor="3" class="s3d-svg__house js-s3d-svg__house" points="1288.5,832.5,1288.5,832.5,1303.5,908.5,1303.5,908.5,1522,869.5,1522,869.5,1495,778,1495,778"></polygon><polygon data-id="224" data-sec="2" data-build="1" data-floor="3" class="s3d-svg__house js-s3d-svg__house" points="1494.5,778.5,1494.5,778.5,1522.5,871,1522.5,871,1753,824.5,1753,824.5,1707.5,720.5,1707.5,720.5"></polygon><polygon data-id="225" data-sec="2" data-build="1" data-floor="3" class="s3d-svg__house js-s3d-svg__house" points="1707.5,721,1707.5,721,1753.5,825.5,1753.5,825.5,1919,790,1919,790,1919.5,658.5,1919.5,658.5"></polygon><polygon data-id="157" data-sec="1" data-build="1" data-floor="4" class="s3d-svg__house js-s3d-svg__house" points="406.5,697.5,406.5,697.5,438,601,438,601,724,660,724,660,711.5,746.5,711.5,746.5"></polygon><polygon data-id="159" data-sec="1" data-build="1" data-floor="4" class="s3d-svg__house js-s3d-svg__house" points="913,696.5,913,696.5,910.5,788.5,910.5,788.5,1099,818.5,1099,818.5,1091.5,735.5,1091.5,735.5"></polygon><polygon data-id="227" data-sec="2" data-build="1" data-floor="4" class="s3d-svg__house js-s3d-svg__house" points="1091.5,736.5,1091.5,736.5,1099,819.5,1099,819.5,1237.5,844.5,1237.5,844.5,1288,832,1288,832,1272.5,749.5,1272.5,749.5,1222,765,1222,765"></polygon><polygon data-id="230" data-sec="2" data-build="1" data-floor="4" class="s3d-svg__house js-s3d-svg__house" points="1272,750.5,1272,750.5,1288,833,1288,833,1494.5,779,1494.5,779,1467.5,686,1467.5,686"></polygon><polygon data-id="231" data-sec="2" data-build="1" data-floor="4" class="s3d-svg__house js-s3d-svg__house" points="1467.5,686.5,1467.5,686.5,1494.5,780,1494.5,780,1708,722,1708,722,1662,618,1662,618"></polygon><polygon data-id="232" data-sec="2" data-build="1" data-floor="4" class="s3d-svg__house js-s3d-svg__house" points="1662,619,1662,619,1707.5,722,1707.5,722,1919.5,660,1919.5,660,1919,526.5,1919,526.5"></polygon><polygon data-id="162" data-sec="1" data-build="1" data-floor="5" class="s3d-svg__house js-s3d-svg__house" points="438,601.5,438,601.5,465.5,516.5,465.5,516.5,735.5,582,735.5,582,724,661.5,724,661.5"></polygon><polygon data-id="164" data-sec="1" data-build="1" data-floor="5" class="s3d-svg__house js-s3d-svg__house" points="916,623.5,916,623.5,912.5,696.5,912.5,696.5,1092,736,1092,736,1087,667.5,1087,667.5"></polygon><polygon data-id="234" data-sec="2" data-build="1" data-floor="5" class="s3d-svg__house js-s3d-svg__house" points="1087,668,1087,668,1091.5,737,1091.5,737,1221.5,765.5,1221.5,765.5,1272.5,750,1272.5,750,1261,686.5,1261,686.5,1217.5,700.5,1217.5,700.5"></polygon><polygon data-id="237" data-sec="2" data-build="1" data-floor="5" class="s3d-svg__house js-s3d-svg__house" points="1261,687,1261,687,1272,751,1272,751,1467.5,686.5,1467.5,686.5,1446.5,611.5,1446.5,611.5"></polygon><polygon data-id="238" data-sec="2" data-build="1" data-floor="5" class="s3d-svg__house js-s3d-svg__house" points="1447,611,1447,611,1467.5,687.5,1467.5,687.5,1662,618,1662,618,1628,537,1628,537"></polygon><polygon data-id="239" data-sec="2" data-build="1" data-floor="5" class="s3d-svg__house js-s3d-svg__house" points="1627.5,537,1627.5,537,1661.5,618.5,1661.5,618.5,1919,526.5,1919,526.5,1919.5,415.5,1919.5,415.5"></polygon><polygon data-id="167" data-sec="1" data-build="1" data-floor="6" class="s3d-svg__house js-s3d-svg__house" points="492.33333333333,435.66666666667,492.33333333333,435.66666666667,465,517.33333333333,465,517.33333333333,735.33333333333,582.33333333333,735.33333333333,582.33333333333,745.66666666667,509.33333333333,745.66666666667,509.33333333333"></polygon><polygon data-id="169" data-sec="1" data-build="1" data-floor="6" class="s3d-svg__house js-s3d-svg__house" points="918,561.66666666667,918,561.66666666667,915.66666666667,623.66666666667,915.66666666667,623.66666666667,1087,667.66666666667,1087,667.66666666667,1082.6666666667,610,1082.6666666667,610"></polygon><polygon data-id="241" data-sec="2" data-build="1" data-floor="6" class="s3d-svg__house js-s3d-svg__house" points="1082.6666666667,610,1082.6666666667,610,1086.6666666667,668.66666666667,1086.6666666667,668.66666666667,1217.6666666667,700.66666666667,1217.6666666667,700.66666666667,1261.3333333333,687,1261.3333333333,687,1249.6666666667,622.33333333333,1249.6666666667,622.33333333333,1206.3333333333,639.33333333333,1206.3333333333,639.33333333333"></polygon><polygon data-id="244" data-sec="2" data-build="1" data-floor="6" class="s3d-svg__house js-s3d-svg__house" points="1250.3333333333,622.33333333333,1250.3333333333,622.33333333333,1261.3333333333,688,1261.3333333333,688,1446,611,1446,611,1425,542.66666666667,1425,542.66666666667"></polygon><polygon data-id="245" data-sec="2" data-build="1" data-floor="6" class="s3d-svg__house js-s3d-svg__house" points="1424.6666666667,542.33333333333,1424.6666666667,542.33333333333,1447,611.66666666667,1447,611.66666666667,1627.6666666667,537.66666666667,1627.6666666667,537.66666666667,1595,459.66666666667,1595,459.66666666667"></polygon><polygon data-id="246" data-sec="2" data-build="1" data-floor="6" class="s3d-svg__house js-s3d-svg__house" points="1595,460.33333333333,1595,460.33333333333,1627.6666666667,537.33333333333,1627.6666666667,537.33333333333,1919.3333333333,415.66666666667,1919.3333333333,415.66666666667,1918.3333333333,312.66666666667,1918.3333333333,312.66666666667"></polygon><polygon data-id="172" data-sec="1" data-build="1" data-floor="7" class="s3d-svg__house js-s3d-svg__house" points="492,435,492,435,517.66666666667,360.66666666667,517.66666666667,360.66666666667,755.33333333333,440.33333333333,755.33333333333,440.33333333333,746.33333333333,510,746.33333333333,510"></polygon><polygon data-id="174" data-sec="1" data-build="1" data-floor="7" class="s3d-svg__house js-s3d-svg__house" points="919.33333333333,499.33333333333,919.33333333333,499.33333333333,917.33333333333,562.66666666667,917.33333333333,562.66666666667,1082,610.33333333333,1082,610.33333333333,1077.6666666667,551,1077.6666666667,551"></polygon><polygon data-id="248" data-sec="2" data-build="1" data-floor="7" class="s3d-svg__house js-s3d-svg__house" points="1078,551,1078,551,1081.6666666667,610,1081.6666666667,610,1206,639,1206,639,1249.6666666667,623,1249.6666666667,623,1239.6666666667,569.66666666667,1239.6666666667,569.66666666667,1199.6666666667,583.66666666667,1199.6666666667,583.66666666667"></polygon><polygon data-id="251" data-sec="2" data-build="1" data-floor="7" class="s3d-svg__house js-s3d-svg__house" points="1239.3333333333,569.33333333333,1239.3333333333,569.33333333333,1249.3333333333,623,1249.3333333333,623,1424.6666666667,542.66666666667,1424.6666666667,542.66666666667,1404.3333333333,479.33333333333,1404.3333333333,479.33333333333"></polygon><polygon data-id="252" data-sec="2" data-build="1" data-floor="7" class="s3d-svg__house js-s3d-svg__house" points="1404,479.66666666667,1404,479.66666666667,1424,543.33333333333,1424,543.33333333333,1595,460.33333333333,1595,460.33333333333,1564,389.66666666667,1564,389.66666666667"></polygon><polygon data-id="253" data-sec="2" data-build="1" data-floor="7" class="s3d-svg__house js-s3d-svg__house" points="1564,390,1564,390,1594.6666666667,461.33333333333,1594.6666666667,461.33333333333,1919.3333333333,313,1919.3333333333,313,1919.3333333333,200,1919.3333333333,200"></polygon><polygon data-id="177" data-sec="1" data-build="1" data-floor="8" class="s3d-svg__house js-s3d-svg__house" points="537.66666666667,299.66666666667,537.66666666667,299.66666666667,518,361.33333333333,518,361.33333333333,755.66666666667,441,755.66666666667,441,764.33333333333,380.33333333333,764.33333333333,380.33333333333"></polygon><polygon data-id="179" data-sec="1" data-build="1" data-floor="8" class="s3d-svg__house js-s3d-svg__house" points="921.66666666667,436.33333333333,921.66666666667,436.33333333333,919,500.33333333333,919,500.33333333333,1078,551.33333333333,1078,551.33333333333,1073.3333333333,490.66666666667,1073.3333333333,490.66666666667"></polygon><polygon data-id="255" data-sec="2" data-build="1" data-floor="8" class="s3d-svg__house js-s3d-svg__house" points="1073,491,1073,491,1078,552,1078,552,1199.6666666667,583,1199.6666666667,583,1239.6666666667,569.66666666667,1239.6666666667,569.66666666667,1229.3333333333,513.66666666667,1229.3333333333,513.66666666667,1190,532.33333333333,1190,532.33333333333"></polygon><polygon data-id="258" data-sec="2" data-build="1" data-floor="8" class="s3d-svg__house js-s3d-svg__house" points="1229.3333333333,513.66666666667,1229.3333333333,513.66666666667,1239.6666666667,569.33333333333,1239.6666666667,569.33333333333,1404.3333333333,479.66666666667,1404.3333333333,479.66666666667,1384.6666666667,420,1384.6666666667,420"></polygon><polygon data-id="259" data-sec="2" data-build="1" data-floor="8" class="s3d-svg__house js-s3d-svg__house" points="1384.6666666667,420.33333333333,1384.6666666667,420.33333333333,1404.3333333333,480,1404.3333333333,480,1564.6666666667,390.33333333333,1564.6666666667,390.33333333333,1537.6666666667,326,1537.6666666667,326"></polygon><polygon data-id="260" data-sec="2" data-build="1" data-floor="8" class="s3d-svg__house js-s3d-svg__house" points="1537,327,1537,327,1564.3333333333,391,1564.3333333333,391,1918.6666666667,200.33333333333,1918.6666666667,200.33333333333,1919,101,1919,101"></polygon><polygon data-id="182" data-sec="1" data-build="1" data-floor="9" class="s3d-svg__house js-s3d-svg__house" points="557,237.33333333333,557,237.33333333333,537.33333333333,301,537.33333333333,301,764.66666666667,381.33333333333,764.66666666667,381.33333333333,772.66666666667,320.33333333333,772.66666666667,320.33333333333"></polygon><polygon data-id="184" data-sec="1" data-build="1" data-floor="9" class="s3d-svg__house js-s3d-svg__house" points="922.66666666667,380.33333333333,922.66666666667,380.33333333333,920.66666666667,436.66666666667,920.66666666667,436.66666666667,1072.6666666667,491.66666666667,1072.6666666667,491.66666666667,1068.6666666667,440.33333333333,1068.6666666667,440.33333333333"></polygon><polygon data-id="262" data-sec="2" data-build="1" data-floor="9" class="s3d-svg__house js-s3d-svg__house" points="1064,380.33333333333,1072.6666666667,492.66666666667,1189.6666666667,533,1229,514.33333333333,1210.3333333333,396.33333333333,1177.6666666667,427.33333333333"></polygon><polygon data-id="265" data-sec="2" data-build="1" data-floor="9" class="s3d-svg__house js-s3d-svg__house" points="1221,464.33333333333,1221,464.33333333333,1229,513.66666666667,1229,513.66666666667,1385,420.66666666667,1385,420.66666666667,1368.3333333333,369,1368.3333333333,369"></polygon><polygon data-id="266" data-sec="2" data-build="1" data-floor="9" class="s3d-svg__house js-s3d-svg__house" points="1368.3333333333,368.66666666667,1368.3333333333,368.66666666667,1385,421.33333333333,1385,421.33333333333,1537.6666666667,326.66666666667,1537.6666666667,326.66666666667,1514,269.66666666667,1514,269.66666666667"></polygon><polygon data-id="267" data-sec="2" data-build="1" data-floor="9" class="s3d-svg__house js-s3d-svg__house" points="1513.6666666667,270,1513.6666666667,270,1537.6666666667,327.33333333333,1537.6666666667,327.33333333333,1919,102.33333333333,1919,102.33333333333,1919.3333333333,7.6666666666667,1919.3333333333,7.6666666666667"></polygon><polygon data-id="187" data-sec="1" data-build="1" data-floor="10" class="s3d-svg__house js-s3d-svg__house" points="575.66666666667,184,557,237.33333333333,773,320,780,265.33333333333,769,260,762,263.33333333333"></polygon><polygon data-id="189" data-sec="1" data-build="1" data-floor="10" class="s3d-svg__house js-s3d-svg__house" points="924,330.66666666667,922.66666666667,381,1069,441.66666666667,1064.3333333333,388.66666666667"></polygon><polygon data-id="268" data-sec="2" data-build="1" data-floor="10" class="s3d-svg__house js-s3d-svg__house" points="1213.3333333333,416,1221,465.33333333333,1368.3333333333,368.66666666667,1353.3333333333,317"></polygon><polygon data-id="269" data-sec="2" data-build="1" data-floor="10" class="s3d-svg__house js-s3d-svg__house" points="1353,317.33333333333,1368.6666666667,369.33333333333,1514,270,1491,217.33333333333"></polygon><polygon data-id="270" data-sec="2" data-build="1" data-floor="10" class="s3d-svg__house js-s3d-svg__house" points="1491,216.33333333333,1513.3333333333,271,1918.6666666667,8,1919.3333333333,1,1819,1"></polygon><polygon data-id="192" data-sec="1" data-build="1" data-floor="11" class="s3d-svg__house js-s3d-svg__house" points="590,137,575.66666666667,183.66666666667,761,264.33333333333,768.33333333333,260.66666666667,780.33333333333,265.33333333333,786.66666666667,219.33333333333,774,214.33333333333,768.66666666667,216.66666666667"></polygon><polygon data-id="194" data-sec="1" data-build="1" data-floor="11" class="s3d-svg__house js-s3d-svg__house" points="925.33333333333,287,924,330.66666666667,1058,386.33333333333,1054.3333333333,340.66666666667"></polygon><polygon data-id="196" data-sec="1" data-build="1" data-floor="12" class="s3d-svg__house js-s3d-svg__house" points="604.33333333333,94.666666666667,590,137.33333333333,769,217,774,215,786.33333333333,218.33333333333,793.66666666667,172,782,167.66666666667,775.33333333333,173.66666666667"></polygon><polygon data-id="199" data-sec="1" data-build="1" data-floor="13" class="s3d-svg__house js-s3d-svg__house" points="617,51.666666666667,603.66666666667,96.333333333333,774.66666666667,175.33333333333,782.33333333333,167.33333333333,793.33333333333,173.66666666667,798.33333333333,137.66666666667"></polygon><polygon data-id="202" data-sec="1" data-build="1" data-floor="14" class="s3d-svg__house js-s3d-svg__house" points="630.66666666667,12,616.33333333333,52,799,137,804.33333333333,95.666666666667"></polygon></svg>