<svg preserveAspectRatio="xMidYMid slice" id="floor--svg" viewBox="0 0 1920 1080" version="1.0"
     xmlns="http://www.w3.org/2000/svg">
    <polygon data-sec="1" data-build="1" data-type="flyby" data-flyby="2" class="s3d-svg__house js-s3d-svg__house"
             points="982.13541666667,840.41666666667,982.13541666667,840.41666666667,982.13541666667,840.41666666667,982.13541666667,840.41666666667,983.80208333333,289.75,983.80208333333,289.75,983.80208333333,289.75,983.80208333333,289.75,1038.1354166667,251.08333333333,1038.1354166667,251.08333333333,1038.1354166667,251.08333333333,1038.1354166667,251.08333333333,1092.8020833333,228.75,1092.8020833333,228.75,1092.8020833333,228.75,1092.8020833333,228.75,1162.1354166667,208.08333333333,1162.1354166667,208.08333333333,1162.1354166667,208.08333333333,1162.1354166667,208.08333333333,1202.1354166667,211.75,1202.1354166667,211.75,1202.1354166667,211.75,1202.1354166667,211.75,1202.1354166667,211.75,1202.1354166667,211.75,1202.1354166667,211.75,1202.1354166667,211.75,1308.8020833333,222.41666666667,1308.8020833333,222.41666666667,1308.8020833333,222.41666666667,1308.8020833333,222.41666666667,1275.8020833333,762.75,1275.8020833333,762.75,1275.8020833333,762.75,1275.8020833333,762.75"></polygon>
    <polygon data-sec="1" data-build="1" data-type="flyby" data-flyby="3" class="s3d-svg__house js-s3d-svg__house"
             points="875.99869791667,474.66666666667,875.99869791667,474.66666666667,631.99869791667,672.66666666667,631.99869791667,672.66666666667,640.99869791667,828.66666666667,640.99869791667,828.66666666667,734.49869791667,851.16666666667,734.49869791667,851.16666666667,732.99869791667,791.66666666667,732.99869791667,791.66666666667,959.49869791667,600.16666666667,959.49869791667,600.16666666667,957.66536458333,492.16666666667,957.66536458333,492.16666666667"></polygon>
    <polygon data-sec="1" data-build="1" data-type="flyby" data-flyby="4" class="s3d-svg__house js-s3d-svg__house"
             points="1284.6666666667,652.61108398438,1326.3333333333,661.11108398438,1338,477.16666666667,1330.3333333333,438.83333333333,1297.6666666667,432.16666666667,1308.8020833333,222.41666666667,1202.1354166667,211.75,1162.1354166667,208.08333333333,1092.8020833333,228.75,1038.1354166667,251.08333333333,983.80208333333,289.75,982.33333333333,567.83333333333,960.33333333333,566.83333333333,974,550.16666666667,973.66666666667,239,837.33333333333,199.16666666667,739.33333333333,242.16666666667,752.33333333333,574.83333333333,875.99869791667,474.66666666667,957.66536458333,492.16666666667,959.66666666667,566.83333333333,982.66666666667,568.5,983.80208333333,289.75,1038.1354166667,251.08333333333,1092.8020833333,228.75,1162.1354166667,208.08333333333,1202.1354166667,211.75,1308.8020833333,222.41666666667"></polygon>
</svg>