<svg preserveAspectRatio="xMidYMid slice" id="floor--svg"  viewBox="0 0 1920 1080" version="1.0" xmlns="http://www.w3.org/2000/svg"><polygon data-id="280" data-sec="3" data-build="1" data-floor="3" class="s3d-svg__house js-s3d-svg__house" points="1121.3333333333,927.66666666667,1121.3333333333,927.66666666667,995,897.66666666667,995,897.66666666667,996,865.33333333333,996,865.33333333333,1124,892.33333333333,1124,892.33333333333"></polygon><polygon data-id="281" data-sec="3" data-build="1" data-floor="3" class="s3d-svg__house js-s3d-svg__house" points="995.33333333333,865.33333333333,995.33333333333,865.33333333333,994.66666666667,899.33333333333,994.66666666667,899.33333333333,888,872.33333333333,888,872.33333333333,888,840,888,840"></polygon><polygon data-id="282" data-sec="3" data-build="1" data-floor="3" class="s3d-svg__house js-s3d-svg__house" points="887.66666666667,840.33333333333,887.66666666667,840.33333333333,887.66666666667,872.66666666667,887.66666666667,872.66666666667,861.66666666667,867,861.66666666667,867,851,879.66666666667,851,879.66666666667,815.66666666667,873.33333333333,815.66666666667,873.33333333333,814.33333333333,844,814.33333333333,844,850.33333333333,852.33333333333,850.33333333333,852.33333333333,861.33333333333,836.66666666667,861.33333333333,836.66666666667"></polygon><polygon data-id="374" data-sec="4" data-build="1" data-floor="3" class="s3d-svg__house js-s3d-svg__house" points="813.33333333333,844,813.33333333333,844,815.66666666667,874.33333333333,815.66666666667,874.33333333333,806.66666666667,884.33333333333,806.66666666667,884.33333333333,769,876,769,876,763.33333333333,868,763.33333333333,868,760.33333333333,867,760.33333333333,867,760.33333333333,862.33333333333,760.33333333333,862.33333333333,747,861,747,861,743,831.66666666667,743,831.66666666667,754.33333333333,833.33333333333,754.33333333333,833.33333333333,754.33333333333,844.33333333333,754.33333333333,844.33333333333,803.66666666667,855.33333333333,803.66666666667,855.33333333333"></polygon><polygon data-id="375" data-sec="4" data-build="1" data-floor="3" class="s3d-svg__house js-s3d-svg__house" points="743.33333333333,832,746.33333333333,861.33333333333,722.66666666667,858,715,864.33333333333,691,859,691,854.66666666667,697,848,679.33333333333,844.66666666667,675.33333333333,817,693.66666666667,820.33333333333,687.33333333333,825.66666666667,688.66666666667,830.66666666667,712.33333333333,834.33333333333,719,828.33333333333"></polygon><polygon data-id="376" data-sec="4" data-build="1" data-floor="3" class="s3d-svg__house js-s3d-svg__house" points="675.25,817,679.25,845.5,609.25,830.5,601.25,837.5,573.25,828.5,572,801.5,597.5,807,607,800.75"></polygon><polygon data-id="286" data-sec="3" data-build="1" data-floor="4" class="s3d-svg__house js-s3d-svg__house" points="1125.75,860,1124,892.25,994.5,865.5,994.5,835.25"></polygon><polygon data-id="287" data-sec="3" data-build="1" data-floor="4" class="s3d-svg__house js-s3d-svg__house" points="994,835,994.25,865.75,886.75,840,887.25,813.5"></polygon><polygon data-id="288" data-sec="3" data-build="1" data-floor="4" class="s3d-svg__house js-s3d-svg__house" points="887,813,886.25,841,861.5,837,849.75,852.25,813.25,844.75,812.75,812.75,848.25,818.75,858.5,808.75"></polygon><polygon data-id="380" data-sec="4" data-build="1" data-floor="4" class="s3d-svg__house js-s3d-svg__house" points="812.75,812.25,813.25,845,802.75,855.5,754,844.25,754.25,834.25,742.75,832,740.5,802,756.5,804.5,752.5,809.5,752.25,813.25,774.75,819,787.75,808"></polygon><polygon data-id="381" data-sec="4" data-build="1" data-floor="4" class="s3d-svg__house js-s3d-svg__house" points="740.5,801.75,743.5,832.25,718.75,827.75,712.5,834.25,688.75,831,687,826.5,693.25,819.75,675.25,817,672,787.75,689,791.25,685.25,796.25,686,800,708.75,804.5,716.5,797.75"></polygon><polygon data-id="382" data-sec="4" data-build="1" data-floor="4" class="s3d-svg__house js-s3d-svg__house" points="567.25,773.5,570,802,597.5,807,607.5,800.75,675,817,671.5,788,605.25,773.75,595,779.25"></polygon><polygon data-id="388" data-sec="4" data-build="1" data-floor="5" class="s3d-svg__house js-s3d-svg__house" points="563.25,744.25,566.5,773.5,594.5,779.5,605.75,773.5,671.5,787.75,669.75,756.25,600.5,744,590.75,749.75"></polygon><polygon data-id="386" data-sec="4" data-build="1" data-floor="5" class="s3d-svg__house js-s3d-svg__house" points="739.75,772.25,740.75,802.75,756,804.75,751.75,809.25,751.5,812.75,774.5,819.5,787.25,807.25,812.5,812,811.75,781.75,784,777.25,774.25,786.5,749,782.25,748.25,779.75,753.25,773.75"></polygon><polygon data-id="387" data-sec="4" data-build="1" data-floor="5" class="s3d-svg__house js-s3d-svg__house" points="670,756,672.25,788.5,688.75,791,685.25,796.5,685.75,799.5,708.75,805.25,716.5,797.75,740.75,802,740,771.75,712.75,768,707,773,682.5,768.25,682.25,763.5,688.25,758"></polygon><polygon data-id="294" data-sec="3" data-build="1" data-floor="5" class="s3d-svg__house js-s3d-svg__house" points="811.5,781.5,812.75,812.5,847.5,819.5,858.5,808.75,886.75,813,886.75,779,856.5,773.5,854.25,779.25,846.5,789.25"></polygon><polygon data-id="293" data-sec="3" data-build="1" data-floor="5" class="s3d-svg__house js-s3d-svg__house" points="886.5,779,886.75,814,994.5,835.5,996.25,799.5"></polygon><polygon data-id="292" data-sec="3" data-build="1" data-floor="5" class="s3d-svg__house js-s3d-svg__house" points="996.25,799.25,994.5,835,1125.75,860.25,1128.5,823.5"></polygon><polygon data-id="394" data-sec="4" data-build="1" data-floor="6" class="s3d-svg__house js-s3d-svg__house" points="559,713.75,562.5,738,561.25,742.75,562.5,743.75,590.5,750.75,600.5,744,669.75,755.75,665.75,724.25,599,712.75,586.75,719"></polygon><polygon data-id="393" data-sec="4" data-build="1" data-floor="6" class="s3d-svg__house js-s3d-svg__house" points="665.75,723.75,669.5,756.5,688.25,758.5,682,763.25,682,768,706.5,773.5,713.25,768.5,738.5,771.5,736.5,740,712.25,736,704,741.5,679.5,737.25,678.5,733.75,684.75,727"></polygon><polygon data-id="392" data-sec="4" data-build="1" data-floor="6" class="s3d-svg__house js-s3d-svg__house" points="736.75,740,738.75,772,753.5,773.75,748,779.25,748.75,781.5,773.5,786.5,783.75,777,811.75,782,810.25,748.75,781.25,744.5,773,754.5,747,750.5,746.5,747.75,750.75,741.5"></polygon><polygon data-id="300" data-sec="3" data-build="1" data-floor="6" class="s3d-svg__house js-s3d-svg__house" points="810.25,749.5,812,782.25,846.5,789.5,853.5,779,856,773,886.5,779,887,749.5,856.5,744.75,845.75,754.25"></polygon><polygon data-id="299" data-sec="3" data-build="1" data-floor="6" class="s3d-svg__house js-s3d-svg__house" points="887,749,886.25,778.75,996.25,799.25,997.75,769"></polygon><polygon data-id="298" data-sec="3" data-build="1" data-floor="6" class="s3d-svg__house js-s3d-svg__house" points="997.5,768.75,996,798.75,1128.5,824,1130.5,791.25"></polygon><polygon data-id="400" data-sec="4" data-build="1" data-floor="7" class="s3d-svg__house js-s3d-svg__house" points="554.25,682.75,558,714,586.5,719.25,599,712.75,665.75,724.25,663.25,694.25,593.5,681,584,687"></polygon><polygon data-id="399" data-sec="4" data-build="1" data-floor="7" class="s3d-svg__house js-s3d-svg__house" points="663.25,694.25,666,724,684,727.25,678.5,733.75,679.5,737.75,703.25,742.25,712,736.25,736.5,739.75,733.25,705.25,709.25,702,701.25,709.25,676,703.75,674.75,699.5,679.5,697.5"></polygon><polygon data-id="398" data-sec="4" data-build="1" data-floor="7" class="s3d-svg__house js-s3d-svg__house" points="733.5,705.5,736.5,740,751.25,740.75,746.25,747.25,747.5,751.25,772.75,754.75,781,743.75,810.5,749.25,809.5,715.5,780,713,770.5,721.5,745.5,717,744,714,749.5,707"></polygon><polygon data-id="306" data-sec="3" data-build="1" data-floor="7" class="s3d-svg__house js-s3d-svg__house" points="809.5,715.5,810,749.75,846.25,754.25,856,745,886.5,749.25,886.5,713.25,856.5,708,844.75,721.25"></polygon><polygon data-id="305" data-sec="3" data-build="1" data-floor="7" class="s3d-svg__house js-s3d-svg__house" points="886.5,713,886.5,749,997.75,769.25,999.25,732.5"></polygon><polygon data-id="304" data-sec="3" data-build="1" data-floor="7" class="s3d-svg__house js-s3d-svg__house" points="998.75,732.75,997.75,769.25,1130.5,791.75,1132.75,754.5"></polygon><polygon data-id="406" data-sec="4" data-build="1" data-floor="8" class="s3d-svg__house js-s3d-svg__house" points="550.25,651.5,553.25,683.25,583.75,687,593,680.75,662.75,694.5,659.75,662.75,588,650,578.5,655.75"></polygon><polygon data-id="405" data-sec="4" data-build="1" data-floor="8" class="s3d-svg__house js-s3d-svg__house" points="660,662.75,663,694,679.5,697.5,674,699.75,676.25,704.25,700.75,710,708.5,702.25,733.25,705.5,731.25,673.25,705.25,670.25,698.25,675.75,672.5,672.25,671.75,666,674.5,664.5"></polygon><polygon data-id="404" data-sec="4" data-build="1" data-floor="8" class="s3d-svg__house js-s3d-svg__house" points="731.25,673,733.25,705.25,749.5,706.25,743.75,713.5,745,717,770.25,722.5,780,712.5,809.25,715.25,808,683.25,777,680,768,687.25,741.75,683.5,741.25,679.75,747.5,674"></polygon><polygon data-id="312" data-sec="3" data-build="1" data-floor="8" class="s3d-svg__house js-s3d-svg__house" points="808.25,683.25,809.75,715.25,844.5,721.75,855.5,707.25,886.25,712.75,887.5,682.5,856.5,677,843.25,688.5"></polygon><polygon data-id="311" data-sec="3" data-build="1" data-floor="8" class="s3d-svg__house js-s3d-svg__house" points="887.75,682.5,886.5,713.25,998.75,733,1000.25,701.5"></polygon><polygon data-id="310" data-sec="3" data-build="1" data-floor="8" class="s3d-svg__house js-s3d-svg__house" points="1000,701.25,998.5,733.25,1132.5,754.5,1134.75,721"></polygon><polygon data-id="412" data-sec="4" data-build="1" data-floor="9" class="s3d-svg__house js-s3d-svg__house" points="545,618.5,549.5,650.75,578,656.25,587.5,650,659.5,662.5,655.75,626.75,584,616.75,574.25,623.5"></polygon><polygon data-id="411" data-sec="4" data-build="1" data-floor="9" class="s3d-svg__house js-s3d-svg__house" points="655.5,627,659.75,663.25,674.25,664,671.25,666,671.75,673,697.25,675.75,705,669.75,729.75,672.75,728,638.75,702.5,635.5,694,642,670,638.5,667.5,634.25,674.5,629"></polygon><polygon data-id="410" data-sec="4" data-build="1" data-floor="9" class="s3d-svg__house js-s3d-svg__house" points="728.25,638.25,729.75,672.75,748,673.75,741.25,680.25,741.25,684,768,687.25,776.75,680.25,808,683,806.25,645.5,775.5,643.25,765.75,652,739.75,649,738.5,645.25,746,639.5"></polygon><polygon data-id="318" data-sec="3" data-build="1" data-floor="9" class="s3d-svg__house js-s3d-svg__house" points="806.25,645.5,807.75,683.25,843,689,856,676.75,886.25,682,885.5,646,854,640.25,840.5,650"></polygon><polygon data-id="317" data-sec="3" data-build="1" data-floor="9" class="s3d-svg__house js-s3d-svg__house" points="885.25,646,886.25,682.25,1000,701,1001.25,662.75"></polygon><polygon data-id="316" data-sec="3" data-build="1" data-floor="9" class="s3d-svg__house js-s3d-svg__house" points="1001,662.5,999.5,701.5,1134.75,720.5,1137.75,681.25"></polygon><polygon data-id="418" data-sec="4" data-build="1" data-floor="10" class="s3d-svg__house js-s3d-svg__house" points="541,585.5,544.5,619,574.25,623.5,583.75,616.5,655,626.75,652,592.5,580,582.5,569.25,590.25"></polygon><polygon data-id="417" data-sec="4" data-build="1" data-floor="10" class="s3d-svg__house js-s3d-svg__house" points="652,593,655.25,626.5,674,628.5,667,634,670,638.75,693.75,641.5,703.25,635,728,638,725.5,602.25,698.5,601.25,690.5,606.75,664.5,603.25,664,598.5,669.75,594.25"></polygon><polygon data-id="416" data-sec="4" data-build="1" data-floor="10" class="s3d-svg__house js-s3d-svg__house" points="725,602.75,727.75,638.25,746.25,639.5,738.5,645,740.5,649.5,766.25,652.25,775.75,642.25,806,644.75,804.75,611.75,772.75,608.5,762.25,616.75,736.75,612.25,736.25,608.25,742.5,604"></polygon><polygon data-id="324" data-sec="3" data-build="1" data-floor="10" class="s3d-svg__house js-s3d-svg__house" points="804.75,611.75,805.75,646,840.5,650.25,853.25,639.75,885,645.75,885,611.75,850.75,609.5,840.5,614.5"></polygon><polygon data-id="323" data-sec="3" data-build="1" data-floor="10" class="s3d-svg__house js-s3d-svg__house" points="884.75,612,884.75,646,1001,662.5,1001.75,627"></polygon><polygon data-id="322" data-sec="3" data-build="1" data-floor="10" class="s3d-svg__house js-s3d-svg__house" points="1001.5,627.25,1000.25,663.25,1137.5,680.75,1140,645"></polygon><polygon data-id="424" data-sec="4" data-build="1" data-floor="11" class="s3d-svg__house js-s3d-svg__house" points="535.5,551.5,539.75,585.25,568.5,590.25,580,582.25,651.25,592.75,648,555.5,577.75,548.75,566,555.75"></polygon><polygon data-id="423" data-sec="4" data-build="1" data-floor="11" class="s3d-svg__house js-s3d-svg__house" points="647.5,555.25,651.5,592.75,669.75,593.5,663.25,599,664,604.25,690.25,607.75,698.75,601.25,725.5,603.75,722.25,564.75,697.5,565,686.5,570.5,661,568.25,659.5,563.5,665.5,558.25"></polygon><polygon data-id="422" data-sec="4" data-build="1" data-floor="11" class="s3d-svg__house js-s3d-svg__house" points="721.75,565.25,725,604,743,604,736,608.5,736.75,613.25,761.75,616.75,772.75,608.5,804.75,612.25,803.25,577.25,771.25,574,760.25,580.5,734.25,576.5,733.25,572.5,738.5,567"></polygon><polygon data-id="329" data-sec="3" data-build="1" data-floor="11" class="s3d-svg__house js-s3d-svg__house" points="802.75,577.5,804.5,612.25,840,614.75,850.5,609,884.25,611.25,883.75,573.75,850,571.25,838.25,580.5"></polygon><polygon data-id="328" data-sec="3" data-build="1" data-floor="11" class="s3d-svg__house js-s3d-svg__house" points="884,573.75,884.5,611.25,1001.75,627.25,1003,588"></polygon><polygon data-id="327" data-sec="3" data-build="1" data-floor="11" class="s3d-svg__house js-s3d-svg__house" points="1002.5,588.25,1001.75,627,1139.75,645.5,1142.25,605.25"></polygon><polygon data-id="430" data-sec="4" data-build="1" data-floor="12" class="s3d-svg__house js-s3d-svg__house" points="531,516,534,551.5,566,556.25,578.25,548.5,647.75,555,644,519.75,571.75,514,560,519.75"></polygon><polygon data-id="429" data-sec="4" data-build="1" data-floor="12" class="s3d-svg__house js-s3d-svg__house" points="643.5,520.25,647.5,555.25,665.5,557.5,659.25,563.25,661,568.25,686,571,697,564.75,721.25,565.25,718.5,529.5,692.75,528.25,682.75,534.25,657.75,531,657.5,526.25,665.75,522.5,666.25,520.75"></polygon><polygon data-id="428" data-sec="4" data-build="1" data-floor="12" class="s3d-svg__house js-s3d-svg__house" points="718.5,529.5,720.75,565.25,738.75,566.75,732.5,572.5,733.75,576.75,759.75,580.25,771,574.25,802.75,577.25,801,538.75,767,537,757,542,731.25,539.25,730.25,535.5,736.75,531.25"></polygon><polygon data-id="334" data-sec="3" data-build="1" data-floor="12" class="s3d-svg__house js-s3d-svg__house" points="800.75,538.75,802.75,578,837.5,581,849.5,571,883.75,574.25,883.75,540.75,846.25,536.5,836.5,541.5"></polygon><polygon data-id="333" data-sec="3" data-build="1" data-floor="12" class="s3d-svg__house js-s3d-svg__house" points="883.5,540.5,883.25,574.25,1002.5,588.25,1003.75,553.5"></polygon><polygon data-id="332" data-sec="3" data-build="1" data-floor="12" class="s3d-svg__house js-s3d-svg__house" points="1003.75,553.25,1002.5,588.5,1142,605.5,1143.5,567.75"></polygon><polygon data-id="436" data-sec="4" data-build="1" data-floor="13" class="s3d-svg__house js-s3d-svg__house" points="525.25,480.5,530,515.75,559.75,520.5,571.75,514.25,643.25,520,640,486.5,566,480.5,555.25,483.75"></polygon><polygon data-id="435" data-sec="4" data-build="1" data-floor="13" class="s3d-svg__house js-s3d-svg__house" points="639.5,486.5,643.25,520.25,665.25,522.25,657.5,526.25,657.5,530.75,683,534.75,692.75,528,718.25,529.5,716.25,494.25,687,494.5,680.5,497,654.75,494.25,652.75,489.75,655.25,487"></polygon><polygon data-id="434" data-sec="4" data-build="1" data-floor="13" class="s3d-svg__house js-s3d-svg__house" points="716,494.75,717.75,529.25,736.5,530.75,729.75,535.25,731.5,539.25,756.5,542.25,767,537.25,800.75,539.5,799.75,502,764.25,500.75,753.5,503.25,727.75,501.75,727,497,729.25,495.75"></polygon><polygon data-id="339" data-sec="3" data-build="1" data-floor="13" class="s3d-svg__house js-s3d-svg__house" points="799.75,501.5,801,539.75,836,542.25,846,535.75,883.75,540.75,883,499,843.25,495.5,842.75,502.25,835.5,505.25"></polygon><polygon data-id="338" data-sec="3" data-build="1" data-floor="13" class="s3d-svg__house js-s3d-svg__house" points="883,499.5,883.5,540.75,1003.25,553.25,1004.25,510.5"></polygon><polygon data-id="337" data-sec="3" data-build="1" data-floor="13" class="s3d-svg__house js-s3d-svg__house" points="1004.25,510.5,1003.25,554,1144,567.25,1147.75,523.25"></polygon><polygon data-id="442" data-sec="4" data-build="1" data-floor="14" class="s3d-svg__house js-s3d-svg__house" points="519.75,444.75,524.25,480.75,555.25,484.25,565.75,480.75,639.25,487,635.5,451.25,564,444.75,550,447.25"></polygon><polygon data-id="441" data-sec="4" data-build="1" data-floor="14" class="s3d-svg__house js-s3d-svg__house" points="635.25,451.5,639,487,654.75,487,652.25,490.5,654.75,494,680.75,497.25,686.5,494.25,715.25,495.5,713,451,685.25,450.5,684,454.75,678.25,457,650,454.5,649.75,453.25"></polygon><polygon data-id="440" data-sec="4" data-build="1" data-floor="14" class="s3d-svg__house js-s3d-svg__house" points="712.5,451.75,716,494.5,729,496,727.5,496.75,727.5,502.75,754.5,502.75,764.5,500.25,799.25,501.75,797.75,456.75,763.5,455.75,763.75,459.75,750.75,463.5,725,461,724.75,457.75,727,453.5"></polygon><polygon data-id="344" data-sec="3" data-build="1" data-floor="14" class="s3d-svg__house js-s3d-svg__house" points="797.5,456.75,799.75,502.5,834.75,505.5,843,501.75,842,495.25,882.75,499.5,882.5,456.5,844.25,453.5,841.75,457,833.25,459.25"></polygon><polygon data-id="343" data-sec="3" data-build="1" data-floor="14" class="s3d-svg__house js-s3d-svg__house" points="882.75,456.75,882.75,499.5,1004,511,1005.25,465.25"></polygon><polygon data-id="342" data-sec="3" data-build="1" data-floor="14" class="s3d-svg__house js-s3d-svg__house" points="1004.75,465.25,1004,510.25,1148,523.5,1151,477.5"></polygon><polygon data-id="448" data-sec="4" data-build="1" data-floor="15" class="s3d-svg__house js-s3d-svg__house" points="514.5,406.25,519.5,444.75,549.75,447,564,445,635.25,451,632.25,406.5,559.5,403.25,546.5,408"></polygon><polygon data-id="447" data-sec="4" data-build="1" data-floor="15" class="s3d-svg__house js-s3d-svg__house" points="632,407,635.75,452.25,650.25,453.5,678,457.5,683.75,454.75,684.75,450,712.5,451.25,709.25,412.75,680,413,674,416.5,646.5,415,646,409.5,648,408"></polygon><polygon data-id="446" data-sec="4" data-build="1" data-floor="15" class="s3d-svg__house js-s3d-svg__house" points="709.25,413,712,451.5,726.75,453.25,724.5,457.75,725.25,461,751.25,463.75,764.25,459.75,763.5,454.5,797.5,456.5,795.75,415.5,759.5,417,750,421.25,719.25,420.25,719,415.25,722.75,413"></polygon><polygon data-id="349" data-sec="3" data-build="1" data-floor="15" class="s3d-svg__house js-s3d-svg__house" points="796,416,797.25,457,833,459,841.5,456.75,843.5,453.75,882.25,456,881.25,414.75,841,414.75,831.75,417.5"></polygon><polygon data-id="348" data-sec="3" data-build="1" data-floor="15" class="s3d-svg__house js-s3d-svg__house" points="881,414.5,882.5,456.75,1004.75,465.25,1004.5,421.5"></polygon><polygon data-id="347" data-sec="3" data-build="1" data-floor="15" class="s3d-svg__house js-s3d-svg__house" points="1004.5,422,1004.75,465.75,1150.75,477.25,1153.5,431.75"></polygon><polygon data-id="454" data-sec="4" data-build="1" data-floor="16" class="s3d-svg__house js-s3d-svg__house" points="508.5,367.5,513.5,406.25,545.75,408.25,558.75,403.25,631.25,406.25,627.5,367,549.75,367.75,539.5,369.5"></polygon><polygon data-id="453" data-sec="4" data-build="1" data-floor="16" class="s3d-svg__house js-s3d-svg__house" points="627.25,367.25,631.5,407.5,647.5,407.25,645.75,410,646.25,414.75,674.5,416.5,680.5,413.5,708.5,412.75,706.5,372.5,678,374,669,375.75,644.5,375.25,643,370.5,647,367.25"></polygon><polygon data-id="452" data-sec="4" data-build="1" data-floor="16" class="s3d-svg__house js-s3d-svg__house" points="706.5,372.25,708.5,413,722.5,413,718.5,415.75,719,420.5,750.25,421.75,759.75,417.25,795.25,416.25,793.5,373.75,759,375.5,748.5,379.25,718.25,378,718,372.5"></polygon><polygon data-id="354" data-sec="3" data-build="1" data-floor="16" class="s3d-svg__house js-s3d-svg__house" points="793.25,373.5,796,416,831.75,417.25,840,415,880.75,414.75,879.75,372,838.25,371,829,375.75"></polygon><polygon data-id="353" data-sec="3" data-build="1" data-floor="16" class="s3d-svg__house js-s3d-svg__house" points="880.25,372.25,881,415.25,1005,421.75,1005.75,378.25"></polygon><polygon data-id="352" data-sec="3" data-build="1" data-floor="16" class="s3d-svg__house js-s3d-svg__house" points="1005.25,378.5,1004.75,422.25,1154,432.25,1157.25,386.25"></polygon><polygon data-id="359" data-sec="3" data-build="1" data-floor="17" class="s3d-svg__house js-s3d-svg__house" points="791,332.5,792,373.25,829.5,375.5,838,371,880.25,371.75,878.25,333,838,331.75"></polygon><polygon data-id="358" data-sec="3" data-build="1" data-floor="17" class="s3d-svg__house js-s3d-svg__house" points="877.5,332.75,880.25,372,1006.25,378.25,1006.5,335.25"></polygon><polygon data-id="357" data-sec="3" data-build="1" data-floor="17" class="s3d-svg__house js-s3d-svg__house" points="1006,335.5,1005.75,378.25,1157,385.5,1159.75,340.25"></polygon><polygon data-id="364" data-sec="3" data-build="1" data-floor="18" class="s3d-svg__house js-s3d-svg__house" points="794.25,288.25,794.25,294,786.5,304.5,784.25,307.75,789.75,308.75,790.75,332.75,837.75,332,878,332.5,877.5,288.5"></polygon><polygon data-id="363" data-sec="3" data-build="1" data-floor="18" class="s3d-svg__house js-s3d-svg__house" points="877.25,288.25,877.75,332.25,1006.25,335.75,1006.25,290.25"></polygon><polygon data-id="362" data-sec="3" data-build="1" data-floor="18" class="s3d-svg__house js-s3d-svg__house" points="1006,290.25,1006.25,335.5,1160,340.25,1162.75,292.5"></polygon><polygon data-id="367" data-sec="3" data-build="1" data-floor="19" class="s3d-svg__house js-s3d-svg__house" points="875.25,233.5,877.25,288.25,1006,290,1006.5,233"></polygon><polygon data-id="366" data-sec="3" data-build="1" data-floor="19" class="s3d-svg__house js-s3d-svg__house" points="1006.75,232.5,1006,290.25,1163,292.75,1165.75,233.25"></polygon></svg>