<svg preserveAspectRatio="xMidYMid slice" id="floor--svg" viewBox="0 0 1920 1080" version="1.0"
     xmlns="http://www.w3.org/2000/svg">
    <polygon data-sec="1" data-build="1"  data-type="flyby" data-flyby="2" class="s3d-svg__house js-s3d-svg__house"
             points="635.99869791667,207.75,973.16536458333,249.58333333333,972.16536458333,742.25,859.16536458333,817.08333333333,844.49869791667,826.58333333333,843.66536458333,832.75,858.49869791667,836.75,859.16536458333,882.25,759.16536458333,798.75,667.66536458333,732.58333333333"></polygon>
    <polygon data-sec="1" data-build="1" data-type="flyby" data-flyby="3" class="s3d-svg__house js-s3d-svg__house"
             points="649.66666666667,461.16666666667,616.33333333333,484.16666666667,622.33333333333,575.16666666667,658,581.88887532552,667.66536458333,732.58333333333,759.16536458333,798.75,859.16536458333,882.25,858.49869791667,836.75,843.66536458333,832.75,844.49869791667,826.58333333333,859.16536458333,817.08333333333,972.16536458333,742.25,972.66536458333,618.58333333333,986.16536458333,621.08333333333,1079.1653645833,484.75,973.16536458333,477.75,972.16536458333,742.25,859.16536458333,817.08333333333,844.49869791667,826.58333333333,843.66536458333,832.75,858.49869791667,836.75,859.16536458333,882.25,759.16536458333,798.75,667.66536458333,732.58333333333"></polygon>
    <polygon data-sec="1" data-build="1" data-type="flyby" data-flyby="4" class="s3d-svg__house js-s3d-svg__house"
             points="1155,221.5,1280,223.16666666667,1258.3333333333,622.5,1232.3333333333,656.16666666667,1216.6653645833,653.83333333333,1220.6653645833,639.33333333333,1208.6666666667,639.16666666667,1206.6666666667,685.16666666667,1204.6666666667,711.5,1205,720.5,1207,738.83333333333,1121.6666666667,906.16666666667,980.66666666667,911.16666666667,979.33333333333,629.83333333333,986.16536458333,621.08333333333,1079.1653645833,484.75,1093,465.83333333333,1110.6666666667,469.16666666667,1116,279.83333333333"></polygon>
</svg>