<svg preserveAspectRatio="xMidYMid slice" id="floor--svg" viewBox="0 0 1920 1080" version="1.0"
     xmlns="http://www.w3.org/2000/svg">
    <polygon data-sec="1" data-build="1" data-type="flyby" data-flyby="2" class="s3d-svg__house js-s3d-svg__house"
             points="650.70139058431,111.11111450195,650.70139058431,111.11111450195,830.36805725098,130.94444783529,830.36805725098,130.94444783529,984.03472391764,96.944447835286,984.03472391764,96.944447835286,982.53472391764,346.88887532552,982.53472391764,346.88887532552,953.86805725098,340.22220865885,953.86805725098,340.22220865885,892.36805725098,391.83333333333,892.36805725098,391.83333333333,893.86805725098,594.94445800781,893.86805725098,594.94445800781,856.36805725098,607,856.36805725098,607,852.36805725098,482.44445800781,852.36805725098,482.44445800781,668.53472391764,442.22220865885,668.53472391764,442.22220865885"></polygon>
    <polygon data-sec="1" data-build="1" data-type="flyby" data-flyby="3" class="s3d-svg__house js-s3d-svg__house"
             points="1215.3313802083,432.04166666667,1282.8313802083,449.70833333333,1272.1647135417,607.375,1202.8313802083,668.20833333333"></polygon>
    <polygon data-sec="1" data-build="1" data-type="flyby" data-flyby="4" class="s3d-svg__house js-s3d-svg__house"
             points="580,423.16666666667,528,474.5,549.33333333333,731.16666666667,557.33333333333,734.5,574.66666666667,723.5,639.66666666667,745.83333333333,655.33333333333,735.83333333333,665,739.5,668,736.5,678,741.83333333333,680,738.5,698.33333333333,744.5,700.66666666667,800.5,787,829.83333333333,796,790.16666666667,798,789.83333333333,799,795.83333333333,899,826.16666666667,912.66666666667,833.16666666667,920.66666666667,828.5,920.66666666667,838.5,894,860.83333333333,1061,929.5,1191.3333333333,866.16666666667,1202.8313802083,668.20833333333,1215.3313802083,432.04166666667,1216,394.5,982.53472391764,346.88887532552,953.86805725098,340.22220865885,892.36805725098,391.83333333333,893.86805725098,594.94445800781,896.66666666667,789.83333333333,797.33333333333,761.16666666667,859,701.83333333333,856.36805725098,607,852.36805725098,482.44445800781"></polygon>
</svg>