<svg viewBox="0 0 1920 1080" version="1.0" xmlns="http://www.w3.org/2000/svg" preserveAspectRatio="xMidYMid slice">
	<polygon data-id="30" data-sec="1" data-build="1" data-floor="3" class="s3d-svg__house js-s3d-svg__house" points="860.25,682,861.25,733.25,770.5,702.5,767.5,701.25,764.75,699.5,763.5,698,763,696.75,763,695,763,693.5,763.25,692,763.25,689.75,761.75,688.25,761.5,686.75,761.5,684.5,764.25,680,766.75,678.75,767.75,652.5"></polygon>
	<polygon data-id="33" data-sec="1" data-build="1" data-floor="3" class="s3d-svg__house js-s3d-svg__house" points="901.25,694.25,902.5,747,1037.5,795,1044.5,796.75,1050,796.75,1054.5,796.75,1059.75,796.25,1064.5,795,1069.25,792.25,1073,789.75,1179,673.5,1181.75,670.75,1182.5,668.5,1182.5,667,1182,665.5,1181.25,664,1181.25,662.25,1182.5,660.75,1183.5,659.25,1182.5,656.75,1181,655,1179.75,654.25,1181.5,624.75,1077.25,734.5,1074.75,737.25,1071.25,738.75,1067.75,739.75,1064.25,740.25,1059,741.75,1055,742,1049,742.5,1045,742.5,1040,740.5"></polygon>
	<polygon data-id="34" data-sec="1" data-build="1" data-floor="4" class="s3d-svg__house js-s3d-svg__house" points="859.75,633,860,681,766.75,651.75,763.25,649.75,761.5,648,761.25,645.5,761.5,642.5,760.5,638,760.25,635.25,761.5,633.25,764.75,631,765.5,605,818.5,620.25"></polygon>
	<polygon data-id="37" data-sec="1" data-build="1" data-floor="4" class="s3d-svg__house js-s3d-svg__house" points="900,645.5,901.75,693.5,1038.25,740.75,1044.75,741.75,1049.5,741.5,1052.75,741.5,1056,741,1060,741,1064,740,1066.75,739.5,1070.25,738.5,1072.5,737.75,1076.25,735,1183,623.25,1183.5,619.25,1183.25,617.5,1182.25,617.5,1182.5,578.75,1077.5,683.75,1074.25,686.5,1071.75,688.5,1068.5,689.5,1064.25,690.5,1060.75,692,1054.5,691.75,1048,691.75,1040.25,690.25,1032.5,687.75"></polygon>
	<polygon data-id="38" data-sec="1" data-build="1" data-floor="5" class="s3d-svg__house js-s3d-svg__house" points="858.25,583.75,859.75,631.75,765.5,603.75,760.75,602,758.5,599.25,758.25,595.75,758.25,594.5,758.25,591.75,757.25,589.5,758.5,585.5,760.75,582.75,763,582.75,763.75,556"></polygon>
	<polygon data-id="41" data-sec="1" data-build="1" data-floor="5" class="s3d-svg__house js-s3d-svg__house" points="900.75,596.25,900.5,644.75,1031,686.5,1037,688.5,1043,690,1049.25,691,1054,690.75,1058.25,691.25,1064.25,690,1068.5,689,1071.25,687.5,1074.25,686.75,1075.75,685,1184.5,576.75,1186.75,574.25,1187.5,572.75,1187.75,570,1187.75,567,1187.75,565.5,1187,561.75,1185.25,561.25,1184.75,531,1078.25,633,1074.5,635,1072.5,635.25,1069.75,636.75,1067.5,637,1063.75,637.75,1061.75,638.75,1058,639.75,1053.5,640,1048,639.5"></polygon>
	<polygon data-id="42" data-sec="1" data-build="1" data-floor="6" class="s3d-svg__house js-s3d-svg__house" points="857.25,531.75,858,583,763.75,555,759.25,553.75,757,550.25,755.75,547.25,755.75,545,755.75,543.5,755.75,541.25,756,538.75,757.25,536.75,758,535.25,761,534.25,760.25,506"></polygon>
	<polygon data-id="45" data-sec="1" data-build="1" data-floor="6" class="s3d-svg__house js-s3d-svg__house" points="899.75,543.75,900.75,595.25,1043.5,638.5,1050.25,638.75,1056.25,638.75,1060.5,638.25,1064.5,637.5,1068.75,637,1073.5,635.5,1077,633.5,1188.25,527.5,1190.25,524.75,1191.5,522.5,1192.25,519,1192.25,515,1191.5,512.5,1190.75,511,1189.5,509.5,1188.25,509.5,1187.5,509.5,1187,482.5,1079.75,578.75,1076.75,581.25,1072.5,583.75,1066,585.5,1060.25,586.75,1053.5,586.75,1049,586.75,1044.75,585.75,1040.5,585.5"></polygon>
	<polygon data-id="50" data-sec="1" data-build="1" data-floor="8"
			 class="s3d-svg__house js-s3d-svg__house"
			 points="856.13333129883,427.33333333333,856.13333129883,427.33333333333,856.46666463216,481,856.46666463216,481,758.46666463216,455,758.46666463216,455,755.13333129883,453,755.13333129883,453,751.13333129883,449.66666666667,751.13333129883,449.66666666667,751.13333129883,445.66666666667,751.13333129883,445.66666666667,751.79999796549,442.33333333333,751.79999796549,442.33333333333,752.79999796549,437.33333333333,752.79999796549,437.33333333333,756.46666463216,434.66666666667,756.46666463216,434.66666666667,758.13333129883,433.66666666667,758.13333129883,433.66666666667,758.13333129883,402.66666666667,758.13333129883,402.66666666667,855.79999796549,425.33333333333,855.79999796549,425.33333333333"></polygon>
	<polygon data-id="53" data-sec="1" data-build="1" data-floor="8"
			 class="s3d-svg__house js-s3d-svg__house"
			 points="898.46666463216,439.60001627604,898.46666463216,439.60001627604,899.46666463216,482.93334960938,899.46666463216,482.93334960938,898.13333129883,489.93334960938,898.13333129883,489.93334960938,900.79999796549,492.93334960938,900.79999796549,492.93334960938,1046.4666646322,531.93334960938,1046.4666646322,531.93334960938,1054.7999979655,533.26668294271,1054.7999979655,533.26668294271,1061.7999979655,532.60001627604,1061.7999979655,532.60001627604,1070.1333312988,530.93334960938,1070.1333312988,530.93334960938,1075.4666646322,528.60001627604,1075.4666646322,528.60001627604,1193.7999979655,428.93334960938,1193.7999979655,428.93334960938,1195.1333312988,426.60001627604,1195.1333312988,426.60001627604,1194.1333312988,420.93334960938,1194.1333312988,420.93334960938,1194.4666646322,419.26668294271,1194.4666646322,419.26668294271,1193.1333312988,416.26668294271,1193.1333312988,416.26668294271,1192.1333312988,415.26668294271,1192.1333312988,415.26668294271,1191.7999979655,382.60001627604,1191.7999979655,382.60001627604,1079.7999979655,471.60001627604,1079.7999979655,471.60001627604,1062.4666646322,475.60001627604,1062.4666646322,475.60001627604,1048.7999979655,475.60001627604,1048.7999979655,475.60001627604"></polygon>
	<polygon data-id="49" data-sec="1" data-build="1" data-floor="7"
			 class="s3d-svg__house js-s3d-svg__house"
			 points="900.79999796549,494.60001627604,900.79999796549,494.60001627604,901.46666463216,535.26668294271,901.46666463216,535.26668294271,899.46666463216,536.60001627604,899.46666463216,536.60001627604,898.46666463216,542.93334960938,898.46666463216,542.93334960938,902.79999796549,545.93334960938,902.79999796549,545.93334960938,1042.7999979655,584.93334960938,1042.7999979655,584.93334960938,1054.7999979655,585.26668294271,1054.7999979655,585.26668294271,1064.1333312988,585.26668294271,1064.1333312988,585.26668294271,1074.1333312988,581.93334960938,1074.1333312988,581.93334960938,1082.4666646322,575.60001627604,1082.4666646322,575.60001627604,1192.1333312988,476.93334960938,1192.1333312988,476.93334960938,1192.4666646322,470.93334960938,1192.4666646322,470.93334960938,1191.4666646322,465.93334960938,1191.4666646322,465.93334960938,1188.7999979655,465.60001627604,1188.7999979655,465.60001627604,1189.4666646322,433.93334960938,1189.4666646322,433.93334960938,1075.4666646322,529.26668294271,1075.4666646322,529.26668294271,1070.4666646322,531.60001627604,1070.4666646322,531.60001627604,1062.1333312988,532.93334960938,1062.1333312988,532.93334960938,1053.4666646322,534.26668294271,1053.4666646322,534.26668294271,1046.1333312988,532.93334960938,1046.1333312988,532.93334960938,901.13333129883,494.60001627604,901.13333129883,494.60001627604"></polygon>
	<polygon data-id="46" data-sec="1" data-build="1" data-floor="7"
			 class="s3d-svg__house js-s3d-svg__house"
			 points="856.79999796549,481,856.79999796549,530.66666666667,768.79999796549,507,761.46666463216,504,754.46666463216,499.66666666667,752.79999796549,494.66666666667,753.79999796549,490.66666666667,756.46666463216,484,760.79999796549,482,759.13333129883,457"></polygon>

	<polygon data-id="54" data-sec="1" data-build="1" data-floor="9" class="s3d-svg__house js-s3d-svg__house" points="853.19999694824,372,854.69999694824,426.5,755.69999694824,402,752.69999694824,399.5,752.19999694824,396,750.69999694824,388.5,754.19999694824,384,756.19999694824,382.5,755.19999694824,349"></polygon>
	<polygon data-id="15139" data-sec="1" data-build="1" data-floor="9" class="s3d-svg__house js-s3d-svg__house" points="899.19999694824,378.5,898.69999694824,437,1045.1999969482,475.5,1056.1999969482,476,1064.6999969482,475.5,1071.1999969482,474,1079.6999969482,471.5,1198.6999969482,376.5,1199.1999969482,369.5,1195.1999969482,363.5,1195.6999969482,329.5,1084.6999969482,413.5,1075.6999969482,417,1069.1999969482,419,1047.6999969482,418"></polygon>
	<polygon data-id="15141" data-sec="1" data-build="1" data-floor="10" class="s3d-svg__house js-s3d-svg__house" points="897.19999694824,319.5,900.19999694824,380,1047.1999969482,419.5,1068.1999969482,420.5,1075.1999969482,417,1085.1999969482,413.5,1199.6999969482,327,1199.6999969482,318.5,1197.1999969482,315.5,1196.6999969482,270,1088.1999969482,345.5,1079.6999969482,351,1051.1999969482,353.5"></polygon>
	<polygon data-id="56" data-sec="1" data-build="1" data-floor="10" class="s3d-svg__house js-s3d-svg__house" points="853.19999694824,311,854.19999694824,373.5,753.19999694824,348.5,749.19999694824,345.5,746.69999694824,339.5,748.19999694824,335.5,749.69999694824,330.5,751.19999694824,330,749.69999694824,285.5"></polygon>

</svg>
