<svg preserveAspectRatio="xMidYMid slice" id="floor--svg"  viewBox="0 0 1920 1080" version="1.0" xmlns="http://www.w3.org/2000/svg"><polygon data-id="136" data-sec="C" data-build="1" data-floor="5" data-type_poly="flat" class="s3d-svg__house js-s3d-svg__house" points="1586.3333333333,970.66666666667,1591,943.66666666667,1509.6666666667,934.66666666667,1506,962"></polygon><polygon data-id="137" data-sec="C" data-build="1" data-floor="5" data-type_poly="flat" class="s3d-svg__house js-s3d-svg__house" points="1509.6666666667,934.66666666667,1440.3333333333,928,1436.6666666667,954.66666666667,1506,962"></polygon><polygon data-id="138" data-sec="C" data-build="1" data-floor="5" data-type_poly="flat" class="s3d-svg__house js-s3d-svg__house" points="1440.3333333333,928,1326.6666666667,916,1324,943.33333333333,1436.6666666667,954.66666666667"></polygon><polygon data-id="142" data-sec="C" data-build="1" data-floor="6" data-type_poly="flat" class="s3d-svg__house js-s3d-svg__house" points="1591,943.66666666667,1596.6666666667,915,1514,906.33333333333,1509.6666666667,934.66666666667"></polygon><polygon data-id="143" data-sec="C" data-build="1" data-floor="6" data-type_poly="flat" class="s3d-svg__house js-s3d-svg__house" points="1514,906.33333333333,1443.6666666667,899.33333333333,1440.3333333333,928,1509.6666666667,934.66666666667"></polygon><polygon data-id="144" data-sec="C" data-build="1" data-floor="6" data-type_poly="flat" class="s3d-svg__house js-s3d-svg__house" points="1443.6666666667,899.33333333333,1329.6666666667,887.33333333333,1326.6666666667,916,1440.3333333333,928"></polygon><polygon data-id="148" data-sec="C" data-build="1" data-floor="7" data-type_poly="flat" class="s3d-svg__house js-s3d-svg__house" points="1596.6666666667,915,1601.3333333333,886.66666666667,1518.3333333333,877,1514,906.33333333333"></polygon><polygon data-id="149" data-sec="C" data-build="1" data-floor="7" data-type_poly="flat" class="s3d-svg__house js-s3d-svg__house" points="1518.3333333333,877,1448,870.66666666667,1443.6666666667,899.33333333333,1514,906.33333333333"></polygon><polygon data-id="150" data-sec="C" data-build="1" data-floor="7" data-type_poly="flat" class="s3d-svg__house js-s3d-svg__house" points="1448,870.66666666667,1332.3333333333,859,1329.6666666667,887.33333333333,1443.6666666667,899.33333333333"></polygon><polygon data-id="154" data-sec="C" data-build="1" data-floor="8" data-type_poly="flat" class="s3d-svg__house js-s3d-svg__house" points="1601.3333333333,886.66666666667,1607,857,1522.6666666667,848.33333333333,1518.3333333333,877"></polygon><polygon data-id="155" data-sec="C" data-build="1" data-floor="8" data-type_poly="flat" class="s3d-svg__house js-s3d-svg__house" points="1522.6666666667,848.33333333333,1451.6666666667,841.33333333333,1448,870.66666666667,1518.3333333333,877"></polygon><polygon data-id="158" data-sec="C" data-build="1" data-floor="8" data-type_poly="flat" class="s3d-svg__house js-s3d-svg__house" points="1451.6666666667,841.33333333333,1335.6666666667,829.66666666667,1332.3333333333,859,1448,870.66666666667"></polygon><polygon data-id="160" data-sec="C" data-build="1" data-floor="9" data-type_poly="flat" class="s3d-svg__house js-s3d-svg__house" points="1607,857,1612.6666666667,827,1527.6666666667,818.66666666667,1522.6666666667,848.33333333333"></polygon><polygon data-id="161" data-sec="C" data-build="1" data-floor="9" data-type_poly="flat" class="s3d-svg__house js-s3d-svg__house" points="1527.6666666667,818.66666666667,1455.6666666667,811.33333333333,1451.6666666667,841.33333333333,1522.6666666667,848.33333333333"></polygon><polygon data-id="162" data-sec="C" data-build="1" data-floor="9" data-type_poly="flat" class="s3d-svg__house js-s3d-svg__house" points="1455.6666666667,811.33333333333,1338,800.66666666667,1335.6666666667,829.66666666667,1451.6666666667,841.33333333333"></polygon><polygon data-id="166" data-sec="C" data-build="1" data-floor="10" data-type_poly="flat" class="s3d-svg__house js-s3d-svg__house" points="1612.6666666667,827,1618.6666666667,796,1532.3333333333,788.33333333333,1527.6666666667,818.66666666667"></polygon><polygon data-id="167" data-sec="C" data-build="1" data-floor="10" data-type_poly="flat" class="s3d-svg__house js-s3d-svg__house" points="1532.3333333333,788.33333333333,1459.3333333333,782,1455.6666666667,811.33333333333,1527.6666666667,818.66666666667"></polygon><polygon data-id="168" data-sec="C" data-build="1" data-floor="10" data-type_poly="flat" class="s3d-svg__house js-s3d-svg__house" points="1459.3333333333,782,1340,770.66666666667,1338,800.66666666667,1455.6666666667,811.33333333333"></polygon><polygon data-id="172" data-sec="C" data-build="1" data-floor="11" data-type_poly="flat" class="s3d-svg__house js-s3d-svg__house" points="1618.6666666667,796,1623.6666666667,765.66666666667,1536.6666666667,757.33333333333,1532.3333333333,788.33333333333"></polygon><polygon data-id="173" data-sec="C" data-build="1" data-floor="11" data-type_poly="flat" class="s3d-svg__house js-s3d-svg__house" points="1536.6666666667,757.33333333333,1463.6666666667,751,1459.3333333333,782,1532.3333333333,788.33333333333"></polygon><polygon data-id="174" data-sec="C" data-build="1" data-floor="11" data-type_poly="flat" class="s3d-svg__house js-s3d-svg__house" points="1463.6666666667,751,1344,740.33333333333,1340,770.66666666667,1459.3333333333,782"></polygon><polygon data-id="178" data-sec="C" data-build="1" data-floor="12" data-type_poly="flat" class="s3d-svg__house js-s3d-svg__house" points="1623.6666666667,765.66666666667,1629,734.33333333333,1541.6666666667,727,1536.6666666667,757.33333333333"></polygon><polygon data-id="179" data-sec="C" data-build="1" data-floor="12" data-type_poly="flat" class="s3d-svg__house js-s3d-svg__house" points="1541.6666666667,727,1468.3333333333,720.66666666667,1463.6666666667,751,1536.6666666667,757.33333333333"></polygon><polygon data-id="180" data-sec="C" data-build="1" data-floor="12" data-type_poly="flat" class="s3d-svg__house js-s3d-svg__house" points="1468.3333333333,720.66666666667,1346.3333333333,709.66666666667,1344,740.33333333333,1463.6666666667,751"></polygon><polygon data-id="184" data-sec="C" data-build="1" data-floor="13" data-type_poly="flat" class="s3d-svg__house js-s3d-svg__house" points="1629,734.33333333333,1635,703,1547,694.66666666667,1541.6666666667,727"></polygon><polygon data-id="185" data-sec="C" data-build="1" data-floor="13" data-type_poly="flat" class="s3d-svg__house js-s3d-svg__house" points="1547,694.66666666667,1472.3333333333,688.66666666667,1468.3333333333,720.66666666667,1541.6666666667,727"></polygon><polygon data-id="186" data-sec="C" data-build="1" data-floor="13" data-type_poly="flat" class="s3d-svg__house js-s3d-svg__house" points="1472.3333333333,688.66666666667,1351.3333333333,678.33333333333,1346.3333333333,709.66666666667,1468.3333333333,720.66666666667"></polygon><polygon data-id="190" data-sec="C" data-build="1" data-floor="14" data-type_poly="flat" class="s3d-svg__house js-s3d-svg__house" points="1635,703,1640.6666666667,670,1551.6666666667,663,1547,694.66666666667"></polygon><polygon data-id="191" data-sec="C" data-build="1" data-floor="14" data-type_poly="flat" class="s3d-svg__house js-s3d-svg__house" points="1551.6666666667,663,1477,656.66666666667,1472.3333333333,688.66666666667,1547,694.66666666667"></polygon><polygon data-id="192" data-sec="C" data-build="1" data-floor="14" data-type_poly="flat" class="s3d-svg__house js-s3d-svg__house" points="1477,656.66666666667,1354,646,1351.3333333333,678.33333333333,1472.3333333333,688.66666666667"></polygon><polygon data-id="196" data-sec="C" data-build="1" data-floor="15" data-type_poly="flat" class="s3d-svg__house js-s3d-svg__house" points="1640.6666666667,670,1646.3333333333,637.33333333333,1556.6666666667,629.66666666667,1551.6666666667,663"></polygon><polygon data-id="197" data-sec="C" data-build="1" data-floor="15" data-type_poly="flat" class="s3d-svg__house js-s3d-svg__house" points="1556.6666666667,629.66666666667,1481,624,1477,656.66666666667,1551.6666666667,663"></polygon><polygon data-id="198" data-sec="C" data-build="1" data-floor="15" data-type_poly="flat" class="s3d-svg__house js-s3d-svg__house" points="1481,624,1358,613.66666666667,1354,646,1477,656.66666666667"></polygon><polygon data-id="202" data-sec="C" data-build="1" data-floor="16" data-type_poly="flat" class="s3d-svg__house js-s3d-svg__house" points="1646.3333333333,637.33333333333,1652,603,1562,596.66666666667,1556.6666666667,629.66666666667"></polygon><polygon data-id="203" data-sec="C" data-build="1" data-floor="16" data-type_poly="flat" class="s3d-svg__house js-s3d-svg__house" points="1562,596.66666666667,1485.3333333333,591,1481,624,1556.6666666667,629.66666666667"></polygon><polygon data-id="204" data-sec="C" data-build="1" data-floor="16" data-type_poly="flat" class="s3d-svg__house js-s3d-svg__house" points="1485.3333333333,591,1360.6666666667,580.33333333333,1358,613.66666666667,1481,624"></polygon><polygon data-id="208" data-sec="C" data-build="1" data-floor="17" data-type_poly="flat" class="s3d-svg__house js-s3d-svg__house" points="1652,603,1658,569,1567,563,1562,596.66666666667"></polygon><polygon data-id="209" data-sec="C" data-build="1" data-floor="17" data-type_poly="flat" class="s3d-svg__house js-s3d-svg__house" points="1567,563,1489.6666666667,556.33333333333,1485.3333333333,591,1562,596.66666666667"></polygon><polygon data-id="210" data-sec="C" data-build="1" data-floor="17" data-type_poly="flat" class="s3d-svg__house js-s3d-svg__house" points="1489.6666666667,556.33333333333,1363.6666666667,547,1360.6666666667,580.33333333333,1485.3333333333,591"></polygon></svg>