<svg  viewBox="0 0 1920 1080" version="1.0" xmlns="http://www.w3.org/2000/svg"  preserveAspectRatio="xMidYMid slice">
	<polygon data-id="230" data-sec="1" data-build="1" data-floor="3" class="s3d-svg__house js-s3d-svg__house" points="1042.3333333333,695.33333333333,1041,757.33333333333,961.66666666667,790.66666666667,955.66666666667,793.66666666667,951.33333333333,794.33333333333,948,794.66666666667,945.33333333333,795,940.66666666667,795.33333333333,934.66666666667,795.33333333333,928,794.66666666667,749,752.66666666667,745.33333333333,749,747,745.66666666667,748.33333333333,743.66666666667,749,740.66666666667,746,739,745,736.33333333333,745.66666666667,733.66666666667,747.66666666667,732.33333333333,748.33333333333,731.33333333333,751.33333333333,730.66666666667,752.66666666667,730.66666666667,753.33333333333,730.66666666667,753.66666666667,692.33333333333,923.33333333333,728.33333333333,933.66666666667,729.33333333333,939,730,943.33333333333,730,946.33333333333,730,951,730.33333333333,959.66666666667,728,1040,695.66666666667"></polygon>
	<polygon data-id="233" data-sec="1" data-build="1" data-floor="3" class="s3d-svg__house js-s3d-svg__house" points="1079.6666666667,678.33333333333,1081.6666666667,741.66666666667,1094.6666666667,737,1160,710.33333333333,1174.6666666667,704.66666666667,1181,700.33333333333,1182.3333333333,698,1181,695,1180.3333333333,693,1180.6666666667,691.33333333333,1181.6666666667,689.33333333333,1183,689.33333333333,1183.3333333333,686.66666666667,1181.6666666667,684.33333333333,1178.6666666667,682.66666666667,1175.3333333333,681,1176.3333333333,645.33333333333"></polygon>
	<polygon data-id="234" data-sec="1" data-build="1" data-floor="4" class="s3d-svg__house js-s3d-svg__house" points="1042.6666666667,636.33333333333,1041.6666666667,693.66666666667,970.66666666667,722.33333333333,962,725.33333333333,959.33333333333,727,956.33333333333,727.33333333333,954,728.33333333333,951,729,949.66666666667,729,946.33333333333,729.33333333333,940.33333333333,729,934.33333333333,729,923.33333333333,727,750,691,745,688.66666666667,743.66666666667,686.66666666667,743.66666666667,684,744.33333333333,681.66666666667,743.33333333333,679,743,677.33333333333,744,675,748.33333333333,671.33333333333,751.66666666667,670.33333333333,752.33333333333,633.66666666667,913.33333333333,663.66666666667,928,666.66666666667,934.33333333333,667.33333333333,940.66666666667,667.66666666667,946.66666666667,667.66666666667,956,666.66666666667,963.33333333333,664.33333333333"></polygon>
	<polygon data-id="237" data-sec="1" data-build="1" data-floor="4" class="s3d-svg__house js-s3d-svg__house" points="1080.3333333333,621.33333333333,1079.3333333333,678,1178.6666666667,644.33333333333,1181,643.33333333333,1183.3333333333,641.66666666667,1183.3333333333,640.66666666667,1183.3333333333,639.33333333333,1183.3333333333,638.66666666667,1183,637.33333333333,1183,633.66666666667,1183,633.33333333333,1182,631.33333333333,1180,630.33333333333,1176,629,1175.3333333333,628.66666666667,1176.6666666667,590.66666666667,1176,589.66666666667,1134,603.33333333333"></polygon>
	<polygon data-id="238" data-sec="1" data-build="1" data-floor="5" class="s3d-svg__house js-s3d-svg__house" points="1042,576.33333333333,1042.6666666667,635.66666666667,965.66666666667,663,960.33333333333,665.33333333333,954.33333333333,666.66666666667,946.33333333333,666.66666666667,932.33333333333,666.66666666667,913.33333333333,663,748.33333333333,632.33333333333,744,631,744,629.33333333333,744,627.33333333333,744.33333333333,623.66666666667,744.33333333333,620,745.33333333333,616.66666666667,746.33333333333,615.66666666667,747.66666666667,614.33333333333,750.33333333333,613.33333333333,750.66666666667,573.66666666667,926,604.66666666667,937,605.66666666667,946.33333333333,605.66666666667,955.33333333333,604.66666666667,965,601.66666666667,1030.3333333333,579.33333333333,1040.3333333333,576.66666666667"></polygon>
	<polygon data-id="241" data-sec="1" data-build="1" data-floor="5" class="s3d-svg__house js-s3d-svg__house" points="1080.6666666667,566,1080.6666666667,620,1179.3333333333,587.66666666667,1182,586.66666666667,1183.6666666667,583.66666666667,1185.6666666667,580.66666666667,1185.6666666667,578,1185,576.66666666667,1182.3333333333,574.66666666667,1179.3333333333,574,1178.6666666667,573.66666666667,1176.6666666667,574.66666666667,1174.6666666667,536.33333333333"></polygon>
	<polygon data-id="242" data-sec="1" data-build="1" data-floor="6" class="s3d-svg__house js-s3d-svg__house" points="1044,514.33333333333,1041.3333333333,575,958,602.66666666667,942.33333333333,604.66666666667,924.66666666667,604.33333333333,746,572.66666666667,741.33333333333,570.33333333333,740.66666666667,569.33333333333,740.66666666667,566.66666666667,741,560.33333333333,743.33333333333,558,746.66666666667,556,748.66666666667,555,749.33333333333,513.33333333333,922.66666666667,541,944.66666666667,542,958,539.66666666667,975.66666666667,533.66666666667,1015.6666666667,522.33333333333,1039.6666666667,515.33333333333"></polygon>
	<polygon data-id="245" data-sec="1" data-build="1" data-floor="6" class="s3d-svg__house js-s3d-svg__house" points="1082,505,1081.3333333333,564.66666666667,1180.3333333333,533.66666666667,1182.6666666667,533,1186,531.66666666667,1187.3333333333,529.33333333333,1187.3333333333,525.33333333333,1187,522.66666666667,1183.3333333333,521,1177,522,1175,522.66666666667,1175,480.66666666667"></polygon>
	<polygon data-id="253" data-sec="1" data-build="1" data-floor="8"
			 class="s3d-svg__house js-s3d-svg__house"
			 points="1071.4666646322,385,1071.4666646322,385,1072.4666646322,445,1072.4666646322,445,1082.4666646322,446.33333333333,1082.4666646322,446.33333333333,1179.4666646322,422.66666666667,1179.4666646322,422.66666666667,1188.1333312988,421,1188.1333312988,421,1190.4666646322,416.33333333333,1190.4666646322,416.33333333333,1189.4666646322,411.33333333333,1189.4666646322,411.33333333333,1185.4666646322,409,1185.4666646322,409,1180.4666646322,408.66666666667,1180.4666646322,408.66666666667,1181.7999979655,365,1181.7999979655,365,1084.7999979655,384.33333333333,1084.7999979655,384.33333333333"></polygon>
	<polygon data-id="250" data-sec="1" data-build="1" data-floor="8"
			 class="s3d-svg__house js-s3d-svg__house"
			 points="1044.7999979655,392,1044.7999979655,392,1044.7999979655,454.66666666667,1044.7999979655,454.66666666667,956.79999796549,475.66666666667,956.79999796549,475.66666666667,944.79999796549,477,944.79999796549,477,932.13333129883,477.66666666667,932.13333129883,477.66666666667,752.79999796549,451.66666666667,752.79999796549,451.66666666667,741.46666463216,450.33333333333,741.46666463216,450.33333333333,738.13333129883,447.33333333333,738.13333129883,447.33333333333,736.46666463216,440.66666666667,736.46666463216,440.66666666667,743.46666463216,436,743.46666463216,436,747.46666463216,434,747.46666463216,434,746.13333129883,391,746.13333129883,391,922.46666463216,410.33333333333,922.46666463216,410.33333333333,940.13333129883,411,940.13333129883,411,951.79999796549,411,951.79999796549,411,965.46666463216,408.66666666667,965.46666463216,408.66666666667"></polygon>
	<polygon data-id="249" data-sec="1" data-build="1" data-floor="7"
			 class="s3d-svg__house js-s3d-svg__house"
			 points="1071.1333312988,446,1071.1333312988,446,1071.7999979655,503.66666666667,1071.7999979655,503.66666666667,1080.1333312988,505.33333333333,1080.1333312988,505.33333333333,1096.7999979655,501,1096.7999979655,501,1121.1333312988,493.66666666667,1121.1333312988,493.66666666667,1143.1333312988,488.33333333333,1143.1333312988,488.33333333333,1161.7999979655,482.33333333333,1161.7999979655,482.33333333333,1180.7999979655,478,1180.7999979655,478,1187.4666646322,475,1187.4666646322,475,1185.4666646322,466.66666666667,1185.4666646322,466.66666666667,1177.7999979655,463.66666666667,1177.7999979655,463.66666666667,1175.4666646322,465,1175.4666646322,465,1175.4666646322,424.66666666667,1175.4666646322,424.66666666667,1082.1333312988,446.33333333333,1082.1333312988,446.33333333333"></polygon>
	<polygon data-id="246" data-sec="1" data-build="1" data-floor="7"
			 class="s3d-svg__house js-s3d-svg__house"
			 points="1045.1999969482,455.40002441406,1045.1999969482,516.40002441406,959.19999694824,539.40002441406,946.19999694824,541.40002441406,931.69999694824,541.40002441406,912.69999694824,538.40002441406,750.69999694824,513.40002441406,743.69999694824,512.40002441406,739.69999694824,510.40002441406,739.69999694824,505.40002441406,739.69999694824,500.90002441406,744.19999694824,496.40002441406,747.69999694824,495.90002441406,747.19999694824,453.90002441406,930.69999694824,477.90002441406,944.19999694824,477.40002441406,956.19999694824,475.40002441406"></polygon>
	<polygon data-id="254" data-sec="1" data-build="1" data-floor="9" class="s3d-svg__house js-s3d-svg__house" points="1047.1999969482,328.5,1046.6999969482,393,953.19999694824,411.5,939.19999694824,412.5,928.19999694824,411.5,739.19999694824,390,737.19999694824,388.5,736.19999694824,379,746.19999694824,376,745.69999694824,328,929.19999694824,346,958.19999694824,344.5"></polygon>
	<polygon data-id="151" data-sec="1" data-build="1" data-floor="9" class="s3d-svg__house js-s3d-svg__house" points="1071.1999969482,326,1072.6999969482,384.5,1184.1999969482,363.5,1188.6999969482,363.5,1189.1999969482,354.5,1184.1999969482,351.5,1182.6999969482,306"></polygon>
	<polygon data-id="156" data-sec="1" data-build="1" data-floor="10" class="s3d-svg__house js-s3d-svg__house" points="1047.1999969482,328.5,958.19999694824,345,929.19999694824,346,736.69999694824,326.5,735.69999694824,317.5,744.69999694824,314.5,743.69999694824,256,917.19999694824,268.5,943.19999694824,269,966.19999694824,267.5,1045.6999969482,258"></polygon>
	<polygon data-id="154" data-sec="1" data-build="1" data-floor="10" class="s3d-svg__house js-s3d-svg__house" points="1072.6999969482,254.5,1071.1999969482,326,1187.6999969482,306.5,1191.1999969482,305.5,1192.1999969482,297.5,1193.1999969482,239.5"></polygon>
</svg>
