<svg id="floor--svg"  viewBox="0 0 1920 1080" version="1.0" xmlns="http://www.w3.org/2000/svg" preserveAspectRatio="xMidYMid slice">
	<polygon data-id="30" data-sec="1" data-build="1" data-floor="3" class="s3d-svg__house js-s3d-svg__house" points="1143.5,642.25,1144,691.75,1148.75,688.25,1152.5,686,1156.5,682.75,1159.25,680,1158.5,674.5,1158.25,671.5,1158.25,668.75,1157,663.75,1154.5,663.75,1152,663.5,1151.75,638"></polygon>
	<polygon data-id="33" data-sec="1" data-build="1" data-floor="3" class="s3d-svg__house js-s3d-svg__house" points="971.5,753,971.75,806.75,965.5,810.5,960.25,813.75,953.25,816.5,946.75,817.75,940.5,818.5,932.25,818.5,926.25,816.75,920,814,743,709.75,738.75,706.5,737.75,702.75,738.5,698.75,736.5,694.75,737,691.25,739,688.5,742.25,686.25,745.25,685,744,662,911,755.25,916.25,757.75,920.75,760,925.25,761.5,928.5,762.5,933,762.5,937.5,764,944.25,763.25,950.75,761.75,955.75,760.5,964.5,757.5"></polygon>
	<polygon data-id="34" data-sec="1" data-build="1" data-floor="4" class="s3d-svg__house js-s3d-svg__house" points="1143.5,596.25,1143.5,642,1154.5,635.25,1158.75,632.25,1160.25,628.75,1161,623.75,1159.5,618.25,1158.5,615,1155.5,615,1154.25,614.75,1151,591.75"></polygon>
	<polygon data-id="35" data-sec="1" data-build="1" data-floor="4" class="s3d-svg__house js-s3d-svg__house" points="1064.25,645,1062.75,694.25,1143,642,1143.75,595.75"></polygon>
	<polygon data-id="36" data-sec="1" data-build="1" data-floor="4" class="s3d-svg__house js-s3d-svg__house" points="972.5,701,972,752,1062,693.5,1063.5,645.25"></polygon>
	<polygon data-id="37" data-sec="1" data-build="1" data-floor="4" class="s3d-svg__house js-s3d-svg__house" points="972.25,701.25,971.5,751.75,963,757.75,954,761,944,762.75,936.25,762.75,928.25,761.75,920.5,759.75,912.25,755.25,743.75,661.25,736.75,656.75,734.5,652.25,734.5,648,734.5,643.75,737.25,640.25,742,638.75,743,638.25,743,614,916.25,706.75,921.75,710,927,711.5,935.75,713.5,942.75,714.75,948,713.5,953.5,713.25,961.25,708.75"></polygon>
	<polygon data-id="38" data-sec="1" data-build="1" data-floor="5" class="s3d-svg__house js-s3d-svg__house" points="1141.25,549.75,1143.5,596.5,1148.25,593,1153.25,589.5,1157.5,586.75,1161.5,584.75,1163,582,1163.25,579.5,1162.75,576,1163.25,573,1162,570.75,1157,567.75,1152.5,566.25,1154,542.5"></polygon>
	<polygon data-id="40" data-sec="1" data-build="1" data-floor="5" class="s3d-svg__house js-s3d-svg__house" points="971.75,648.75,973.5,700.5,1064,644.25,1063.25,595.25"></polygon>
	<polygon data-id="41" data-sec="1" data-build="1" data-floor="5" class="s3d-svg__house js-s3d-svg__house" points="971.75,649.5,972.75,700.5,961.75,707.5,954.5,711,944.75,713,935.5,713,928.5,711.5,921.75,709.5,916.25,706,736.25,609.5,734,605.75,733,601.75,733,597.75,733,594.5,736.5,592,740,590,740.5,590,740.25,565,912.25,652.5,917.25,655.75,925,659.5,930.25,660.75,935.5,660.5,941.75,659.75,951.75,658.75,960.25,655.75"></polygon>
	<polygon data-id="42" data-sec="1" data-build="1" data-floor="6" class="s3d-svg__house js-s3d-svg__house" points="1139.5,502,1140.5,550,1158.75,540,1162,537.75,1165.25,535.5,1166.25,531.75,1165.5,527.75,1165.5,524.75,1163.75,521.5,1159.5,519.5,1157.75,518.25,1158,492"></polygon>
	<polygon data-id="43" data-sec="1" data-build="1" data-floor="6" class="s3d-svg__house js-s3d-svg__house" points="1060.3333333333,545.33333333333,1061.3333333333,596,1140.6666666667,549.66666666667,1139.3333333333,501.66666666667"></polygon>
	<polygon data-id="45" data-sec="1" data-build="1" data-floor="6" class="s3d-svg__house js-s3d-svg__house" points="970.75,595.75,971.5,649.25,963.25,653.25,957.25,656.75,948.25,658.75,938.25,659.5,933,660,926,659.25,917.5,655.5,911.75,652.25,740.25,564,735.25,561.5,731,558.5,729.75,556,730.25,553,729.5,548.75,731,546.25,734.25,544,738.75,542.5,738.25,514,921.25,602.5,925.25,603.25,929.5,604.25,932.5,604.75,940.75,603.75,945,603.75,950.5,603.5,960.75,600.5"></polygon>
	<polygon data-id="31" data-sec="1" data-build="1" data-floor="3" class="s3d-svg__house js-s3d-svg__house" points="1061.75,694.5,1062,746.25,1143.75,691.25,1144,642.75"></polygon>
	<polygon data-id="32" data-sec="1" data-build="1" data-floor="3" class="s3d-svg__house js-s3d-svg__house" points="971.25,752.5,972,806.25,1061.75,746.25,1061.75,694.5"></polygon>
	<polygon data-id="39" data-sec="1" data-build="1" data-floor="5" class="s3d-svg__house js-s3d-svg__house" points="1063,594.75,1064.5,644.5,1142.75,596.25,1141.25,550.25"></polygon>
	<polygon data-id="44" data-sec="1" data-build="1" data-floor="6" class="s3d-svg__house js-s3d-svg__house" points="971,595.5,972,649,1062,595,1060.75,545"></polygon>

	<polygon data-id="53" data-sec="1" data-build="1" data-floor="8"
			 class="s3d-svg__house js-s3d-svg__house"
			 points="970.69999694824,485,970.69999694824,485,974.19999694824,539.5,974.19999694824,539.5,962.69999694824,546,962.69999694824,546,952.69999694824,549.5,952.69999694824,549.5,944.69999694824,549.5,944.69999694824,549.5,928.69999694824,550,928.69999694824,550,918.19999694824,545.5,918.19999694824,545.5,730.69999694824,460.5,730.69999694824,460.5,725.69999694824,456,725.69999694824,456,725.69999694824,447.5,725.69999694824,447.5,727.19999694824,445,727.19999694824,445,732.19999694824,442,732.19999694824,442,735.19999694824,442,735.19999694824,442,734.19999694824,410.5,734.19999694824,410.5,910.69999694824,487.5,910.69999694824,487.5,921.19999694824,491,921.19999694824,491,933.19999694824,493.5,933.19999694824,493.5,953.19999694824,492,953.19999694824,492"></polygon>
	<polygon data-id="52" data-sec="1" data-build="1" data-floor="8"
			 class="s3d-svg__house js-s3d-svg__house"
			 points="971.69999694824,485,971.69999694824,485,975.19999694824,541,975.19999694824,541,1062.1999969482,492.5,1062.1999969482,492.5,1058.6999969482,441.5,1058.6999969482,441.5"></polygon>
	<polygon data-id="51" data-sec="1" data-build="1" data-floor="8"
			 class="s3d-svg__house js-s3d-svg__house"
			 points="1059.1999969482,441,1059.1999969482,441,1063.1999969482,493.5,1063.1999969482,493.5,1140.6999969482,451.5,1140.6999969482,451.5,1138.1999969482,401.5,1138.1999969482,401.5"></polygon>
	<polygon data-id="50" data-sec="1" data-build="1" data-floor="8"
			 class="s3d-svg__house js-s3d-svg__house"
			 points="1138.1999969482,401.5,1138.1999969482,401.5,1141.1999969482,451.5,1141.1999969482,451.5,1167.1999969482,439,1167.1999969482,439,1169.1999969482,435,1169.1999969482,435,1170.6999969482,425.5,1170.6999969482,425.5,1165.1999969482,421.5,1165.1999969482,421.5,1164.1999969482,389.5,1164.1999969482,389.5"></polygon>
	<polygon data-id="49" data-sec="1" data-build="1" data-floor="7"
			 class="s3d-svg__house js-s3d-svg__house"
			 points="974.69999694824,541,974.69999694824,541,976.69999694824,593,976.69999694824,593,965.19999694824,599.5,965.19999694824,599.5,955.19999694824,603.5,955.19999694824,603.5,942.69999694824,606.5,942.69999694824,606.5,930.69999694824,605,930.69999694824,605,919.19999694824,601.5,919.19999694824,601.5,733.19999694824,512.5,733.19999694824,512.5,728.69999694824,507,728.69999694824,507,727.69999694824,502.5,727.69999694824,502.5,728.69999694824,499,728.69999694824,499,732.19999694824,495.5,732.19999694824,495.5,737.19999694824,494.5,737.19999694824,494.5,736.19999694824,464.5,736.19999694824,464.5,918.69999694824,546,918.69999694824,546,929.19999694824,551.5,929.19999694824,551.5,945.19999694824,551.5,945.19999694824,551.5,953.19999694824,550,953.19999694824,550,963.69999694824,547.5,963.69999694824,547.5"></polygon>
	<polygon data-id="48" data-sec="1" data-build="1" data-floor="7"
			 class="s3d-svg__house js-s3d-svg__house"
			 points="975.19999694824,541,975.19999694824,541,977.19999694824,594.5,977.19999694824,594.5,1064.1999969482,543.5,1064.1999969482,543.5,1063.1999969482,492.5,1063.1999969482,492.5"></polygon>
	<polygon data-id="47" data-sec="1" data-build="1" data-floor="7"
			 class="s3d-svg__house js-s3d-svg__house"
			 points="1063.1999969482,494,1063.1999969482,494,1065.1999969482,545.5,1065.1999969482,545.5,1143.1999969482,502,1143.1999969482,502,1141.6999969482,451.5,1141.6999969482,451.5"></polygon>
	<polygon data-id="46" data-sec="1" data-build="1" data-floor="7"
			 class="s3d-svg__house js-s3d-svg__house"
			 points="1140.6999969482,453,1140.6999969482,453,1143.6999969482,503,1143.6999969482,503,1160.6999969482,492,1160.6999969482,492,1165.1999969482,489,1165.1999969482,489,1167.6999969482,486,1167.6999969482,486,1169.1999969482,479.5,1169.1999969482,479.5,1167.1999969482,475.5,1167.1999969482,475.5,1160.1999969482,472,1160.1999969482,472,1162.1999969482,443.5,1162.1999969482,443.5"></polygon>

	<polygon data-id="15139" data-sec="1" data-build="1" data-floor="9" class="s3d-svg__house js-s3d-svg__house" points="974.19999694824,424,975.69999694824,482,952.69999694824,491.5,926.19999694824,493,909.69999694824,485.5,723.19999694824,402.5,722.19999694824,396.5,723.19999694824,391.5,721.69999694824,349.5,915.19999694824,431,935.19999694824,435.5,957.19999694824,430.5"></polygon>
	<polygon data-id="15138" data-sec="1" data-build="1" data-floor="9" class="s3d-svg__house js-s3d-svg__house" points="974.69999694824,424.5,975.69999694824,484,1057.1999969482,440.5,1058.1999969482,387.5"></polygon>
	<polygon data-id="54" data-sec="1" data-build="1" data-floor="9" class="s3d-svg__house js-s3d-svg__house" points="1058.6999969482,386.5,1057.1999969482,441,1171.6999969482,385.5,1173.1999969482,375,1168.6999969482,371.5,1164.1999969482,368,1164.1999969482,337"></polygon>
	<polygon data-id="15141" data-sec="1" data-build="1" data-floor="10" class="s3d-svg__house js-s3d-svg__house" points="1055.1999969482,323.5,1059.1999969482,389,957.69999694824,431,935.19999694824,437,913.69999694824,431,721.19999694824,351,719.19999694824,342.5,722.69999694824,337.5,721.19999694824,290.5,917.19999694824,363,933.19999694824,367.5,955.19999694824,367.5"></polygon>
	<polygon data-id="56" data-sec="1" data-build="1" data-floor="10" class="s3d-svg__house js-s3d-svg__house" points="1055.1999969482,324,1058.1999969482,387.5,1166.6999969482,336.5,1171.6999969482,332,1174.1999969482,331,1172.6999969482,322,1169.6999969482,318,1170.6999969482,275.5"></polygon>

</svg>
