<svg preserveAspectRatio="xMidYMid slice" id="floor--svg"  viewBox="0 0 1920 1080" version="1.0" xmlns="http://www.w3.org/2000/svg"><polygon data-id="142" data-sec="C" data-build="1" data-floor="6" data-type_poly="flat" class="s3d-svg__house js-s3d-svg__house" points="462.33333333333,1003.3333333333,465.66666666667,1036.3333333333,570.66666666667,1056,567.66666666667,1023.3333333333"></polygon><polygon data-id="141" data-sec="C" data-build="1" data-floor="6" data-type_poly="flat" class="s3d-svg__house js-s3d-svg__house" points="567.66666666667,1023.3333333333,652.33333333333,1041.6666666667,655,1073,570.66666666667,1056"></polygon><polygon data-id="148" data-sec="C" data-build="1" data-floor="7" data-type_poly="flat" class="s3d-svg__house js-s3d-svg__house" points="462.33333333333,1003.3333333333,462.33333333333,1003.3333333333,458,971.66666666667,458,971.66666666667,564.66666666667,992.33333333333,564.66666666667,992.33333333333,567.66666666667,1023.3333333333,567.66666666667,1023.3333333333"></polygon><polygon data-id="147" data-sec="C" data-build="1" data-floor="7" data-type_poly="flat" class="s3d-svg__house js-s3d-svg__house" points="652.33333333333,1041.6666666667,652.33333333333,1041.6666666667,650,1008.6666666667,650,1008.6666666667,564.66666666667,992.33333333333,564.66666666667,992.33333333333,567.66666666667,1023.3333333333,567.66666666667,1023.3333333333"></polygon><polygon data-id="154" data-sec="C" data-build="1" data-floor="8" data-type_poly="flat" class="s3d-svg__house js-s3d-svg__house" points="564.66666666667,992.33333333333,564.66666666667,992.33333333333,561.33333333333,958.33333333333,561.33333333333,958.33333333333,454.66666666667,938.33333333333,454.66666666667,938.33333333333,458,971.66666666667,458,971.66666666667"></polygon><polygon data-id="153" data-sec="C" data-build="1" data-floor="8" data-type_poly="flat" class="s3d-svg__house js-s3d-svg__house" points="650,1008.6666666667,650,1008.6666666667,646.66666666667,975.33333333333,646.66666666667,975.33333333333,561.33333333333,958.33333333333,561.33333333333,958.33333333333,564.66666666667,992.33333333333,564.66666666667,992.33333333333"></polygon><polygon data-id="160" data-sec="C" data-build="1" data-floor="9" data-type_poly="flat" class="s3d-svg__house js-s3d-svg__house" points="454.66666666667,938.33333333333,454.66666666667,938.33333333333,449.66666666667,905.33333333333,449.66666666667,905.33333333333,557.33333333333,923.66666666667,557.33333333333,923.66666666667,561.33333333333,958.33333333333,561.33333333333,958.33333333333"></polygon><polygon data-id="159" data-sec="C" data-build="1" data-floor="9" data-type_poly="flat" class="s3d-svg__house js-s3d-svg__house" points="646.66666666667,975.33333333333,646.66666666667,975.33333333333,644.66666666667,941.33333333333,644.66666666667,941.33333333333,557.33333333333,923.66666666667,557.33333333333,923.66666666667,561.33333333333,958.33333333333,561.33333333333,958.33333333333"></polygon><polygon data-id="166" data-sec="C" data-build="1" data-floor="10" data-type_poly="flat" class="s3d-svg__house js-s3d-svg__house" points="449.66666666667,905.33333333333,449.66666666667,905.33333333333,445.33333333333,871.33333333333,445.33333333333,871.33333333333,554.66666666667,891,554.66666666667,891,557.33333333333,923.66666666667,557.33333333333,923.66666666667"></polygon><polygon data-id="165" data-sec="C" data-build="1" data-floor="10" data-type_poly="flat" class="s3d-svg__house js-s3d-svg__house" points="644.66666666667,941.33333333333,644.66666666667,941.33333333333,641,906.66666666667,641,906.66666666667,554.66666666667,891,554.66666666667,891,557.33333333333,923.66666666667,557.33333333333,923.66666666667"></polygon><polygon data-id="172" data-sec="C" data-build="1" data-floor="11" data-type_poly="flat" class="s3d-svg__house js-s3d-svg__house" points="445.33333333333,871.33333333333,445.33333333333,871.33333333333,441.33333333333,836.66666666667,441.33333333333,836.66666666667,551.33333333333,856,551.33333333333,856,554.66666666667,891,554.66666666667,891"></polygon><polygon data-id="171" data-sec="C" data-build="1" data-floor="11" data-type_poly="flat" class="s3d-svg__house js-s3d-svg__house" points="551.33333333333,856,551.33333333333,856,638.66666666667,871,638.66666666667,871,641,906.66666666667,641,906.66666666667,554.66666666667,891,554.66666666667,891"></polygon><polygon data-id="178" data-sec="C" data-build="1" data-floor="12" data-type_poly="flat" class="s3d-svg__house js-s3d-svg__house" points="441.33333333333,836.66666666667,441.33333333333,836.66666666667,437,803,437,803,548,821.33333333333,548,821.33333333333,551.33333333333,856,551.33333333333,856"></polygon><polygon data-id="177" data-sec="C" data-build="1" data-floor="12" data-type_poly="flat" class="s3d-svg__house js-s3d-svg__house" points="638.66666666667,871,638.66666666667,871,636,835.66666666667,636,835.66666666667,548,821.33333333333,548,821.33333333333,551.33333333333,856,551.33333333333,856"></polygon><polygon data-id="184" data-sec="C" data-build="1" data-floor="13" data-type_poly="flat" class="s3d-svg__house js-s3d-svg__house" points="437,803,437,803,432.33333333333,767,432.33333333333,767,544.33333333333,785.33333333333,544.33333333333,785.33333333333,548,821.33333333333,548,821.33333333333"></polygon><polygon data-id="183" data-sec="C" data-build="1" data-floor="13" data-type_poly="flat" class="s3d-svg__house js-s3d-svg__house" points="544.33333333333,785.33333333333,544.33333333333,785.33333333333,633.33333333333,799.33333333333,633.33333333333,799.33333333333,636,835.66666666667,636,835.66666666667,548,821.33333333333,548,821.33333333333"></polygon><polygon data-id="190" data-sec="C" data-build="1" data-floor="14" data-type_poly="flat" class="s3d-svg__house js-s3d-svg__house" points="432.33333333333,767,432.33333333333,767,428,731.66666666667,428,731.66666666667,541.33333333333,748.66666666667,541.33333333333,748.66666666667,544.33333333333,785.33333333333,544.33333333333,785.33333333333"></polygon><polygon data-id="189" data-sec="C" data-build="1" data-floor="14" data-type_poly="flat" class="s3d-svg__house js-s3d-svg__house" points="541.33333333333,748.66666666667,541.33333333333,748.66666666667,630.66666666667,762.33333333333,630.66666666667,762.33333333333,633.33333333333,799.33333333333,633.33333333333,799.33333333333,544.33333333333,785.33333333333,544.33333333333,785.33333333333"></polygon><polygon data-id="196" data-sec="C" data-build="1" data-floor="15" data-type_poly="flat" class="s3d-svg__house js-s3d-svg__house" points="428,731.66666666667,428,731.66666666667,423.66666666667,694.66666666667,423.66666666667,694.66666666667,537.33333333333,711,537.33333333333,711,541.33333333333,748.66666666667,541.33333333333,748.66666666667"></polygon><polygon data-id="195" data-sec="C" data-build="1" data-floor="15" data-type_poly="flat" class="s3d-svg__house js-s3d-svg__house" points="630.66666666667,762.33333333333,630.66666666667,762.33333333333,627.66666666667,724.66666666667,627.66666666667,724.66666666667,537.33333333333,711,537.33333333333,711,541.33333333333,748.66666666667,541.33333333333,748.66666666667"></polygon><polygon data-id="202" data-sec="C" data-build="1" data-floor="16" data-type_poly="flat" class="s3d-svg__house js-s3d-svg__house" points="423.66666666667,694.66666666667,423.66666666667,694.66666666667,419,656.66666666667,419,656.66666666667,533.66666666667,672.33333333333,533.66666666667,672.33333333333,537.33333333333,711,537.33333333333,711"></polygon><polygon data-id="207" data-sec="C" data-build="1" data-floor="17" data-type_poly="flat" class="s3d-svg__house js-s3d-svg__house" points="624.66666666667,686.33333333333,621,647,529.66666666667,634.66666666667,533.66666666667,672.33333333333"></polygon><polygon data-id="201" data-sec="C" data-build="1" data-floor="16" data-type_poly="flat" class="s3d-svg__house js-s3d-svg__house" points="533.66666666667,672.33333333333,533.66666666667,672.33333333333,624.66666666667,686.33333333333,624.66666666667,686.33333333333,627.66666666667,724.66666666667,627.66666666667,724.66666666667,537.33333333333,711,537.33333333333,711"></polygon><polygon data-id="208" data-sec="C" data-build="1" data-floor="17" data-type_poly="flat" class="s3d-svg__house js-s3d-svg__house" points="419,656.66666666667,414.33333333333,618,529.66666666667,634.66666666667,533.66666666667,672.33333333333"></polygon></svg>