<svg preserveAspectRatio="xMidYMid slice" id="floor--svg"  viewBox="0 0 1920 1080" version="1.0" xmlns="http://www.w3.org/2000/svg"><polygon data-id="138" data-sec="C" data-build="1" data-floor="5" data-type_poly="flat" class="s3d-svg__house js-s3d-svg__house" points="1192,588,1192,588,1284.3333333333,564.66666666667,1284.3333333333,564.66666666667,1281,592,1281,592,1189.6666666667,616.66666666667,1189.6666666667,616.66666666667,1146.3333333333,590.66666666667,1146.3333333333,590.66666666667,1148.3333333333,564,1148.3333333333,564"></polygon><polygon data-id="139" data-sec="C" data-build="1" data-floor="5" data-type_poly="flat" class="s3d-svg__house js-s3d-svg__house" points="1124.6666666667,581.66666666667,1124.6666666667,581.66666666667,1125.3333333333,552.33333333333,1125.3333333333,552.33333333333,1086,528.33333333333,1086,528.33333333333,1085.3333333333,555.33333333333,1085.3333333333,555.33333333333"></polygon><polygon data-id="137" data-sec="C" data-build="1" data-floor="5" data-type_poly="flat" class="s3d-svg__house js-s3d-svg__house" points="1281,592,1281,592,1284.3333333333,564.66666666667,1284.3333333333,564.66666666667,1338.3333333333,550.33333333333,1338.3333333333,550.33333333333,1334.3333333333,577.33333333333,1334.3333333333,577.33333333333"></polygon><polygon data-id="136" data-sec="C" data-build="1" data-floor="5" data-type_poly="flat" class="s3d-svg__house js-s3d-svg__house" points="1334.3333333333,577.33333333333,1334.3333333333,577.33333333333,1338.3333333333,550.33333333333,1338.3333333333,550.33333333333,1399,535.33333333333,1399,535.33333333333,1394.6666666667,562.33333333333,1394.6666666667,562.33333333333"></polygon><polygon data-id="144" data-sec="C" data-build="1" data-floor="6" data-type_poly="flat" class="s3d-svg__house js-s3d-svg__house" points="1194.3333333333,560,1194.3333333333,560,1287.3333333333,536.66666666667,1287.3333333333,536.66666666667,1284.3333333333,564.66666666667,1284.3333333333,564.66666666667,1192,588,1192,588,1148.3333333333,564,1148.3333333333,564,1150,538.66666666667,1150,538.66666666667"></polygon><polygon data-id="143" data-sec="C" data-build="1" data-floor="6" data-type_poly="flat" class="s3d-svg__house js-s3d-svg__house" points="1287.3333333333,536.66666666667,1287.3333333333,536.66666666667,1341,523.66666666667,1341,523.66666666667,1338.3333333333,550.33333333333,1338.3333333333,550.33333333333,1284.3333333333,564.66666666667,1284.3333333333,564.66666666667"></polygon><polygon data-id="142" data-sec="C" data-build="1" data-floor="6" data-type_poly="flat" class="s3d-svg__house js-s3d-svg__house" points="1341,523.66666666667,1341,523.66666666667,1403,507.66666666667,1403,507.66666666667,1399,535.33333333333,1399,535.33333333333,1338.3333333333,550.33333333333,1338.3333333333,550.33333333333"></polygon><polygon data-id="145" data-sec="C" data-build="1" data-floor="6" data-type_poly="flat" class="s3d-svg__house js-s3d-svg__house" points="1125.3333333333,552.33333333333,1125.3333333333,552.33333333333,1127.6666666667,525,1127.6666666667,525,1086.6666666667,499.66666666667,1086.6666666667,499.66666666667,1086,528.33333333333,1086,528.33333333333"></polygon><polygon data-id="150" data-sec="C" data-build="1" data-floor="7" data-type_poly="flat" class="s3d-svg__house js-s3d-svg__house" points="1196.3333333333,530.33333333333,1196.3333333333,530.33333333333,1290.3333333333,508,1290.3333333333,508,1287.3333333333,536.66666666667,1287.3333333333,536.66666666667,1194.3333333333,560,1194.3333333333,560,1150,538.66666666667,1150,538.66666666667,1152,509.33333333333,1152,509.33333333333"></polygon><polygon data-id="149" data-sec="C" data-build="1" data-floor="7" data-type_poly="flat" class="s3d-svg__house js-s3d-svg__house" points="1290.3333333333,508,1290.3333333333,508,1345.3333333333,494.66666666667,1345.3333333333,494.66666666667,1341,523.66666666667,1341,523.66666666667,1287.3333333333,536.66666666667,1287.3333333333,536.66666666667"></polygon><polygon data-id="148" data-sec="C" data-build="1" data-floor="7" data-type_poly="flat" class="s3d-svg__house js-s3d-svg__house" points="1345.3333333333,494.66666666667,1345.3333333333,494.66666666667,1407,480,1407,480,1403,507.66666666667,1403,507.66666666667,1341,523.66666666667,1341,523.66666666667"></polygon><polygon data-id="151" data-sec="C" data-build="1" data-floor="7" data-type_poly="flat" class="s3d-svg__house js-s3d-svg__house" points="1127.6666666667,525,1127.6666666667,525,1130,497.33333333333,1130,497.33333333333,1087.3333333333,472.33333333333,1087.3333333333,472.33333333333,1086.6666666667,499.66666666667,1086.6666666667,499.66666666667"></polygon><polygon data-id="154" data-sec="C" data-build="1" data-floor="8" data-type_poly="flat" class="s3d-svg__house js-s3d-svg__house" points="1407,480,1407,480,1411,451.33333333333,1411,451.33333333333,1349,465.66666666667,1349,465.66666666667,1345.3333333333,494.66666666667,1345.3333333333,494.66666666667"></polygon><polygon data-id="155" data-sec="C" data-build="1" data-floor="8" data-type_poly="flat" class="s3d-svg__house js-s3d-svg__house" points="1349,465.66666666667,1349,465.66666666667,1292.3333333333,478.33333333333,1292.3333333333,478.33333333333,1290.3333333333,508,1290.3333333333,508,1345.3333333333,494.66666666667,1345.3333333333,494.66666666667"></polygon><polygon data-id="156" data-sec="C" data-build="1" data-floor="8" data-type_poly="flat" class="s3d-svg__house js-s3d-svg__house" points="1199.3333333333,500.33333333333,1199.3333333333,500.33333333333,1292.3333333333,478.33333333333,1292.3333333333,478.33333333333,1290.3333333333,508,1290.3333333333,508,1196.3333333333,530.33333333333,1196.3333333333,530.33333333333,1152,509.33333333333,1152,509.33333333333,1153.6666666667,477.66666666667,1153.6666666667,477.66666666667"></polygon><polygon data-id="157" data-sec="C" data-build="1" data-floor="8" data-type_poly="flat" class="s3d-svg__house js-s3d-svg__house" points="1130.6666666667,465.66666666667,1130.6666666667,465.66666666667,1089.6666666667,443.33333333333,1089.6666666667,443.33333333333,1087.3333333333,472.33333333333,1087.3333333333,472.33333333333,1130,497.33333333333,1130,497.33333333333"></polygon><polygon data-id="160" data-sec="C" data-build="1" data-floor="9" data-type_poly="flat" class="s3d-svg__house js-s3d-svg__house" points="1411,451.33333333333,1411,451.33333333333,1415.6666666667,421.66666666667,1415.6666666667,421.66666666667,1353.3333333333,435.33333333333,1353.3333333333,435.33333333333,1349,465.66666666667,1349,465.66666666667"></polygon><polygon data-id="161" data-sec="C" data-build="1" data-floor="9" data-type_poly="flat" class="s3d-svg__house js-s3d-svg__house" points="1294,449.33333333333,1294,449.33333333333,1353.3333333333,435.33333333333,1353.3333333333,435.33333333333,1349,465.66666666667,1349,465.66666666667,1292.3333333333,478.33333333333,1292.3333333333,478.33333333333"></polygon><polygon data-id="162" data-sec="C" data-build="1" data-floor="9" data-type_poly="flat" class="s3d-svg__house js-s3d-svg__house" points="1201,470.33333333333,1201,470.33333333333,1294,449.33333333333,1294,449.33333333333,1292.3333333333,478.33333333333,1292.3333333333,478.33333333333,1199.3333333333,500.33333333333,1199.3333333333,500.33333333333,1153.6666666667,477.66666666667,1153.6666666667,477.66666666667,1155.3333333333,447.33333333333,1155.3333333333,447.33333333333"></polygon><polygon data-id="163" data-sec="C" data-build="1" data-floor="9" data-type_poly="flat" class="s3d-svg__house js-s3d-svg__house" points="1130.6666666667,465.66666666667,1130.6666666667,465.66666666667,1132.3333333333,434.33333333333,1132.3333333333,434.33333333333,1090.6666666667,411.33333333333,1090.6666666667,411.33333333333,1089.6666666667,443.33333333333,1089.6666666667,443.33333333333"></polygon><polygon data-id="166" data-sec="C" data-build="1" data-floor="10" data-type_poly="flat" class="s3d-svg__house js-s3d-svg__house" points="1415.6666666667,421.66666666667,1415.6666666667,421.66666666667,1420,391.33333333333,1420,391.33333333333,1357,405,1357,405,1353.3333333333,435.33333333333,1353.3333333333,435.33333333333"></polygon><polygon data-id="167" data-sec="C" data-build="1" data-floor="10" data-type_poly="flat" class="s3d-svg__house js-s3d-svg__house" points="1294,449.33333333333,1294,449.33333333333,1295.6666666667,419,1295.6666666667,419,1357,405,1357,405,1353.3333333333,435.33333333333,1353.3333333333,435.33333333333"></polygon><polygon data-id="168" data-sec="C" data-build="1" data-floor="10" data-type_poly="flat" class="s3d-svg__house js-s3d-svg__house" points="1203.6666666667,438.66666666667,1203.6666666667,438.66666666667,1295.6666666667,419,1295.6666666667,419,1294,449.33333333333,1294,449.33333333333,1201,470.33333333333,1201,470.33333333333,1155.3333333333,447.33333333333,1155.3333333333,447.33333333333,1157.3333333333,417.33333333333,1157.3333333333,417.33333333333"></polygon><polygon data-id="169" data-sec="C" data-build="1" data-floor="10" data-type_poly="flat" class="s3d-svg__house js-s3d-svg__house" points="1132.3333333333,434.33333333333,1132.3333333333,434.33333333333,1133.6666666667,407,1133.6666666667,407,1091.6666666667,385.33333333333,1091.6666666667,385.33333333333,1090.6666666667,411.33333333333,1090.6666666667,411.33333333333"></polygon><polygon data-id="172" data-sec="C" data-build="1" data-floor="11" data-type_poly="flat" class="s3d-svg__house js-s3d-svg__house" points="1359.3333333333,375.66666666667,1359.3333333333,375.66666666667,1424.3333333333,361.33333333333,1424.3333333333,361.33333333333,1420,391.33333333333,1420,391.33333333333,1357,405,1357,405"></polygon><polygon data-id="173" data-sec="C" data-build="1" data-floor="11" data-type_poly="flat" class="s3d-svg__house js-s3d-svg__house" points="1295.6666666667,419,1295.6666666667,419,1297,388,1297,388,1359.3333333333,375.66666666667,1359.3333333333,375.66666666667,1357,405,1357,405"></polygon><polygon data-id="174" data-sec="C" data-build="1" data-floor="11" data-type_poly="flat" class="s3d-svg__house js-s3d-svg__house" points="1207,407.66666666667,1207,407.66666666667,1297,388,1297,388,1295.6666666667,419,1295.6666666667,419,1203.6666666667,438.66666666667,1203.6666666667,438.66666666667,1157.3333333333,417.33333333333,1157.3333333333,417.33333333333,1159,387.66666666667,1159,387.66666666667"></polygon><polygon data-id="175" data-sec="C" data-build="1" data-floor="11" data-type_poly="flat" class="s3d-svg__house js-s3d-svg__house" points="1133.6666666667,407,1133.6666666667,407,1136.3333333333,376.66666666667,1136.3333333333,376.66666666667,1092.6666666667,356,1092.6666666667,356,1091.6666666667,385.33333333333,1091.6666666667,385.33333333333"></polygon><polygon data-id="178" data-sec="C" data-build="1" data-floor="12" data-type_poly="flat" class="s3d-svg__house js-s3d-svg__house" points="1359.3333333333,375.66666666667,1359.3333333333,375.66666666667,1362.6666666667,344,1362.6666666667,344,1430.3333333333,330,1430.3333333333,330,1424.3333333333,361.33333333333,1424.3333333333,361.33333333333"></polygon><polygon data-id="179" data-sec="C" data-build="1" data-floor="12" data-type_poly="flat" class="s3d-svg__house js-s3d-svg__house" points="1299.6666666667,356,1299.6666666667,356,1362.6666666667,344,1362.6666666667,344,1359.3333333333,375.66666666667,1359.3333333333,375.66666666667,1297,388,1297,388"></polygon><polygon data-id="180" data-sec="C" data-build="1" data-floor="12" data-type_poly="flat" class="s3d-svg__house js-s3d-svg__house" points="1209.6666666667,375.33333333333,1209.6666666667,375.33333333333,1299.6666666667,356,1299.6666666667,356,1297,388,1297,388,1207,407.66666666667,1207,407.66666666667,1159,387.66666666667,1159,387.66666666667,1162.3333333333,355,1162.3333333333,355"></polygon><polygon data-id="181" data-sec="C" data-build="1" data-floor="12" data-type_poly="flat" class="s3d-svg__house js-s3d-svg__house" points="1136.3333333333,376.66666666667,1136.3333333333,376.66666666667,1138,347.66666666667,1138,347.66666666667,1094,324.66666666667,1094,324.66666666667,1092.6666666667,356,1092.6666666667,356"></polygon><polygon data-id="184" data-sec="C" data-build="1" data-floor="13" data-type_poly="flat" class="s3d-svg__house js-s3d-svg__house" points="1362.6666666667,344,1362.6666666667,344,1365.3333333333,312.33333333333,1365.3333333333,312.33333333333,1434.6666666667,298,1434.6666666667,298,1430.3333333333,330,1430.3333333333,330"></polygon><polygon data-id="185" data-sec="C" data-build="1" data-floor="13" data-type_poly="flat" class="s3d-svg__house js-s3d-svg__house" points="1362.6666666667,344,1362.6666666667,344,1365.3333333333,312.33333333333,1365.3333333333,312.33333333333,1302,324.66666666667,1302,324.66666666667,1299.6666666667,356,1299.6666666667,356"></polygon><polygon data-id="186" data-sec="C" data-build="1" data-floor="13" data-type_poly="flat" class="s3d-svg__house js-s3d-svg__house" points="1211.6666666667,342.33333333333,1211.6666666667,342.33333333333,1302,324.66666666667,1302,324.66666666667,1299.6666666667,356,1299.6666666667,356,1209.6666666667,375.33333333333,1209.6666666667,375.33333333333,1162.3333333333,355,1162.3333333333,355,1164,320.66666666667,1164,320.66666666667"></polygon><polygon data-id="187" data-sec="C" data-build="1" data-floor="13" data-type_poly="flat" class="s3d-svg__house js-s3d-svg__house" points="1138,347.66666666667,1138,347.66666666667,1140,313,1140,313,1095.6666666667,293.33333333333,1095.6666666667,293.33333333333,1094,324.66666666667,1094,324.66666666667"></polygon><polygon data-id="190" data-sec="C" data-build="1" data-floor="14" data-type_poly="flat" class="s3d-svg__house js-s3d-svg__house" points="1434.6666666667,298,1434.6666666667,298,1439.6666666667,266,1439.6666666667,266,1369,279.66666666667,1369,279.66666666667,1365.3333333333,312.33333333333,1365.3333333333,312.33333333333"></polygon><polygon data-id="191" data-sec="C" data-build="1" data-floor="14" data-type_poly="flat" class="s3d-svg__house js-s3d-svg__house" points="1369,279.66666666667,1369,279.66666666667,1306.3333333333,291,1306.3333333333,291,1302,324.66666666667,1302,324.66666666667,1365.3333333333,312.33333333333,1365.3333333333,312.33333333333"></polygon><polygon data-id="198" data-sec="C" data-build="1" data-floor="15" data-type_poly="flat" class="s3d-svg__house js-s3d-svg__house" points="1214.3333333333,308.33333333333,1214.3333333333,308.33333333333,1306.3333333333,291,1306.3333333333,291,1302,324.66666666667,1302,324.66666666667,1211.6666666667,342.33333333333,1211.6666666667,342.33333333333,1164,320.66666666667,1164,320.66666666667,1166.6666666667,286.66666666667,1166.6666666667,286.66666666667"></polygon><polygon data-id="199" data-sec="C" data-build="1" data-floor="15" data-type_poly="flat" class="s3d-svg__house js-s3d-svg__house" points="1140,313,1140,313,1142,278.33333333333,1142,278.33333333333,1097.3333333333,257.66666666667,1097.3333333333,257.66666666667,1095.6666666667,293.33333333333,1095.6666666667,293.33333333333"></polygon><polygon data-id="202" data-sec="C" data-build="1" data-floor="16" data-type_poly="flat" class="s3d-svg__house js-s3d-svg__house" points="1369,279.66666666667,1369,279.66666666667,1372.3333333333,246,1372.3333333333,246,1445,233,1445,233,1439.6666666667,266,1439.6666666667,266"></polygon><polygon data-id="203" data-sec="C" data-build="1" data-floor="16" data-type_poly="flat" class="s3d-svg__house js-s3d-svg__house" points="1372.3333333333,246,1372.3333333333,246,1310.3333333333,257.66666666667,1310.3333333333,257.66666666667,1306.3333333333,291,1306.3333333333,291,1369,279.66666666667,1369,279.66666666667"></polygon><polygon data-id="204" data-sec="C" data-build="1" data-floor="16" data-type_poly="flat" class="s3d-svg__house js-s3d-svg__house" points="1217.3333333333,273.66666666667,1217.3333333333,273.66666666667,1310.3333333333,257.66666666667,1310.3333333333,257.66666666667,1306.3333333333,291,1306.3333333333,291,1214.3333333333,308.33333333333,1214.3333333333,308.33333333333,1166.6666666667,286.66666666667,1166.6666666667,286.66666666667,1169,252.66666666667,1169,252.66666666667"></polygon><polygon data-id="205" data-sec="C" data-build="1" data-floor="16" data-type_poly="flat" class="s3d-svg__house js-s3d-svg__house" points="1144,242.66666666667,1144,242.66666666667,1098.6666666667,222.33333333333,1098.6666666667,222.33333333333,1097.3333333333,257.66666666667,1097.3333333333,257.66666666667,1142,278.33333333333,1142,278.33333333333"></polygon><polygon data-id="208" data-sec="C" data-build="1" data-floor="17" data-type_poly="flat" class="s3d-svg__house js-s3d-svg__house" points="1372.3333333333,246,1372.3333333333,246,1374.6666666667,212.33333333333,1374.6666666667,212.33333333333,1450,198.66666666667,1450,198.66666666667,1445,233,1445,233"></polygon><polygon data-id="209" data-sec="C" data-build="1" data-floor="17" data-type_poly="flat" class="s3d-svg__house js-s3d-svg__house" points="1374.6666666667,212.33333333333,1374.6666666667,212.33333333333,1313.3333333333,222.66666666667,1313.3333333333,222.66666666667,1310.3333333333,257.66666666667,1310.3333333333,257.66666666667,1372.3333333333,246,1372.3333333333,246"></polygon><polygon data-id="210" data-sec="C" data-build="1" data-floor="17" data-type_poly="flat" class="s3d-svg__house js-s3d-svg__house" points="1220.6666666667,239.33333333333,1220.6666666667,239.33333333333,1313.3333333333,222.66666666667,1313.3333333333,222.66666666667,1310.3333333333,257.66666666667,1310.3333333333,257.66666666667,1217.3333333333,273.66666666667,1217.3333333333,273.66666666667,1169,252.66666666667,1169,252.66666666667,1171.3333333333,218.66666666667,1171.3333333333,218.66666666667"></polygon><polygon data-id="211" data-sec="C" data-build="1" data-floor="17" data-type_poly="flat" class="s3d-svg__house js-s3d-svg__house" points="1144,242.66666666667,1144,242.66666666667,1146.3333333333,208.33333333333,1146.3333333333,208.33333333333,1100,188.33333333333,1100,188.33333333333,1098.6666666667,222.33333333333,1098.6666666667,222.33333333333"></polygon><polygon data-id="218" data-sec="D" data-build="1" data-floor="5" data-type_poly="flat" class="s3d-svg__house js-s3d-svg__house" points="624,787,624,787,732.33333333333,754.66666666667,732.33333333333,754.66666666667,729.33333333333,725.33333333333,729.33333333333,725.33333333333,620.33333333333,755.66666666667,620.33333333333,755.66666666667,567,729.33333333333,567,729.33333333333,569.66666666667,761.33333333333,569.66666666667,761.33333333333"></polygon><polygon data-id="217" data-sec="D" data-build="1" data-floor="5" data-type_poly="flat" class="s3d-svg__house js-s3d-svg__house" points="732.33333333333,754.66666666667,732.33333333333,754.66666666667,824.33333333333,727.33333333333,824.33333333333,727.33333333333,823,698.66666666667,823,698.66666666667,729.33333333333,725.33333333333,729.33333333333,725.33333333333"></polygon><polygon data-id="216" data-sec="D" data-build="1" data-floor="5" data-type_poly="flat" class="s3d-svg__house js-s3d-svg__house" points="824.33333333333,727.33333333333,824.33333333333,727.33333333333,913,702,913,702,912.33333333333,673,912.33333333333,673,823,698.66666666667,823,698.66666666667"></polygon><polygon data-id="215" data-sec="D" data-build="1" data-floor="5" data-type_poly="flat" class="s3d-svg__house js-s3d-svg__house" points="913,702,913,702,997.66666666667,677.66666666667,997.66666666667,677.66666666667,997,649.33333333333,997,649.33333333333,912.33333333333,673,912.33333333333,673"></polygon><polygon data-id="214" data-sec="D" data-build="1" data-floor="5" data-type_poly="flat" class="s3d-svg__house js-s3d-svg__house" points="1007.6666666667,674.66666666667,1007.6666666667,674.66666666667,1068,658.66666666667,1068,658.66666666667,1069.3333333333,629.66666666667,1069.3333333333,629.66666666667,1008.6666666667,646.33333333333,1008.6666666667,646.33333333333"></polygon><polygon data-id="227" data-sec="D" data-build="1" data-floor="6" data-type_poly="flat" class="s3d-svg__house js-s3d-svg__house" points="615.66666666667,724.33333333333,615.66666666667,724.33333333333,727,693.66666666667,727,693.66666666667,729.33333333333,725.33333333333,729.33333333333,725.33333333333,620.33333333333,755.66666666667,620.33333333333,755.66666666667,567,729.33333333333,567,729.33333333333,563.66666666667,694.66666666667,563.66666666667,694.66666666667"></polygon><polygon data-id="226" data-sec="D" data-build="1" data-floor="6" data-type_poly="flat" class="s3d-svg__house js-s3d-svg__house" points="727,693.66666666667,727,693.66666666667,820.66666666667,667.66666666667,820.66666666667,667.66666666667,823,698.66666666667,823,698.66666666667,729.33333333333,725.33333333333,729.33333333333,725.33333333333"></polygon><polygon data-id="225" data-sec="D" data-build="1" data-floor="6" data-type_poly="flat" class="s3d-svg__house js-s3d-svg__house" points="820.66666666667,667.66666666667,820.66666666667,667.66666666667,911.33333333333,643.33333333333,911.33333333333,643.33333333333,912.33333333333,673,912.33333333333,673,823,698.66666666667,823,698.66666666667"></polygon><polygon data-id="224" data-sec="D" data-build="1" data-floor="6" data-type_poly="flat" class="s3d-svg__house js-s3d-svg__house" points="911.33333333333,643.33333333333,911.33333333333,643.33333333333,997.66666666667,620.33333333333,997.66666666667,620.33333333333,997,649.33333333333,997,649.33333333333,912.33333333333,673,912.33333333333,673"></polygon><polygon data-id="223" data-sec="D" data-build="1" data-floor="6" data-type_poly="flat" class="s3d-svg__house js-s3d-svg__house" points="1008.6666666667,646.33333333333,1008.6666666667,646.33333333333,1008.6666666667,617.66666666667,1008.6666666667,617.66666666667,1070.6666666667,600,1070.6666666667,600,1069.3333333333,629.66666666667,1069.3333333333,629.66666666667"></polygon><polygon data-id="236" data-sec="D" data-build="1" data-floor="7" data-type_poly="flat" class="s3d-svg__house js-s3d-svg__house" points="612,693,723.66666666667,663,727,693.66666666667,615.66666666667,724.33333333333,563.66666666667,694.66666666667,561,662.66666666667"></polygon><polygon data-id="235" data-sec="D" data-build="1" data-floor="7" data-type_poly="flat" class="s3d-svg__house js-s3d-svg__house" points="723.66666666667,663,723.66666666667,663,819.33333333333,637,819.33333333333,637,820.66666666667,667.66666666667,820.66666666667,667.66666666667,727,693.66666666667,727,693.66666666667"></polygon><polygon data-id="234" data-sec="D" data-build="1" data-floor="7" data-type_poly="flat" class="s3d-svg__house js-s3d-svg__house" points="819.33333333333,637,819.33333333333,637,911,612.66666666667,911,612.66666666667,911.33333333333,643.33333333333,911.33333333333,643.33333333333,820.66666666667,667.66666666667,820.66666666667,667.66666666667"></polygon><polygon data-id="233" data-sec="D" data-build="1" data-floor="7" data-type_poly="flat" class="s3d-svg__house js-s3d-svg__house" points="911,612.66666666667,911,612.66666666667,998.66666666667,590,998.66666666667,590,997.66666666667,620.33333333333,997.66666666667,620.33333333333,911.33333333333,643.33333333333,911.33333333333,643.33333333333"></polygon><polygon data-id="232" data-sec="D" data-build="1" data-floor="7" data-type_poly="flat" class="s3d-svg__house js-s3d-svg__house" points="1008.3333333333,586.66666666667,1008.3333333333,586.66666666667,1008.6666666667,617.66666666667,1008.6666666667,617.66666666667,1070.6666666667,600,1070.6666666667,600,1071.3333333333,570,1071.3333333333,570"></polygon><polygon data-id="245" data-sec="D" data-build="1" data-floor="8" data-type_poly="flat" class="s3d-svg__house js-s3d-svg__house" points="607.66666666667,659.66666666667,721.33333333333,630.66666666667,723.66666666667,663,612,693,561,662.66666666667,557.66666666667,629"></polygon><polygon data-id="244" data-sec="D" data-build="1" data-floor="8" data-type_poly="flat" class="s3d-svg__house js-s3d-svg__house" points="721.33333333333,630.66666666667,721.33333333333,630.66666666667,817.66666666667,605,817.66666666667,605,819.33333333333,637,819.33333333333,637,723.66666666667,663,723.66666666667,663"></polygon><polygon data-id="242" data-sec="D" data-build="1" data-floor="8" data-type_poly="flat" class="s3d-svg__house js-s3d-svg__house" points="911,581.66666666667,911,581.66666666667,999,558.33333333333,999,558.33333333333,998.66666666667,590,998.66666666667,590,911,612.66666666667,911,612.66666666667"></polygon><polygon data-id="241" data-sec="D" data-build="1" data-floor="8" data-type_poly="flat" class="s3d-svg__house js-s3d-svg__house" points="1008.3333333333,586.66666666667,1008.3333333333,586.66666666667,1008.3333333333,556,1008.3333333333,556,1072.6666666667,539.66666666667,1072.6666666667,539.66666666667,1071.3333333333,570,1071.3333333333,570"></polygon><polygon data-id="243" data-sec="D" data-build="1" data-floor="8" data-type_poly="flat" class="s3d-svg__house js-s3d-svg__house" points="817.66666666667,605,817.66666666667,605,911,581.66666666667,911,581.66666666667,911,612.66666666667,911,612.66666666667,819.33333333333,637,819.33333333333,637"></polygon><polygon data-id="254" data-sec="D" data-build="1" data-floor="9" data-type_poly="flat" class="s3d-svg__house js-s3d-svg__house" points="603.33333333333,626.33333333333,718,597.33333333333,721.33333333333,630.66666666667,607.66666666667,659.66666666667,557.66666666667,629,554.66666666667,600"></polygon><polygon data-id="253" data-sec="D" data-build="1" data-floor="9" data-type_poly="flat" class="s3d-svg__house js-s3d-svg__house" points="718,597.33333333333,718,597.33333333333,816.33333333333,573,816.33333333333,573,817.66666666667,605,817.66666666667,605,721.33333333333,630.66666666667,721.33333333333,630.66666666667"></polygon><polygon data-id="252" data-sec="D" data-build="1" data-floor="9" data-type_poly="flat" class="s3d-svg__house js-s3d-svg__house" points="816.33333333333,573,816.33333333333,573,910,549,910,549,911,581.66666666667,911,581.66666666667,817.66666666667,605,817.66666666667,605"></polygon><polygon data-id="251" data-sec="D" data-build="1" data-floor="9" data-type_poly="flat" class="s3d-svg__house js-s3d-svg__house" points="910,549,910,549,999.33333333333,526.66666666667,999.33333333333,526.66666666667,999,558.33333333333,999,558.33333333333,911,581.66666666667,911,581.66666666667"></polygon><polygon data-id="250" data-sec="D" data-build="1" data-floor="9" data-type_poly="flat" class="s3d-svg__house js-s3d-svg__house" points="1008,524.66666666667,1008,524.66666666667,1008.3333333333,556,1008.3333333333,556,1072.6666666667,539.66666666667,1072.6666666667,539.66666666667,1073.6666666667,508.33333333333,1073.6666666667,508.33333333333"></polygon><polygon data-id="263" data-sec="D" data-build="1" data-floor="10" data-type_poly="flat" class="s3d-svg__house js-s3d-svg__house" points="598.66666666667,592,714.66666666667,564,718,597.33333333333,603.33333333333,626.33333333333,554.66666666667,600,551,569"></polygon><polygon data-id="262" data-sec="D" data-build="1" data-floor="10" data-type_poly="flat" class="s3d-svg__house js-s3d-svg__house" points="714.66666666667,564,714.66666666667,564,814.66666666667,540,814.66666666667,540,816.33333333333,573,816.33333333333,573,718,597.33333333333,718,597.33333333333"></polygon><polygon data-id="261" data-sec="D" data-build="1" data-floor="10" data-type_poly="flat" class="s3d-svg__house js-s3d-svg__house" points="814.66666666667,540,814.66666666667,540,909.33333333333,516.66666666667,909.33333333333,516.66666666667,910,549,910,549,816.33333333333,573,816.33333333333,573"></polygon><polygon data-id="260" data-sec="D" data-build="1" data-floor="10" data-type_poly="flat" class="s3d-svg__house js-s3d-svg__house" points="909.33333333333,516.66666666667,909.33333333333,516.66666666667,1000.3333333333,494.66666666667,1000.3333333333,494.66666666667,999.33333333333,526.66666666667,999.33333333333,526.66666666667,910,549,910,549"></polygon><polygon data-id="259" data-sec="D" data-build="1" data-floor="10" data-type_poly="flat" class="s3d-svg__house js-s3d-svg__house" points="1008,524.66666666667,1008,524.66666666667,1008.3333333333,493,1008.3333333333,493,1075.3333333333,476,1075.3333333333,476,1073.6666666667,508.33333333333,1073.6666666667,508.33333333333"></polygon></svg>