<svg preserveAspectRatio="xMidYMid slice" id="floor--svg"  viewBox="0 0 1920 1080" version="1.0" xmlns="http://www.w3.org/2000/svg"><polygon data-id="139" data-sec="C" data-build="1" data-floor="5" data-type_poly="flat" class="s3d-svg__house js-s3d-svg__house" points="772.66666666667,658.66666666667,772.66666666667,658.66666666667,772.66666666667,658.66666666667,772.66666666667,658.66666666667,834,656.33333333333,834,656.33333333333,834,656.33333333333,834,656.33333333333,835.33333333333,686.66666666667,835.33333333333,686.66666666667,835.33333333333,686.66666666667,835.33333333333,686.66666666667,775.33333333333,689.33333333333,775.33333333333,689.33333333333,775.33333333333,689.33333333333,775.33333333333,689.33333333333"></polygon><polygon data-id="140" data-sec="C" data-build="1" data-floor="5" data-type_poly="flat" class="s3d-svg__house js-s3d-svg__house" points="718,660,720.33333333333,691.33333333333,775.33333333333,689.33333333333,772.66666666667,658.66666666667"></polygon><polygon data-id="145" data-sec="C" data-build="1" data-floor="6" data-type_poly="flat" class="s3d-svg__house js-s3d-svg__house" points="772.66666666667,658.66666666667,772.66666666667,658.66666666667,772.66666666667,658.66666666667,772.66666666667,658.66666666667,770.66666666667,626.33333333333,770.66666666667,626.33333333333,770.66666666667,626.33333333333,770.66666666667,626.33333333333,832,625.66666666667,832,625.66666666667,832,625.66666666667,832,625.66666666667,834,656.33333333333,834,656.33333333333,834,656.33333333333,834,656.33333333333"></polygon><polygon data-id="146" data-sec="C" data-build="1" data-floor="6" data-type_poly="flat" class="s3d-svg__house js-s3d-svg__house" points="715,628.33333333333,770.66666666667,626.33333333333,772.66666666667,658.66666666667,718,660"></polygon><polygon data-id="151" data-sec="C" data-build="1" data-floor="7" data-type_poly="flat" class="s3d-svg__house js-s3d-svg__house" points="770.66666666667,626.33333333333,770.66666666667,626.33333333333,770.66666666667,626.33333333333,770.66666666667,626.33333333333,768.66666666667,595,768.66666666667,595,768.66666666667,595,768.66666666667,595,831,592.66666666667,831,592.66666666667,831,592.66666666667,831,592.66666666667,832,625.66666666667,832,625.66666666667,832,625.66666666667,832,625.66666666667"></polygon><polygon data-id="152" data-sec="C" data-build="1" data-floor="7" data-type_poly="flat" class="s3d-svg__house js-s3d-svg__house" points="713.33333333333,597,715,628.33333333333,770.66666666667,626.33333333333,768.66666666667,595"></polygon><polygon data-id="157" data-sec="C" data-build="1" data-floor="8" data-type_poly="flat" class="s3d-svg__house js-s3d-svg__house" points="768.66666666667,595,768.66666666667,595,768.66666666667,595,768.66666666667,595,766.33333333333,562,766.33333333333,562,766.33333333333,562,766.33333333333,562,830,560.33333333333,830,560.33333333333,830,560.33333333333,830,560.33333333333,831,592.66666666667,831,592.66666666667,831,592.66666666667,831,592.66666666667"></polygon><polygon data-id="158" data-sec="C" data-build="1" data-floor="8" data-type_poly="flat" class="s3d-svg__house js-s3d-svg__house" points="711.33333333333,563.66666666667,713.33333333333,597,768.66666666667,595,766.33333333333,562"></polygon><polygon data-id="163" data-sec="C" data-build="1" data-floor="9" data-type_poly="flat" class="s3d-svg__house js-s3d-svg__house" points="766.33333333333,562,766.33333333333,562,766.33333333333,562,766.33333333333,562,764,527.33333333333,764,527.33333333333,764,527.33333333333,764,527.33333333333,828,526.66666666667,828,526.66666666667,828,526.66666666667,828,526.66666666667,830,560.33333333333,830,560.33333333333,830,560.33333333333,830,560.33333333333"></polygon><polygon data-id="164" data-sec="C" data-build="1" data-floor="9" data-type_poly="flat" class="s3d-svg__house js-s3d-svg__house" points="708.66666666667,530,711.33333333333,563.66666666667,766.33333333333,562,764,527.33333333333"></polygon><polygon data-id="169" data-sec="C" data-build="1" data-floor="10" data-type_poly="flat" class="s3d-svg__house js-s3d-svg__house" points="764,527.33333333333,764,527.33333333333,764,527.33333333333,764,527.33333333333,761.66666666667,493.33333333333,761.66666666667,493.33333333333,761.66666666667,493.33333333333,761.66666666667,493.33333333333,826.66666666667,492.33333333333,826.66666666667,492.33333333333,826.66666666667,492.33333333333,826.66666666667,492.33333333333,828,526.66666666667,828,526.66666666667,828,526.66666666667,828,526.66666666667"></polygon><polygon data-id="170" data-sec="C" data-build="1" data-floor="10" data-type_poly="flat" class="s3d-svg__house js-s3d-svg__house" points="706,496,708.66666666667,530,764,527.33333333333,761.66666666667,493.33333333333"></polygon><polygon data-id="175" data-sec="C" data-build="1" data-floor="11" data-type_poly="flat" class="s3d-svg__house js-s3d-svg__house" points="761.66666666667,493.33333333333,761.66666666667,493.33333333333,761.66666666667,493.33333333333,761.66666666667,493.33333333333,758.66666666667,458.33333333333,758.66666666667,458.33333333333,758.66666666667,458.33333333333,758.66666666667,458.33333333333,825,457.33333333333,825,457.33333333333,825,457.33333333333,825,457.33333333333,826.66666666667,492.33333333333,826.66666666667,492.33333333333,826.66666666667,492.33333333333,826.66666666667,492.33333333333"></polygon><polygon data-id="176" data-sec="C" data-build="1" data-floor="11" data-type_poly="flat" class="s3d-svg__house js-s3d-svg__house" points="703.33333333333,461,706,496,761.66666666667,493.33333333333,758.66666666667,458.33333333333"></polygon><polygon data-id="181" data-sec="C" data-build="1" data-floor="12" data-type_poly="flat" class="s3d-svg__house js-s3d-svg__house" points="758.66666666667,458.33333333333,758.66666666667,458.33333333333,758.66666666667,458.33333333333,758.66666666667,458.33333333333,756.33333333333,422.66666666667,756.33333333333,422.66666666667,756.33333333333,422.66666666667,756.33333333333,422.66666666667,823.33333333333,421,823.33333333333,421,823.33333333333,421,823.33333333333,421,825,457.33333333333,825,457.33333333333,825,457.33333333333,825,457.33333333333"></polygon><polygon data-id="182" data-sec="C" data-build="1" data-floor="12" data-type_poly="flat" class="s3d-svg__house js-s3d-svg__house" points="700.33333333333,424.33333333333,703.33333333333,461,758.66666666667,458.33333333333,756.33333333333,422.66666666667"></polygon><polygon data-id="187" data-sec="C" data-build="1" data-floor="13" data-type_poly="flat" class="s3d-svg__house js-s3d-svg__house" points="756.33333333333,422.66666666667,756.33333333333,422.66666666667,756.33333333333,422.66666666667,756.33333333333,422.66666666667,753.66666666667,385.66666666667,753.66666666667,385.66666666667,753.66666666667,385.66666666667,753.66666666667,385.66666666667,821.33333333333,384,821.33333333333,384,821.33333333333,384,821.33333333333,384,823.33333333333,421,823.33333333333,421,823.33333333333,421,823.33333333333,421"></polygon><polygon data-id="188" data-sec="C" data-build="1" data-floor="13" data-type_poly="flat" class="s3d-svg__house js-s3d-svg__house" points="697.66666666667,388,700.33333333333,424.33333333333,756.33333333333,422.66666666667,753.66666666667,385.66666666667"></polygon><polygon data-id="193" data-sec="C" data-build="1" data-floor="14" data-type_poly="flat" class="s3d-svg__house js-s3d-svg__house" points="753.66666666667,385.66666666667,753.66666666667,385.66666666667,753.66666666667,385.66666666667,753.66666666667,385.66666666667,751.33333333333,348.33333333333,751.33333333333,348.33333333333,751.33333333333,348.33333333333,751.33333333333,348.33333333333,820,346.66666666667,820,346.66666666667,820,346.66666666667,820,346.66666666667,821.33333333333,384,821.33333333333,384,821.33333333333,384,821.33333333333,384"></polygon><polygon data-id="194" data-sec="C" data-build="1" data-floor="14" data-type_poly="flat" class="s3d-svg__house js-s3d-svg__house" points="694.66666666667,349.66666666667,697.66666666667,388,753.66666666667,385.66666666667,751.33333333333,348.33333333333"></polygon><polygon data-id="199" data-sec="C" data-build="1" data-floor="15" data-type_poly="flat" class="s3d-svg__house js-s3d-svg__house" points="751.33333333333,348.33333333333,751.33333333333,348.33333333333,751.33333333333,348.33333333333,751.33333333333,348.33333333333,749,308.66666666667,749,308.66666666667,749,308.66666666667,749,308.66666666667,818,307.33333333333,818,307.33333333333,818,307.33333333333,818,307.33333333333,820,346.66666666667,820,346.66666666667,820,346.66666666667,820,346.66666666667"></polygon><polygon data-id="200" data-sec="C" data-build="1" data-floor="15" data-type_poly="flat" class="s3d-svg__house js-s3d-svg__house" points="691.66666666667,310.33333333333,694.66666666667,349.66666666667,751.33333333333,348.33333333333,749,308.66666666667"></polygon><polygon data-id="205" data-sec="C" data-build="1" data-floor="16" data-type_poly="flat" class="s3d-svg__house js-s3d-svg__house" points="749,308.66666666667,749,308.66666666667,749,308.66666666667,749,308.66666666667,746,269,746,269,746,269,746,269,816,267.33333333333,816,267.33333333333,816,267.33333333333,816,267.33333333333,818,307.33333333333,818,307.33333333333,818,307.33333333333,818,307.33333333333"></polygon><polygon data-id="206" data-sec="C" data-build="1" data-floor="16" data-type_poly="flat" class="s3d-svg__house js-s3d-svg__house" points="688.33333333333,270.66666666667,691.66666666667,310.33333333333,749,308.66666666667,746,269"></polygon><polygon data-id="211" data-sec="C" data-build="1" data-floor="17" data-type_poly="flat" class="s3d-svg__house js-s3d-svg__house" points="746,269,746,269,746,269,746,269,743.66666666667,228.66666666667,743.66666666667,228.66666666667,743.66666666667,228.66666666667,743.66666666667,228.66666666667,814.33333333333,226,814.33333333333,226,814.33333333333,226,814.33333333333,226,816,267.33333333333,816,267.33333333333,816,267.33333333333,816,267.33333333333"></polygon><polygon data-id="212" data-sec="C" data-build="1" data-floor="17" data-type_poly="flat" class="s3d-svg__house js-s3d-svg__house" points="743.66666666667,228.66666666667,685,229.66666666667,688.33333333333,270.66666666667,746,269"></polygon><polygon data-id="213" data-sec="D" data-build="1" data-floor="5" data-type_poly="flat" class="s3d-svg__house js-s3d-svg__house" points="1003.6666666667,678,1003.6666666667,678,1003.3333333333,647.33333333333,1003.3333333333,647.33333333333,1103.3333333333,649.66666666667,1103.3333333333,649.66666666667,1101.6666666667,679.33333333333,1101.6666666667,679.33333333333"></polygon><polygon data-id="221" data-sec="D" data-build="1" data-floor="5" data-type_poly="flat" class="s3d-svg__house js-s3d-svg__house" points="1176.3333333333,681.33333333333,1176.3333333333,681.33333333333,1276,683.66666666667,1276,683.66666666667,1279.6666666667,653.66666666667,1279.6666666667,653.66666666667,1177.3333333333,651.33333333333,1177.3333333333,651.33333333333"></polygon><polygon data-id="220" data-sec="D" data-build="1" data-floor="5" data-type_poly="flat" class="s3d-svg__house js-s3d-svg__house" points="1276,683.66666666667,1276,683.66666666667,1375.3333333333,686.66666666667,1375.3333333333,686.66666666667,1381.3333333333,656,1381.3333333333,656,1279.6666666667,653.66666666667,1279.6666666667,653.66666666667"></polygon><polygon data-id="219" data-sec="D" data-build="1" data-floor="5" data-type_poly="flat" class="s3d-svg__house js-s3d-svg__house" points="1375.3333333333,686.66666666667,1375.3333333333,686.66666666667,1502.3333333333,688.33333333333,1502.3333333333,688.33333333333,1508,658,1508,658,1381.3333333333,656,1381.3333333333,656"></polygon><polygon data-id="222" data-sec="D" data-build="1" data-floor="6" data-type_poly="flat" class="s3d-svg__house js-s3d-svg__house" points="1003.3333333333,647.33333333333,1003.3333333333,647.33333333333,1004,616,1004,616,1104.3333333333,618.33333333333,1104.3333333333,618.33333333333,1103.3333333333,649.66666666667,1103.3333333333,649.66666666667"></polygon><polygon data-id="230" data-sec="D" data-build="1" data-floor="6" data-type_poly="flat" class="s3d-svg__house js-s3d-svg__house" points="1177.3333333333,651.33333333333,1177.3333333333,651.33333333333,1179,620.33333333333,1179,620.33333333333,1283,622.33333333333,1283,622.33333333333,1279.6666666667,653.66666666667,1279.6666666667,653.66666666667"></polygon><polygon data-id="229" data-sec="D" data-build="1" data-floor="6" data-type_poly="flat" class="s3d-svg__house js-s3d-svg__house" points="1283,622.33333333333,1283,622.33333333333,1385.6666666667,624.66666666667,1385.6666666667,624.66666666667,1381.3333333333,656,1381.3333333333,656,1279.6666666667,653.66666666667,1279.6666666667,653.66666666667"></polygon><polygon data-id="228" data-sec="D" data-build="1" data-floor="6" data-type_poly="flat" class="s3d-svg__house js-s3d-svg__house" points="1381.3333333333,656,1381.3333333333,656,1385.6666666667,624.66666666667,1385.6666666667,624.66666666667,1515.3333333333,626.66666666667,1515.3333333333,626.66666666667,1508,658,1508,658"></polygon><polygon data-id="231" data-sec="D" data-build="1" data-floor="7" data-type_poly="flat" class="s3d-svg__house js-s3d-svg__house" points="1004,616,1004,616,1004.6666666667,583.66666666667,1004.6666666667,583.66666666667,1105,586,1105,586,1104.3333333333,618.33333333333,1104.3333333333,618.33333333333"></polygon><polygon data-id="239" data-sec="D" data-build="1" data-floor="7" data-type_poly="flat" class="s3d-svg__house js-s3d-svg__house" points="1179.3333333333,587.66666666667,1179.3333333333,587.66666666667,1179,620.33333333333,1179,620.33333333333,1283,622.33333333333,1283,622.33333333333,1284.3333333333,590,1284.3333333333,590"></polygon><polygon data-id="238" data-sec="D" data-build="1" data-floor="7" data-type_poly="flat" class="s3d-svg__house js-s3d-svg__house" points="1284.3333333333,590,1284.3333333333,590,1388.6666666667,591.66666666667,1388.6666666667,591.66666666667,1385.6666666667,624.66666666667,1385.6666666667,624.66666666667,1283,622.33333333333,1283,622.33333333333"></polygon><polygon data-id="237" data-sec="D" data-build="1" data-floor="7" data-type_poly="flat" class="s3d-svg__house js-s3d-svg__house" points="1388.6666666667,591.66666666667,1388.6666666667,591.66666666667,1521.3333333333,594.66666666667,1521.3333333333,594.66666666667,1515.3333333333,626.66666666667,1515.3333333333,626.66666666667,1385.6666666667,624.66666666667,1385.6666666667,624.66666666667"></polygon><polygon data-id="248" data-sec="D" data-build="1" data-floor="8" data-type_poly="flat" class="s3d-svg__house js-s3d-svg__house" points="1179.3333333333,587.66666666667,1179.3333333333,587.66666666667,1180.6666666667,554.66666666667,1180.6666666667,554.66666666667,1286.3333333333,556.66666666667,1286.3333333333,556.66666666667,1284.3333333333,590,1284.3333333333,590"></polygon><polygon data-id="247" data-sec="D" data-build="1" data-floor="8" data-type_poly="flat" class="s3d-svg__house js-s3d-svg__house" points="1286.3333333333,556.66666666667,1286.3333333333,556.66666666667,1391.6666666667,559,1391.6666666667,559,1388.6666666667,591.66666666667,1388.6666666667,591.66666666667,1284.3333333333,590,1284.3333333333,590"></polygon><polygon data-id="246" data-sec="D" data-build="1" data-floor="8" data-type_poly="flat" class="s3d-svg__house js-s3d-svg__house" points="1391.6666666667,559,1391.6666666667,559,1527.6666666667,562,1527.6666666667,562,1521.3333333333,594.66666666667,1521.3333333333,594.66666666667,1388.6666666667,591.66666666667,1388.6666666667,591.66666666667"></polygon><polygon data-id="257" data-sec="D" data-build="1" data-floor="9" data-type_poly="flat" class="s3d-svg__house js-s3d-svg__house" points="1180.6666666667,554.66666666667,1180.6666666667,554.66666666667,1182,521,1182,521,1288.3333333333,523.33333333333,1288.3333333333,523.33333333333,1286.3333333333,556.66666666667,1286.3333333333,556.66666666667"></polygon><polygon data-id="256" data-sec="D" data-build="1" data-floor="9" data-type_poly="flat" class="s3d-svg__house js-s3d-svg__house" points="1288.3333333333,523.33333333333,1288.3333333333,523.33333333333,1394,524.66666666667,1394,524.66666666667,1391.6666666667,559,1391.6666666667,559,1286.3333333333,556.66666666667,1286.3333333333,556.66666666667"></polygon><polygon data-id="255" data-sec="D" data-build="1" data-floor="9" data-type_poly="flat" class="s3d-svg__house js-s3d-svg__house" points="1394,524.66666666667,1394,524.66666666667,1535.3333333333,528.33333333333,1535.3333333333,528.33333333333,1527.6666666667,562,1527.6666666667,562,1391.6666666667,559,1391.6666666667,559"></polygon><polygon data-id="266" data-sec="D" data-build="1" data-floor="10" data-type_poly="flat" class="s3d-svg__house js-s3d-svg__house" points="1182,521,1182,521,1184.6666666667,486.33333333333,1184.6666666667,486.33333333333,1290.3333333333,488.66666666667,1290.3333333333,488.66666666667,1288.3333333333,523.33333333333,1288.3333333333,523.33333333333"></polygon><polygon data-id="265" data-sec="D" data-build="1" data-floor="10" data-type_poly="flat" class="s3d-svg__house js-s3d-svg__house" points="1290.3333333333,488.66666666667,1290.3333333333,488.66666666667,1395.6666666667,491,1395.6666666667,491,1394,524.66666666667,1394,524.66666666667,1288.3333333333,523.33333333333,1288.3333333333,523.33333333333"></polygon><polygon data-id="264" data-sec="D" data-build="1" data-floor="10" data-type_poly="flat" class="s3d-svg__house js-s3d-svg__house" points="1395.6666666667,491,1395.6666666667,491,1542,493.66666666667,1542,493.66666666667,1535.3333333333,528.33333333333,1535.3333333333,528.33333333333,1394,524.66666666667,1394,524.66666666667"></polygon><polygon data-id="240" data-sec="D" data-build="1" data-floor="8" data-type_poly="flat" class="s3d-svg__house js-s3d-svg__house" points="1004.6666666667,583.66666666667,1004.6666666667,583.66666666667,1005.6666666667,551.33333333333,1005.6666666667,551.33333333333,1105.6666666667,553,1105.6666666667,553,1105,586,1105,586"></polygon><polygon data-id="249" data-sec="D" data-build="1" data-floor="9" data-type_poly="flat" class="s3d-svg__house js-s3d-svg__house" points="1005.6666666667,551.33333333333,1005.6666666667,551.33333333333,1006.6666666667,518,1006.6666666667,518,1105.6666666667,520,1105.6666666667,520,1105.6666666667,553,1105.6666666667,553"></polygon><polygon data-id="258" data-sec="D" data-build="1" data-floor="10" data-type_poly="flat" class="s3d-svg__house js-s3d-svg__house" points="1006.6666666667,518,1006.6666666667,518,1007.3333333333,484,1007.3333333333,484,1106.6666666667,484.66666666667,1106.6666666667,484.66666666667,1105.6666666667,520,1105.6666666667,520"></polygon></svg>