<svg preserveAspectRatio="xMidYMid slice" id="floor--svg"  viewBox="0 0 1920 1080" version="1.0" xmlns="http://www.w3.org/2000/svg"><polygon data-id="136" data-sec="C" data-build="1" data-floor="5" data-type_poly="flat" class="s3d-svg__house js-s3d-svg__house" points="1206.3333333333,802,1206.3333333333,802,1206.3333333333,802,1206.3333333333,802,1310.6666666667,770.66666666667,1310.6666666667,770.66666666667,1310.6666666667,770.66666666667,1310.6666666667,770.66666666667,1307.3333333333,803.66666666667,1307.3333333333,803.66666666667,1307.3333333333,803.66666666667,1307.3333333333,803.66666666667,1203.6666666667,836,1203.6666666667,836,1203.6666666667,836,1203.6666666667,836,1125,785.66666666667,1125,785.66666666667,1125,785.66666666667,1125,785.66666666667,1126.3333333333,752.66666666667,1126.3333333333,752.66666666667,1126.3333333333,752.66666666667,1126.3333333333,752.66666666667"></polygon><polygon data-id="135" data-sec="C" data-build="1" data-floor="5" data-type_poly="flat" class="s3d-svg__house js-s3d-svg__house" points="1385.3333333333,779,1385.3333333333,779,1385.3333333333,779,1385.3333333333,779,1307.3333333333,803.66666666667,1307.3333333333,803.66666666667,1307.3333333333,803.66666666667,1307.3333333333,803.66666666667,1310.6666666667,770.66666666667,1310.6666666667,770.66666666667,1310.6666666667,770.66666666667,1310.6666666667,770.66666666667,1390.3333333333,746.33333333333,1390.3333333333,746.33333333333,1390.3333333333,746.33333333333,1390.3333333333,746.33333333333"></polygon><polygon data-id="142" data-sec="C" data-build="1" data-floor="6" data-type_poly="flat" class="s3d-svg__house js-s3d-svg__house" points="1208.3333333333,767.66666666667,1208.3333333333,767.66666666667,1208.3333333333,767.66666666667,1208.3333333333,767.66666666667,1313,738,1313,738,1313,738,1313,738,1310.6666666667,770.66666666667,1310.6666666667,770.66666666667,1310.6666666667,770.66666666667,1310.6666666667,770.66666666667,1206.3333333333,802,1206.3333333333,802,1206.3333333333,802,1206.3333333333,802,1126.3333333333,752.66666666667,1126.3333333333,752.66666666667,1126.3333333333,752.66666666667,1126.3333333333,752.66666666667,1128.6666666667,718.33333333333,1128.6666666667,718.33333333333,1128.6666666667,718.33333333333,1128.6666666667,718.33333333333"></polygon><polygon data-id="141" data-sec="C" data-build="1" data-floor="6" data-type_poly="flat" class="s3d-svg__house js-s3d-svg__house" points="1313,738,1313,738,1313,738,1313,738,1394,713.66666666667,1394,713.66666666667,1394,713.66666666667,1394,713.66666666667,1390.3333333333,746.33333333333,1390.3333333333,746.33333333333,1390.3333333333,746.33333333333,1390.3333333333,746.33333333333,1310.6666666667,770.66666666667,1310.6666666667,770.66666666667,1310.6666666667,770.66666666667,1310.6666666667,770.66666666667"></polygon><polygon data-id="148" data-sec="C" data-build="1" data-floor="7" data-type_poly="flat" class="s3d-svg__house js-s3d-svg__house" points="1211.6666666667,732,1211.6666666667,732,1211.6666666667,732,1211.6666666667,732,1315.3333333333,703.33333333333,1315.3333333333,703.33333333333,1315.3333333333,703.33333333333,1315.3333333333,703.33333333333,1313,738,1313,738,1313,738,1313,738,1208.3333333333,767.66666666667,1208.3333333333,767.66666666667,1208.3333333333,767.66666666667,1208.3333333333,767.66666666667,1128.6666666667,718.33333333333,1128.6666666667,718.33333333333,1128.6666666667,718.33333333333,1128.6666666667,718.33333333333,1130.6666666667,684.33333333333,1130.6666666667,684.33333333333,1130.6666666667,684.33333333333,1130.6666666667,684.33333333333"></polygon><polygon data-id="147" data-sec="C" data-build="1" data-floor="7" data-type_poly="flat" class="s3d-svg__house js-s3d-svg__house" points="1315.3333333333,703.33333333333,1315.3333333333,703.33333333333,1315.3333333333,703.33333333333,1315.3333333333,703.33333333333,1399.6666666667,679,1399.6666666667,679,1399.6666666667,679,1399.6666666667,679,1394,713.66666666667,1394,713.66666666667,1394,713.66666666667,1394,713.66666666667,1313,738,1313,738,1313,738,1313,738"></polygon><polygon data-id="154" data-sec="C" data-build="1" data-floor="8" data-type_poly="flat" class="s3d-svg__house js-s3d-svg__house" points="1215,696.33333333333,1215,696.33333333333,1215,696.33333333333,1215,696.33333333333,1318.6666666667,667.33333333333,1318.6666666667,667.33333333333,1318.6666666667,667.33333333333,1318.6666666667,667.33333333333,1315.3333333333,703.33333333333,1315.3333333333,703.33333333333,1315.3333333333,703.33333333333,1315.3333333333,703.33333333333,1211.6666666667,732,1211.6666666667,732,1211.6666666667,732,1211.6666666667,732,1130.6666666667,684.33333333333,1130.6666666667,684.33333333333,1130.6666666667,684.33333333333,1130.6666666667,684.33333333333,1133.3333333333,649,1133.3333333333,649,1133.3333333333,649,1133.3333333333,649"></polygon><polygon data-id="153" data-sec="C" data-build="1" data-floor="8" data-type_poly="flat" class="s3d-svg__house js-s3d-svg__house" points="1318.6666666667,667.33333333333,1318.6666666667,667.33333333333,1318.6666666667,667.33333333333,1318.6666666667,667.33333333333,1405.3333333333,644.33333333333,1405.3333333333,644.33333333333,1405.3333333333,644.33333333333,1405.3333333333,644.33333333333,1399.6666666667,679,1399.6666666667,679,1399.6666666667,679,1399.6666666667,679,1315.3333333333,703.33333333333,1315.3333333333,703.33333333333,1315.3333333333,703.33333333333,1315.3333333333,703.33333333333"></polygon><polygon data-id="160" data-sec="C" data-build="1" data-floor="9" data-type_poly="flat" class="s3d-svg__house js-s3d-svg__house" points="1218.6666666667,658.66666666667,1218.6666666667,658.66666666667,1218.6666666667,658.66666666667,1218.6666666667,658.66666666667,1321.6666666667,631.66666666667,1321.6666666667,631.66666666667,1321.6666666667,631.66666666667,1321.6666666667,631.66666666667,1318.6666666667,667.33333333333,1318.6666666667,667.33333333333,1318.6666666667,667.33333333333,1318.6666666667,667.33333333333,1215,696.33333333333,1215,696.33333333333,1215,696.33333333333,1215,696.33333333333,1133.3333333333,649,1133.3333333333,649,1133.3333333333,649,1133.3333333333,649,1135,612.66666666667,1135,612.66666666667,1135,612.66666666667,1135,612.66666666667"></polygon><polygon data-id="159" data-sec="C" data-build="1" data-floor="9" data-type_poly="flat" class="s3d-svg__house js-s3d-svg__house" points="1321.6666666667,631.66666666667,1321.6666666667,631.66666666667,1321.6666666667,631.66666666667,1321.6666666667,631.66666666667,1410.6666666667,608.66666666667,1410.6666666667,608.66666666667,1410.6666666667,608.66666666667,1410.6666666667,608.66666666667,1405.3333333333,644.33333333333,1405.3333333333,644.33333333333,1405.3333333333,644.33333333333,1405.3333333333,644.33333333333,1318.6666666667,667.33333333333,1318.6666666667,667.33333333333,1318.6666666667,667.33333333333,1318.6666666667,667.33333333333"></polygon><polygon data-id="165" data-sec="C" data-build="1" data-floor="10" data-type_poly="flat" class="s3d-svg__house js-s3d-svg__house" points="1326.6666666667,593.33333333333,1326.6666666667,593.33333333333,1326.6666666667,593.33333333333,1326.6666666667,593.33333333333,1416.3333333333,571,1416.3333333333,571,1416.3333333333,571,1416.3333333333,571,1410.6666666667,608.66666666667,1410.6666666667,608.66666666667,1410.6666666667,608.66666666667,1410.6666666667,608.66666666667,1321.6666666667,631.66666666667,1321.6666666667,631.66666666667,1321.6666666667,631.66666666667,1321.6666666667,631.66666666667"></polygon><polygon data-id="166" data-sec="C" data-build="1" data-floor="10" data-type_poly="flat" class="s3d-svg__house js-s3d-svg__house" points="1222,621,1222,621,1222,621,1222,621,1326.6666666667,593.33333333333,1326.6666666667,593.33333333333,1326.6666666667,593.33333333333,1326.6666666667,593.33333333333,1321.6666666667,631.66666666667,1321.6666666667,631.66666666667,1321.6666666667,631.66666666667,1321.6666666667,631.66666666667,1218.6666666667,658.66666666667,1218.6666666667,658.66666666667,1218.6666666667,658.66666666667,1218.6666666667,658.66666666667,1135,612.66666666667,1135,612.66666666667,1135,612.66666666667,1135,612.66666666667,1136.6666666667,574.66666666667,1136.6666666667,574.66666666667,1136.6666666667,574.66666666667,1136.6666666667,574.66666666667"></polygon><polygon data-id="172" data-sec="C" data-build="1" data-floor="11" data-type_poly="flat" class="s3d-svg__house js-s3d-svg__house" points="1225.6666666667,582.33333333333,1225.6666666667,582.33333333333,1225.6666666667,582.33333333333,1225.6666666667,582.33333333333,1330.3333333333,555.33333333333,1330.3333333333,555.33333333333,1330.3333333333,555.33333333333,1330.3333333333,555.33333333333,1326.6666666667,593.33333333333,1326.6666666667,593.33333333333,1326.6666666667,593.33333333333,1326.6666666667,593.33333333333,1222,621,1222,621,1222,621,1222,621,1136.6666666667,574.66666666667,1136.6666666667,574.66666666667,1136.6666666667,574.66666666667,1136.6666666667,574.66666666667,1139.3333333333,536.66666666667,1139.3333333333,536.66666666667,1139.3333333333,536.66666666667,1139.3333333333,536.66666666667"></polygon><polygon data-id="171" data-sec="C" data-build="1" data-floor="11" data-type_poly="flat" class="s3d-svg__house js-s3d-svg__house" points="1330.3333333333,555.33333333333,1330.3333333333,555.33333333333,1330.3333333333,555.33333333333,1330.3333333333,555.33333333333,1422.3333333333,533.33333333333,1422.3333333333,533.33333333333,1422.3333333333,533.33333333333,1422.3333333333,533.33333333333,1416.3333333333,571,1416.3333333333,571,1416.3333333333,571,1416.3333333333,571,1326.6666666667,593.33333333333,1326.6666666667,593.33333333333,1326.6666666667,593.33333333333,1326.6666666667,593.33333333333"></polygon><polygon data-id="178" data-sec="C" data-build="1" data-floor="12" data-type_poly="flat" class="s3d-svg__house js-s3d-svg__house" points="1229.3333333333,542,1229.3333333333,542,1229.3333333333,542,1229.3333333333,542,1333,516.66666666667,1333,516.66666666667,1333,516.66666666667,1333,516.66666666667,1330.3333333333,555.33333333333,1330.3333333333,555.33333333333,1330.3333333333,555.33333333333,1330.3333333333,555.33333333333,1225.6666666667,582.33333333333,1225.6666666667,582.33333333333,1225.6666666667,582.33333333333,1225.6666666667,582.33333333333,1139.3333333333,536.66666666667,1139.3333333333,536.66666666667,1139.3333333333,536.66666666667,1139.3333333333,536.66666666667,1142,498.33333333333,1142,498.33333333333,1142,498.33333333333,1142,498.33333333333"></polygon><polygon data-id="177" data-sec="C" data-build="1" data-floor="12" data-type_poly="flat" class="s3d-svg__house js-s3d-svg__house" points="1333,516.66666666667,1333,516.66666666667,1333,516.66666666667,1333,516.66666666667,1427.3333333333,494.66666666667,1427.3333333333,494.66666666667,1427.3333333333,494.66666666667,1427.3333333333,494.66666666667,1422.3333333333,533.33333333333,1422.3333333333,533.33333333333,1422.3333333333,533.33333333333,1422.3333333333,533.33333333333,1330.3333333333,555.33333333333,1330.3333333333,555.33333333333,1330.3333333333,555.33333333333,1330.3333333333,555.33333333333"></polygon><polygon data-id="184" data-sec="C" data-build="1" data-floor="13" data-type_poly="flat" class="s3d-svg__house js-s3d-svg__house" points="1233,500.33333333333,1233,500.33333333333,1233,500.33333333333,1233,500.33333333333,1337,476.33333333333,1337,476.33333333333,1337,476.33333333333,1337,476.33333333333,1333,516.66666666667,1333,516.66666666667,1333,516.66666666667,1333,516.66666666667,1229.3333333333,542,1229.3333333333,542,1229.3333333333,542,1229.3333333333,542,1142,498.33333333333,1142,498.33333333333,1142,498.33333333333,1142,498.33333333333,1144.3333333333,458,1144.3333333333,458,1144.3333333333,458,1144.3333333333,458"></polygon><polygon data-id="183" data-sec="C" data-build="1" data-floor="13" data-type_poly="flat" class="s3d-svg__house js-s3d-svg__house" points="1337,476.33333333333,1337,476.33333333333,1337,476.33333333333,1337,476.33333333333,1433.6666666667,454.33333333333,1433.6666666667,454.33333333333,1433.6666666667,454.33333333333,1433.6666666667,454.33333333333,1427.3333333333,494.66666666667,1427.3333333333,494.66666666667,1427.3333333333,494.66666666667,1427.3333333333,494.66666666667,1333,516.66666666667,1333,516.66666666667,1333,516.66666666667,1333,516.66666666667"></polygon><polygon data-id="190" data-sec="C" data-build="1" data-floor="14" data-type_poly="flat" class="s3d-svg__house js-s3d-svg__house" points="1237,457.66666666667,1237,457.66666666667,1237,457.66666666667,1237,457.66666666667,1342,434.33333333333,1342,434.33333333333,1342,434.33333333333,1342,434.33333333333,1337,476.33333333333,1337,476.33333333333,1337,476.33333333333,1337,476.33333333333,1233,500.33333333333,1233,500.33333333333,1233,500.33333333333,1233,500.33333333333,1144.3333333333,458,1144.3333333333,458,1144.3333333333,458,1144.3333333333,458,1146.6666666667,417,1146.6666666667,417,1146.6666666667,417,1146.6666666667,417"></polygon><polygon data-id="189" data-sec="C" data-build="1" data-floor="14" data-type_poly="flat" class="s3d-svg__house js-s3d-svg__house" points="1342,434.33333333333,1342,434.33333333333,1342,434.33333333333,1342,434.33333333333,1439.3333333333,413.66666666667,1439.3333333333,413.66666666667,1439.3333333333,413.66666666667,1439.3333333333,413.66666666667,1433.6666666667,454.33333333333,1433.6666666667,454.33333333333,1433.6666666667,454.33333333333,1433.6666666667,454.33333333333,1337,476.33333333333,1337,476.33333333333,1337,476.33333333333,1337,476.33333333333"></polygon><polygon data-id="196" data-sec="C" data-build="1" data-floor="15" data-type_poly="flat" class="s3d-svg__house js-s3d-svg__house" points="1240,413.33333333333,1240,413.33333333333,1240,413.33333333333,1240,413.33333333333,1346.3333333333,392,1346.3333333333,392,1346.3333333333,392,1346.3333333333,392,1342,434.33333333333,1342,434.33333333333,1342,434.33333333333,1342,434.33333333333,1237,457.66666666667,1237,457.66666666667,1237,457.66666666667,1237,457.66666666667,1146.6666666667,417,1146.6666666667,417,1146.6666666667,417,1146.6666666667,417,1149.3333333333,374.33333333333,1149.3333333333,374.33333333333,1149.3333333333,374.33333333333,1149.3333333333,374.33333333333"></polygon><polygon data-id="195" data-sec="C" data-build="1" data-floor="15" data-type_poly="flat" class="s3d-svg__house js-s3d-svg__house" points="1346.3333333333,392,1346.3333333333,392,1346.3333333333,392,1346.3333333333,392,1445.3333333333,371.66666666667,1445.3333333333,371.66666666667,1445.3333333333,371.66666666667,1445.3333333333,371.66666666667,1439.3333333333,413.66666666667,1439.3333333333,413.66666666667,1439.3333333333,413.66666666667,1439.3333333333,413.66666666667,1342,434.33333333333,1342,434.33333333333,1342,434.33333333333,1342,434.33333333333"></polygon><polygon data-id="202" data-sec="C" data-build="1" data-floor="16" data-type_poly="flat" class="s3d-svg__house js-s3d-svg__house" points="1244.3333333333,369,1244.3333333333,369,1244.3333333333,369,1244.3333333333,369,1352,347.66666666667,1352,347.66666666667,1352,347.66666666667,1352,347.66666666667,1346.3333333333,392,1346.3333333333,392,1346.3333333333,392,1346.3333333333,392,1240,413.33333333333,1240,413.33333333333,1240,413.33333333333,1240,413.33333333333,1149.3333333333,374.33333333333,1149.3333333333,374.33333333333,1149.3333333333,374.33333333333,1149.3333333333,374.33333333333,1152.3333333333,331.66666666667,1152.3333333333,331.66666666667,1152.3333333333,331.66666666667,1152.3333333333,331.66666666667"></polygon><polygon data-id="200" data-sec="C" data-build="1" data-floor="15" data-type_poly="flat" class="s3d-svg__house js-s3d-svg__house" points="1352,347.66666666667,1352,347.66666666667,1352,347.66666666667,1352,347.66666666667,1452.6666666667,328.33333333333,1452.6666666667,328.33333333333,1452.6666666667,328.33333333333,1452.6666666667,328.33333333333,1445.3333333333,371.66666666667,1445.3333333333,371.66666666667,1445.3333333333,371.66666666667,1445.3333333333,371.66666666667,1346.3333333333,392,1346.3333333333,392,1346.3333333333,392,1346.3333333333,392"></polygon><polygon data-id="208" data-sec="C" data-build="1" data-floor="17" data-type_poly="flat" class="s3d-svg__house js-s3d-svg__house" points="1248,323.33333333333,1248,323.33333333333,1248,323.33333333333,1248,323.33333333333,1356.6666666667,301.66666666667,1356.6666666667,301.66666666667,1356.6666666667,301.66666666667,1356.6666666667,301.66666666667,1352,347.66666666667,1352,347.66666666667,1352,347.66666666667,1352,347.66666666667,1244.3333333333,369,1244.3333333333,369,1244.3333333333,369,1244.3333333333,369,1152.3333333333,331.66666666667,1152.3333333333,331.66666666667,1152.3333333333,331.66666666667,1152.3333333333,331.66666666667,1155,287.33333333333,1155,287.33333333333,1155,287.33333333333,1155,287.33333333333"></polygon><polygon data-id="207" data-sec="C" data-build="1" data-floor="17" data-type_poly="flat" class="s3d-svg__house js-s3d-svg__house" points="1356.6666666667,301.66666666667,1356.6666666667,301.66666666667,1356.6666666667,301.66666666667,1356.6666666667,301.66666666667,1460.6666666667,283,1460.6666666667,283,1460.6666666667,283,1460.6666666667,283,1452.6666666667,328.33333333333,1452.6666666667,328.33333333333,1452.6666666667,328.33333333333,1452.6666666667,328.33333333333,1352,347.66666666667,1352,347.66666666667,1352,347.66666666667,1352,347.66666666667"></polygon><polygon data-id="137" data-sec="C" data-build="1" data-floor="5" data-type_poly="flat" class="s3d-svg__house js-s3d-svg__house" points="1126.3333333333,752.66666666667,1126.3333333333,752.66666666667,1126.3333333333,752.66666666667,1126.3333333333,752.66666666667,1071.6666666667,716.66666666667,1071.6666666667,716.66666666667,1071.6666666667,716.66666666667,1071.6666666667,716.66666666667,1071,749.33333333333,1071,749.33333333333,1071,749.33333333333,1071,749.33333333333,1125,785.66666666667,1125,785.66666666667,1125,785.66666666667,1125,785.66666666667"></polygon><polygon data-id="138" data-sec="C" data-build="1" data-floor="5" data-type_poly="flat" class="s3d-svg__house js-s3d-svg__house" points="1071.6666666667,716.66666666667,1071.6666666667,716.66666666667,1071.6666666667,716.66666666667,1071.6666666667,716.66666666667,996.33333333333,667,996.33333333333,667,996.33333333333,667,996.33333333333,667,995.66666666667,697.33333333333,995.66666666667,697.33333333333,995.66666666667,697.33333333333,995.66666666667,697.33333333333,1071,749.33333333333,1071,749.33333333333,1071,749.33333333333,1071,749.33333333333"></polygon><polygon data-id="143" data-sec="C" data-build="1" data-floor="6" data-type_poly="flat" class="s3d-svg__house js-s3d-svg__house" points="1071.6666666667,716.66666666667,1071.6666666667,716.66666666667,1071.6666666667,716.66666666667,1071.6666666667,716.66666666667,1072.6666666667,684.33333333333,1072.6666666667,684.33333333333,1072.6666666667,684.33333333333,1072.6666666667,684.33333333333,1128.6666666667,718.33333333333,1128.6666666667,718.33333333333,1128.6666666667,718.33333333333,1128.6666666667,718.33333333333,1126.3333333333,752.66666666667,1126.3333333333,752.66666666667,1126.3333333333,752.66666666667,1126.3333333333,752.66666666667"></polygon><polygon data-id="144" data-sec="C" data-build="1" data-floor="6" data-type_poly="flat" class="s3d-svg__house js-s3d-svg__house" points="1072.6666666667,684.33333333333,1072.6666666667,684.33333333333,1072.6666666667,684.33333333333,1072.6666666667,684.33333333333,995.66666666667,634.33333333333,995.66666666667,634.33333333333,995.66666666667,634.33333333333,995.66666666667,634.33333333333,996.33333333333,667,996.33333333333,667,996.33333333333,667,996.33333333333,667,1071.6666666667,716.66666666667,1071.6666666667,716.66666666667,1071.6666666667,716.66666666667,1071.6666666667,716.66666666667"></polygon><polygon data-id="149" data-sec="C" data-build="1" data-floor="7" data-type_poly="flat" class="s3d-svg__house js-s3d-svg__house" points="1130.6666666667,684.33333333333,1130.6666666667,684.33333333333,1130.6666666667,684.33333333333,1130.6666666667,684.33333333333,1074,648.33333333333,1074,648.33333333333,1074,648.33333333333,1074,648.33333333333,1072.6666666667,684.33333333333,1072.6666666667,684.33333333333,1072.6666666667,684.33333333333,1072.6666666667,684.33333333333,1128.6666666667,718.33333333333,1128.6666666667,718.33333333333,1128.6666666667,718.33333333333,1128.6666666667,718.33333333333"></polygon><polygon data-id="150" data-sec="C" data-build="1" data-floor="7" data-type_poly="flat" class="s3d-svg__house js-s3d-svg__house" points="1074,648.33333333333,1074,648.33333333333,1074,648.33333333333,1074,648.33333333333,996.33333333333,601,996.33333333333,601,996.33333333333,601,996.33333333333,601,995.66666666667,634.33333333333,995.66666666667,634.33333333333,995.66666666667,634.33333333333,995.66666666667,634.33333333333,1072.6666666667,684.33333333333,1072.6666666667,684.33333333333,1072.6666666667,684.33333333333,1072.6666666667,684.33333333333"></polygon><polygon data-id="155" data-sec="C" data-build="1" data-floor="8" data-type_poly="flat" class="s3d-svg__house js-s3d-svg__house" points="1133.3333333333,649,1133.3333333333,649,1133.3333333333,649,1133.3333333333,649,1074.6666666667,613.33333333333,1074.6666666667,613.33333333333,1074.6666666667,613.33333333333,1074.6666666667,613.33333333333,1074,648.33333333333,1074,648.33333333333,1074,648.33333333333,1074,648.33333333333,1130.6666666667,684.33333333333,1130.6666666667,684.33333333333,1130.6666666667,684.33333333333,1130.6666666667,684.33333333333"></polygon><polygon data-id="156" data-sec="C" data-build="1" data-floor="8" data-type_poly="flat" class="s3d-svg__house js-s3d-svg__house" points="1074.6666666667,613.33333333333,1074.6666666667,613.33333333333,1074.6666666667,613.33333333333,1074.6666666667,613.33333333333,997,567.66666666667,997,567.66666666667,997,567.66666666667,997,567.66666666667,996.33333333333,601,996.33333333333,601,996.33333333333,601,996.33333333333,601,1074,648.33333333333,1074,648.33333333333,1074,648.33333333333,1074,648.33333333333"></polygon><polygon data-id="161" data-sec="C" data-build="1" data-floor="9" data-type_poly="flat" class="s3d-svg__house js-s3d-svg__house" points="1135,612.66666666667,1135,612.66666666667,1135,612.66666666667,1135,612.66666666667,1076.6666666667,578.33333333333,1076.6666666667,578.33333333333,1076.6666666667,578.33333333333,1076.6666666667,578.33333333333,1074.6666666667,613.33333333333,1074.6666666667,613.33333333333,1074.6666666667,613.33333333333,1074.6666666667,613.33333333333,1133.3333333333,649,1133.3333333333,649,1133.3333333333,649,1133.3333333333,649"></polygon><polygon data-id="162" data-sec="C" data-build="1" data-floor="9" data-type_poly="flat" class="s3d-svg__house js-s3d-svg__house" points="1076.6666666667,578.33333333333,1076.6666666667,578.33333333333,1076.6666666667,578.33333333333,1076.6666666667,578.33333333333,998.33333333333,533,998.33333333333,533,998.33333333333,533,998.33333333333,533,997,567.66666666667,997,567.66666666667,997,567.66666666667,997,567.66666666667,1074.6666666667,613.33333333333,1074.6666666667,613.33333333333,1074.6666666667,613.33333333333,1074.6666666667,613.33333333333"></polygon><polygon data-id="167" data-sec="C" data-build="1" data-floor="10" data-type_poly="flat" class="s3d-svg__house js-s3d-svg__house" points="1136.6666666667,574.66666666667,1136.6666666667,574.66666666667,1136.6666666667,574.66666666667,1136.6666666667,574.66666666667,1078.3333333333,542,1078.3333333333,542,1078.3333333333,542,1078.3333333333,542,1076.6666666667,578.33333333333,1076.6666666667,578.33333333333,1076.6666666667,578.33333333333,1076.6666666667,578.33333333333,1135,612.66666666667,1135,612.66666666667,1135,612.66666666667,1135,612.66666666667"></polygon><polygon data-id="168" data-sec="C" data-build="1" data-floor="10" data-type_poly="flat" class="s3d-svg__house js-s3d-svg__house" points="1078.3333333333,542,1078.3333333333,542,1078.3333333333,542,1078.3333333333,542,998,496.66666666667,998,496.66666666667,998,496.66666666667,998,496.66666666667,998.33333333333,533,998.33333333333,533,998.33333333333,533,998.33333333333,533,1076.6666666667,578.33333333333,1076.6666666667,578.33333333333,1076.6666666667,578.33333333333,1076.6666666667,578.33333333333"></polygon><polygon data-id="173" data-sec="C" data-build="1" data-floor="11" data-type_poly="flat" class="s3d-svg__house js-s3d-svg__house" points="1139.3333333333,536.66666666667,1139.3333333333,536.66666666667,1139.3333333333,536.66666666667,1139.3333333333,536.66666666667,1080,505.33333333333,1080,505.33333333333,1080,505.33333333333,1080,505.33333333333,1078.3333333333,542,1078.3333333333,542,1078.3333333333,542,1078.3333333333,542,1136.6666666667,574.66666666667,1136.6666666667,574.66666666667,1136.6666666667,574.66666666667,1136.6666666667,574.66666666667"></polygon><polygon data-id="174" data-sec="C" data-build="1" data-floor="11" data-type_poly="flat" class="s3d-svg__house js-s3d-svg__house" points="1080,505.33333333333,1080,505.33333333333,1080,505.33333333333,1080,505.33333333333,998.66666666667,461,998.66666666667,461,998.66666666667,461,998.66666666667,461,998,496.66666666667,998,496.66666666667,998,496.66666666667,998,496.66666666667,1078.3333333333,542,1078.3333333333,542,1078.3333333333,542,1078.3333333333,542"></polygon><polygon data-id="179" data-sec="C" data-build="1" data-floor="12" data-type_poly="flat" class="s3d-svg__house js-s3d-svg__house" points="1142,498.33333333333,1142,498.33333333333,1142,498.33333333333,1142,498.33333333333,1081,467,1081,467,1081,467,1081,467,1080,505.33333333333,1080,505.33333333333,1080,505.33333333333,1080,505.33333333333,1139.3333333333,536.66666666667,1139.3333333333,536.66666666667,1139.3333333333,536.66666666667,1139.3333333333,536.66666666667"></polygon><polygon data-id="180" data-sec="C" data-build="1" data-floor="12" data-type_poly="flat" class="s3d-svg__house js-s3d-svg__house" points="1081,467,1081,467,1081,467,1081,467,998.66666666667,424.66666666667,998.66666666667,424.66666666667,998.66666666667,424.66666666667,998.66666666667,424.66666666667,998.66666666667,461,998.66666666667,461,998.66666666667,461,998.66666666667,461,1080,505.33333333333,1080,505.33333333333,1080,505.33333333333,1080,505.33333333333"></polygon><polygon data-id="185" data-sec="C" data-build="1" data-floor="13" data-type_poly="flat" class="s3d-svg__house js-s3d-svg__house" points="1144.3333333333,458,1144.3333333333,458,1144.3333333333,458,1144.3333333333,458,1082.3333333333,428.33333333333,1082.3333333333,428.33333333333,1082.3333333333,428.33333333333,1082.3333333333,428.33333333333,1081,467,1081,467,1081,467,1081,467,1142,498.33333333333,1142,498.33333333333,1142,498.33333333333,1142,498.33333333333"></polygon><polygon data-id="186" data-sec="C" data-build="1" data-floor="13" data-type_poly="flat" class="s3d-svg__house js-s3d-svg__house" points="1082.3333333333,428.33333333333,1082.3333333333,428.33333333333,1082.3333333333,428.33333333333,1082.3333333333,428.33333333333,999,386.66666666667,999,386.66666666667,999,386.66666666667,999,386.66666666667,998.66666666667,424.66666666667,998.66666666667,424.66666666667,998.66666666667,424.66666666667,998.66666666667,424.66666666667,1081,467,1081,467,1081,467,1081,467"></polygon><polygon data-id="191" data-sec="C" data-build="1" data-floor="14" data-type_poly="flat" class="s3d-svg__house js-s3d-svg__house" points="1146.6666666667,417,1146.6666666667,417,1146.6666666667,417,1146.6666666667,417,1084,388,1084,388,1084,388,1084,388,1082.3333333333,428.33333333333,1082.3333333333,428.33333333333,1082.3333333333,428.33333333333,1082.3333333333,428.33333333333,1144.3333333333,458,1144.3333333333,458,1144.3333333333,458,1144.3333333333,458"></polygon><polygon data-id="192" data-sec="C" data-build="1" data-floor="14" data-type_poly="flat" class="s3d-svg__house js-s3d-svg__house" points="1084,388,1084,388,1084,388,1084,388,999.33333333333,347.66666666667,999.33333333333,347.66666666667,999.33333333333,347.66666666667,999.33333333333,347.66666666667,999,386.66666666667,999,386.66666666667,999,386.66666666667,999,386.66666666667,1082.3333333333,428.33333333333,1082.3333333333,428.33333333333,1082.3333333333,428.33333333333,1082.3333333333,428.33333333333"></polygon><polygon data-id="197" data-sec="C" data-build="1" data-floor="15" data-type_poly="flat" class="s3d-svg__house js-s3d-svg__house" points="1149.3333333333,374.33333333333,1149.3333333333,374.33333333333,1149.3333333333,374.33333333333,1149.3333333333,374.33333333333,1086.3333333333,347,1086.3333333333,347,1086.3333333333,347,1086.3333333333,347,1084,388,1084,388,1084,388,1084,388,1146.6666666667,417,1146.6666666667,417,1146.6666666667,417,1146.6666666667,417"></polygon><polygon data-id="198" data-sec="C" data-build="1" data-floor="15" data-type_poly="flat" class="s3d-svg__house js-s3d-svg__house" points="1086.3333333333,347,1086.3333333333,347,1086.3333333333,347,1086.3333333333,347,1000,308.33333333333,1000,308.33333333333,1000,308.33333333333,1000,308.33333333333,999.33333333333,347.66666666667,999.33333333333,347.66666666667,999.33333333333,347.66666666667,999.33333333333,347.66666666667,1084,388,1084,388,1084,388,1084,388"></polygon><polygon data-id="203" data-sec="C" data-build="1" data-floor="16" data-type_poly="flat" class="s3d-svg__house js-s3d-svg__house" points="1152.3333333333,331.66666666667,1152.3333333333,331.66666666667,1152.3333333333,331.66666666667,1152.3333333333,331.66666666667,1087,304.66666666667,1087,304.66666666667,1087,304.66666666667,1087,304.66666666667,1086.3333333333,347,1086.3333333333,347,1086.3333333333,347,1086.3333333333,347,1149.3333333333,374.33333333333,1149.3333333333,374.33333333333,1149.3333333333,374.33333333333,1149.3333333333,374.33333333333"></polygon><polygon data-id="204" data-sec="C" data-build="1" data-floor="16" data-type_poly="flat" class="s3d-svg__house js-s3d-svg__house" points="1087,304.66666666667,1087,304.66666666667,1087,304.66666666667,1087,304.66666666667,1000,267.66666666667,1000,267.66666666667,1000,267.66666666667,1000,267.66666666667,1000,308.33333333333,1000,308.33333333333,1000,308.33333333333,1000,308.33333333333,1086.3333333333,347,1086.3333333333,347,1086.3333333333,347,1086.3333333333,347"></polygon><polygon data-id="209" data-sec="C" data-build="1" data-floor="17" data-type_poly="flat" class="s3d-svg__house js-s3d-svg__house" points="1155,287.33333333333,1155,287.33333333333,1155,287.33333333333,1155,287.33333333333,1089.3333333333,261,1089.3333333333,261,1089.3333333333,261,1089.3333333333,261,1087,304.66666666667,1087,304.66666666667,1087,304.66666666667,1087,304.66666666667,1152.3333333333,331.66666666667,1152.3333333333,331.66666666667,1152.3333333333,331.66666666667,1152.3333333333,331.66666666667"></polygon><polygon data-id="210" data-sec="C" data-build="1" data-floor="17" data-type_poly="flat" class="s3d-svg__house js-s3d-svg__house" points="1089.3333333333,261,1089.3333333333,261,1089.3333333333,261,1089.3333333333,261,1000.3333333333,226,1000.3333333333,226,1000.3333333333,226,1000.3333333333,226,1000,267.66666666667,1000,267.66666666667,1000,267.66666666667,1000,267.66666666667,1087,304.66666666667,1087,304.66666666667,1087,304.66666666667,1087,304.66666666667"></polygon><polygon data-id="214" data-sec="D" data-build="1" data-floor="5" data-type_poly="flat" class="s3d-svg__house js-s3d-svg__house" points="920.5,573.5,920.5,573.5,920.25,602.75,920.25,602.75,877,629.75,877,629.75,848,615.25,848,615.25,847.75,587.25,847.75,587.25,875.25,600.75,875.25,600.75"></polygon><polygon data-id="223" data-sec="D" data-build="1" data-floor="6" data-type_poly="flat" class="s3d-svg__house js-s3d-svg__house" points="920.5,573.5,920.5,573.5,919.25,542.25,919.25,542.25,874.75,568.5,874.75,568.5,846.25,554.75,846.25,554.75,847.75,587.25,847.75,587.25,875.25,600.75,875.25,600.75"></polygon><polygon data-id="232" data-sec="D" data-build="1" data-floor="7" data-type_poly="flat" class="s3d-svg__house js-s3d-svg__house" points="919.25,542.25,919.25,542.25,918.5,512,918.5,512,873.75,536.75,873.75,536.75,845.5,523.25,845.5,523.25,846.25,554.75,846.25,554.75,874.75,568.5,874.75,568.5"></polygon><polygon data-id="241" data-sec="D" data-build="1" data-floor="8" data-type_poly="flat" class="s3d-svg__house js-s3d-svg__house" points="918.5,512,918.5,512,917.75,480,917.75,480,872.75,505,872.75,505,844,490,844,490,845.5,523.25,845.5,523.25,873.75,536.75,873.75,536.75"></polygon><polygon data-id="250" data-sec="D" data-build="1" data-floor="9" data-type_poly="flat" class="s3d-svg__house js-s3d-svg__house" points="917.75,480,917.75,480,917.5,446.75,917.5,446.75,872,472,872,472,842.5,456.75,842.5,456.75,844,490,844,490,872.75,505,872.75,505"></polygon><polygon data-id="259" data-sec="D" data-build="1" data-floor="10" data-type_poly="flat" class="s3d-svg__house js-s3d-svg__house" points="917.5,446.75,917.5,446.75,916.25,415.25,916.25,415.25,871,438,871,438,840.75,424.25,840.75,424.25,842.5,456.75,842.5,456.75,872,472,872,472"></polygon><polygon data-id="213" data-sec="D" data-build="1" data-floor="5" data-type_poly="flat" class="s3d-svg__house js-s3d-svg__house" points="936.5,592.25,936.5,592.25,986,560,986,560,985.25,532,985.25,532,936,563.25,936,563.25"></polygon><polygon data-id="222" data-sec="D" data-build="1" data-floor="6" data-type_poly="flat" class="s3d-svg__house js-s3d-svg__house" points="985.25,532,985.25,532,985.5,503.5,985.5,503.5,936.25,532,936.25,532,936,563.25,936,563.25"></polygon><polygon data-id="231" data-sec="D" data-build="1" data-floor="7" data-type_poly="flat" class="s3d-svg__house js-s3d-svg__house" points="936.25,532,936.25,532,935.5,502.75,935.5,502.75,986,472.5,986,472.5,985.5,503.5,985.5,503.5"></polygon><polygon data-id="240" data-sec="D" data-build="1" data-floor="8" data-type_poly="flat" class="s3d-svg__house js-s3d-svg__house" points="935.5,502.75,935.5,502.75,935,471.25,935,471.25,986.75,441.25,986.75,441.25,986,472.5,986,472.5"></polygon><polygon data-id="249" data-sec="D" data-build="1" data-floor="9" data-type_poly="flat" class="s3d-svg__house js-s3d-svg__house" points="935,471.25,935,471.25,935.25,437.5,935.25,437.5,987,409.75,987,409.75,986.75,441.25,986.75,441.25"></polygon><polygon data-id="258" data-sec="D" data-build="1" data-floor="10" data-type_poly="flat" class="s3d-svg__house js-s3d-svg__house" points="935.25,437.5,935.25,437.5,935.25,405.25,935.25,405.25,987,377.75,987,377.75,987,409.75,987,409.75"></polygon><polygon data-id="215" data-sec="D" data-build="1" data-floor="5" data-type_poly="flat" class="s3d-svg__house js-s3d-svg__house" points="832.75,608.25,779.5,579,778.25,552,832,579.75"></polygon><polygon data-id="216" data-sec="D" data-build="1" data-floor="5" data-type_poly="flat" class="s3d-svg__house js-s3d-svg__house" points="779.5,579,729,552.75,729,524.25,778.25,552"></polygon><polygon data-id="217" data-sec="D" data-build="1" data-floor="5" data-type_poly="flat" class="s3d-svg__house js-s3d-svg__house" points="729,524.25,684,495.75,685.5,527.5,729,552.75"></polygon><polygon data-id="218" data-sec="D" data-build="1" data-floor="5" data-type_poly="flat" class="s3d-svg__house js-s3d-svg__house" points="684,495.75,620.75,455.75,624.5,489.75,685.5,527.5"></polygon><polygon data-id="224" data-sec="D" data-build="1" data-floor="6" data-type_poly="flat" class="s3d-svg__house js-s3d-svg__house" points="832,579.75,830.5,549.25,777,520.75,778.25,552"></polygon><polygon data-id="225" data-sec="D" data-build="1" data-floor="6" data-type_poly="flat" class="s3d-svg__house js-s3d-svg__house" points="777,520.75,730,497,729,524.25,778.25,552"></polygon><polygon data-id="226" data-sec="D" data-build="1" data-floor="6" data-type_poly="flat" class="s3d-svg__house js-s3d-svg__house" points="684,495.75,682.5,468,730,497,729,524.25"></polygon><polygon data-id="227" data-sec="D" data-build="1" data-floor="6" data-type_poly="flat" class="s3d-svg__house js-s3d-svg__house" points="682.5,468,618.75,429.25,620.75,455.75,684,495.75"></polygon><polygon data-id="233" data-sec="D" data-build="1" data-floor="7" data-type_poly="flat" class="s3d-svg__house js-s3d-svg__house" points="829,516,776.5,486,777,520.75,830.5,549.25"></polygon><polygon data-id="234" data-sec="D" data-build="1" data-floor="7" data-type_poly="flat" class="s3d-svg__house js-s3d-svg__house" points="776.5,486,728.25,460.25,730,497,777,520.75"></polygon><polygon data-id="235" data-sec="D" data-build="1" data-floor="7" data-type_poly="flat" class="s3d-svg__house js-s3d-svg__house" points="728.25,460.25,679,435.75,682.5,468,730,497"></polygon><polygon data-id="236" data-sec="D" data-build="1" data-floor="7" data-type_poly="flat" class="s3d-svg__house js-s3d-svg__house" points="679,435.75,614.75,399.5,618.75,429.25,682.5,468"></polygon><polygon data-id="242" data-sec="D" data-build="1" data-floor="8" data-type_poly="flat" class="s3d-svg__house js-s3d-svg__house" points="829,516,827,480.75,774.5,450.5,776.5,486"></polygon><polygon data-id="243" data-sec="D" data-build="1" data-floor="8" data-type_poly="flat" class="s3d-svg__house js-s3d-svg__house" points="774.5,450.5,723.75,422.25,728.25,460.25,776.5,486"></polygon><polygon data-id="244" data-sec="D" data-build="1" data-floor="8" data-type_poly="flat" class="s3d-svg__house js-s3d-svg__house" points="723.75,422.25,673.75,394.5,679,435.75,728.25,460.25"></polygon><polygon data-id="245" data-sec="D" data-build="1" data-floor="8" data-type_poly="flat" class="s3d-svg__house js-s3d-svg__house" points="673.75,394.5,610,358,614.75,399.5,679,435.75"></polygon><polygon data-id="251" data-sec="D" data-build="1" data-floor="9" data-type_poly="flat" class="s3d-svg__house js-s3d-svg__house" points="825.25,448,773.5,419.75,774.5,450.5,827,480.75"></polygon><polygon data-id="252" data-sec="D" data-build="1" data-floor="9" data-type_poly="flat" class="s3d-svg__house js-s3d-svg__house" points="773.5,419.75,720.75,390.25,723.75,422.25,774.5,450.5"></polygon><polygon data-id="253" data-sec="D" data-build="1" data-floor="9" data-type_poly="flat" class="s3d-svg__house js-s3d-svg__house" points="720.75,390.25,671.25,363,673.75,394.5,723.75,422.25"></polygon><polygon data-id="254" data-sec="D" data-build="1" data-floor="9" data-type_poly="flat" class="s3d-svg__house js-s3d-svg__house" points="671.25,363,607.5,328.75,610,358,673.75,394.5"></polygon><polygon data-id="260" data-sec="D" data-build="1" data-floor="10" data-type_poly="flat" class="s3d-svg__house js-s3d-svg__house" points="823.75,414.75,772.5,387.25,773.5,419.75,825.25,448"></polygon><polygon data-id="261" data-sec="D" data-build="1" data-floor="10" data-type_poly="flat" class="s3d-svg__house js-s3d-svg__house" points="772.5,387.25,719,361.75,720.75,390.25,773.5,419.75"></polygon><polygon data-id="262" data-sec="D" data-build="1" data-floor="10" data-type_poly="flat" class="s3d-svg__house js-s3d-svg__house" points="719,361.75,669.25,333.75,671.25,363,720.75,390.25"></polygon><polygon data-id="263" data-sec="D" data-build="1" data-floor="10" data-type_poly="flat" class="s3d-svg__house js-s3d-svg__house" points="669.25,333.75,603.5,298.75,607.5,328.75,671.25,363"></polygon></svg>