<svg width="52" height="10" viewBox="0 0 52 10" fill="none" xmlns="http://www.w3.org/2000/svg">
<path d="M5.49689 2.83457C5.49689 2.62178 5.54896 2.56163 5.56073 2.54994C5.5731 2.53765 5.63367 2.487 5.84262 2.487H6.24668V8.47218H5.49689V2.83457Z" fill="white" stroke="white"/>
<path d="M11.7578 7.02399L12.9695 2.75897C13.0124 2.63454 13.0636 2.57701 13.1032 2.54788C13.1425 2.5189 13.2122 2.487 13.3474 2.487H13.9925L11.8851 8.47218H11.3463L11.7578 7.02399ZM11.2124 8.47218H10.737L8.63795 2.487H9.49078L10.7963 7.02556L11.2124 8.47218Z" fill="white" stroke="white"/>
<path d="M17.4495 5.47193H16.9168L16.9505 6.00361C16.988 6.59374 17.136 7.11936 17.4648 7.50294C17.8094 7.90487 18.2899 8.07939 18.8299 8.07939C19.3939 8.07939 19.8904 7.83388 20.301 7.44596L20.317 7.43082L20.3316 7.41432C20.3788 7.36118 20.4385 7.32924 20.5506 7.32924H21.1363C20.9726 7.67534 20.7631 7.94223 20.5098 8.1403C20.123 8.44292 19.58 8.62713 18.8088 8.6284C17.8537 8.59602 17.2173 8.30703 16.8093 7.83205C16.3908 7.34478 16.1414 6.57989 16.1414 5.45559C16.1414 4.33205 16.3952 3.58162 16.8138 3.11332C17.2231 2.65534 17.8645 2.38484 18.8311 2.38019C19.8325 2.38042 20.476 2.68346 20.8748 3.20633C21.239 3.68394 21.4568 4.41844 21.4621 5.47193H17.4495ZM16.9736 4.65727L16.8961 5.22492H17.469H20.084H20.645L20.5806 4.66753C20.5206 4.14779 20.3633 3.6806 20.0506 3.33886C19.7242 2.98218 19.2838 2.82204 18.791 2.82204C18.3014 2.82204 17.8626 2.98301 17.5326 3.33377C17.2149 3.67137 17.0449 4.13513 16.9736 4.65727Z" fill="white" stroke="white"/>
<path d="M30.4951 5.69418L30.4945 5.69407C29.7698 5.56617 29.2863 5.34978 28.9901 5.08975C28.7116 4.84537 28.569 4.53798 28.5648 4.12859C28.5654 3.52939 28.7936 3.12658 29.1562 2.85582C29.5389 2.5701 30.117 2.39953 30.8481 2.39014C31.6698 2.39058 32.2577 2.56947 32.667 2.87918C32.9298 3.08906 33.1136 3.35211 33.2143 3.6893H32.6985C32.5506 3.68514 32.4718 3.65712 32.4352 3.63651C32.4078 3.62117 32.3941 3.60586 32.382 3.57391L32.382 3.57391L32.3808 3.57075C32.1471 2.96571 31.4935 2.77353 30.8645 2.77353C30.4944 2.77353 30.1397 2.82128 29.8602 2.96923C29.7136 3.04682 29.5768 3.15787 29.4779 3.31273C29.3776 3.46984 29.3341 3.64453 29.3341 3.8191C29.3341 4.24594 29.6109 4.53969 29.913 4.72131C30.2115 4.9008 30.6159 5.02653 31.0893 5.11841C32.251 5.3475 32.9039 5.63531 33.1788 5.88212C33.4038 6.1194 33.5141 6.41577 33.5141 6.76125C33.5141 7.46508 33.2514 7.88817 32.8376 8.1605C32.3894 8.45548 31.7067 8.60913 30.8256 8.60913C29.9135 8.60913 29.3131 8.40607 28.9642 8.10635L28.9529 8.09669L28.9411 8.08772C28.6677 7.87968 28.4777 7.58776 28.396 7.17357H29.2343C29.3399 7.47592 29.5296 7.72308 29.8049 7.8995C30.1769 8.13787 30.6439 8.20625 31.1075 8.20625C31.5082 8.20625 31.8936 8.1512 32.1938 7.97306C32.5372 7.76931 32.7157 7.4362 32.7157 7.04378C32.7157 6.5449 32.3008 6.26119 31.9774 6.10829C31.6153 5.93708 31.111 5.80369 30.4951 5.69418Z" fill="white" stroke="white"/>
<path d="M35.6225 2.83457C35.6225 2.62178 35.6746 2.56163 35.6863 2.54994C35.6987 2.53765 35.7593 2.487 35.9682 2.487H36.3723V8.47218H35.6225V2.83457Z" fill="white" stroke="white"/>
<path d="M43.3798 2.97138V0.5H43.745C43.9299 0.5 44.1101 0.669775 44.1101 0.886543V5.9525C44.1101 6.91786 43.8603 7.54918 43.4478 7.9441C43.0321 8.34208 42.3642 8.58377 41.3495 8.57978C40.3596 8.5613 39.7023 8.28488 39.2848 7.82882C38.861 7.36577 38.6068 6.63336 38.6068 5.54333C38.6068 4.40709 38.8295 3.63787 39.1983 3.15383C39.5493 2.6931 40.0861 2.42167 40.896 2.39001C41.5905 2.39239 42.0966 2.6696 42.4575 3.23903L42.4773 3.2704C42.171 3.05821 41.8011 2.95849 41.3925 2.95849C40.7902 2.95849 40.2712 3.17613 39.9161 3.65714C39.5834 4.10772 39.441 4.72842 39.4152 5.44746L39.4149 5.4547L39.4149 5.46195C39.4098 6.20706 39.5265 6.85967 39.8512 7.33788C40.2006 7.85255 40.7369 8.0892 41.373 8.0892C42.0081 8.0892 42.5481 7.85379 42.9061 7.34456C43.2413 6.86763 43.3701 6.21485 43.3701 5.46539V5.45816L43.3699 5.45094C43.3598 5.10436 43.3219 4.77981 43.2476 4.48582L43.3798 4.69437V2.97138Z" fill="white" stroke="white"/>
<path d="M47.4873 5.47193H46.9546L46.9883 6.00361C47.0258 6.59374 47.1738 7.11936 47.5026 7.50294C47.8472 7.90487 48.3276 8.07939 48.8677 8.07939C49.4316 8.07939 49.9282 7.83388 50.3388 7.44596L50.3548 7.43082L50.3694 7.41432C50.4165 7.36118 50.4763 7.32924 50.5883 7.32924H51.1775C51.0152 7.67495 50.8057 7.94179 50.5517 8.13994C50.1636 8.4428 49.618 8.62713 48.8466 8.6284C47.8915 8.59602 47.2551 8.30703 46.8471 7.83205C46.4286 7.34478 46.1792 6.57989 46.1792 5.45559C46.1792 4.33205 46.433 3.58162 46.8516 3.11332C47.2609 2.65534 47.9023 2.38484 48.8689 2.38019C49.8703 2.38042 50.5138 2.68346 50.9125 3.20633C51.2768 3.68394 51.4946 4.41844 51.4999 5.47193H47.4873ZM47.0121 4.65218L46.9279 5.22492H47.5068H50.1217H50.6828L50.6184 4.66753C50.5584 4.14779 50.4011 3.6806 50.0884 3.33886C49.762 2.98218 49.3216 2.82204 48.8288 2.82204C48.3419 2.82204 47.9064 2.9844 47.5776 3.33377C47.2616 3.66967 47.0887 4.13121 47.0121 4.65218Z" fill="white" stroke="white"/>
<path d="M1.20942 2.48717H1.21167C1.22189 2.72737 1.23035 3.01279 1.23035 3.2147L2.20363 3.37595C2.36501 2.9023 2.69764 2.53156 3.23289 2.39169V2.39392V2.3969V2.39988V2.40286V2.40585V2.40883V2.41182V2.41481V2.41781V2.4208V2.4238V2.42679V2.42979V2.43279V2.43579V2.4388V2.4418V2.44481V2.44781V2.45082V2.45383V2.45684V2.45985V2.46286V2.46587V2.46889V2.4719V2.47491V2.47793V2.48095V2.48396V2.48698V2.49V2.49302V2.49603V2.49905V2.50207V2.50509V2.50811V2.51113V2.51415V2.51717V2.52019V2.52321V2.52622V2.52924V2.53226V2.53528V2.5383V2.54131V2.54433V2.54735V2.55036V2.55338V2.55639V2.55941V2.56242V2.56543V2.56844V2.57145V2.57446V2.57747V2.58047V2.58348V2.58648V2.58949V2.59249V2.59549V2.59849V2.60148V2.60448V2.60747V2.61046V2.61346V2.61644V2.61943V2.62242V2.6254V2.62838V2.63136V2.63434V2.63731V2.64028V2.64326V2.64622V2.64919V2.65215V2.65511V2.65807V2.66103V2.66398V2.66693V2.66988V2.67283V2.67577V2.67871V2.68165V2.68458V2.68751V2.69044V2.69336V2.69628V2.6992V2.70212V2.70503V2.70794V2.71084V2.71374V2.71664V2.71953V2.72242V2.72531V2.72819V2.73107V2.73395V2.73682V2.73968V2.74255V2.74541V2.74826V2.75111V2.75396V2.7568V2.75964V2.76247V2.7653V2.76813V2.77095V2.77376V2.77657V2.77938V2.78218V2.78497V2.78777V2.79055V2.79333V2.79611V2.79888V2.80165V2.80441V2.80717V2.80992V2.81266V2.8154V2.81814V2.82086V2.82359V2.82631V2.82902V2.83172V2.83442V2.83712V2.83981V2.84249V2.84517V2.84784V2.8505V2.85316V2.85581V2.85846V2.8611V2.86373V2.86636V2.86898V2.8716V2.8742V2.8768V2.8794V2.88199V2.88457V2.88714V2.88971V2.89227V2.89482V2.89737V2.89991V2.90244V2.90497V2.90748V2.90999V2.9125V2.91499V2.91748V2.91996V2.92243V2.9249V2.92736V2.92981V2.93225V2.93468V2.93711V2.93953V2.94194V2.94434V2.94674V2.94912V2.9515V2.95387V2.95623V2.95859V2.96093V2.96327V2.96559V2.96791V2.97022V2.97253V2.97482V2.9771V2.97938V2.98165V2.9839V2.98615V2.98839V2.99062C3.23289 3.11787 3.16786 3.18995 3.04537 3.2061L3.04452 3.20621C2.51317 3.27721 2.01829 3.49036 1.67931 3.98768C1.3597 4.45658 1.23035 5.10607 1.23035 5.93278V8.47235H0.509722V3.87717V3.37717H0.5V3.37578V3.37346V3.37114V3.36881V3.36649V3.36417V3.36185V3.35953V3.35721V3.35489V3.35257V3.35026V3.34794V3.34562V3.34331V3.34099V3.33868V3.33636V3.33405V3.33174V3.32942V3.32711V3.3248V3.32249V3.32018V3.31787V3.31556V3.31325V3.31094V3.30864V3.30633V3.30402V3.30172V3.29941V3.29711V3.2948V3.2925V3.2902V3.28789V3.28559V3.28329V3.28099V3.27869V3.27639V3.27409V3.27179V3.2695V3.2672V3.2649V3.26261V3.26031V3.25801V3.25572V3.25343V3.25113V3.24884V3.24655V3.24426V3.24196V3.23967V3.23738V3.23509V3.23281V3.23052V3.22823V3.22594V3.22365V3.22137V3.21908V3.2168V3.21451V3.21223V3.20995V3.20766V3.20538V3.2031V3.20082V3.19854V3.19626V3.19398V3.1917V3.18942V3.18714V3.18486V3.18259V3.18031V3.17803V3.17576V3.17348V3.17121V3.16893V3.16666V3.16439V3.16212V3.15984V3.15757V3.1553V3.15303V3.15076V3.14849V3.14623V3.14396V3.14169V3.13942V3.13716V3.13489V3.13263V3.13036V3.1281V3.12583V3.12357V3.12131V3.11905V3.11679V3.11452V3.11226V3.11V3.10774V3.10549V3.10323V3.10097V3.09871V3.09646V3.0942V3.09194V3.08969V3.08743V3.08518V3.08293V3.08067V3.07842V3.07617V3.07392V3.07167V3.06942V3.06717V3.06492V3.06267V3.06042V3.05817V3.05592V3.05368V3.05143V3.04918V3.04694V3.04469V3.04245V3.04021V3.03796V3.03572V3.03348V3.03124V3.02899V3.02675V3.02451V3.02227V3.02004V3.0178V3.01556V3.01332V3.01108V3.00885V3.00661V3.00438V3.00214V2.99991V2.99767V2.99544V2.9932V2.99097V2.98874V2.98651V2.98428V2.98205V2.97982V2.97759V2.97536V2.97313V2.9709V2.96867V2.96645V2.96422V2.96199V2.95977V2.95754V2.95532V2.95309V2.95087V2.94865V2.94643V2.9442V2.94198V2.93976V2.93754V2.93532V2.9331V2.93088V2.92866V2.92644V2.92423V2.92201V2.91979V2.91758V2.91536V2.91315V2.91093V2.90872V2.9065V2.90429V2.90208V2.89986V2.89765V2.89544V2.89323V2.89102V2.88881V2.8866V2.88439V2.88218V2.87998V2.87777V2.87556V2.87336V2.87115V2.86894V2.86674V2.86453V2.86233V2.86013V2.85792V2.85572V2.85352V2.85132V2.84912V2.84691V2.84471V2.84251V2.84032V2.83812V2.83592V2.83372V2.83152V2.82933V2.82713V2.82493V2.82274V2.82054V2.81835V2.81615V2.81396V2.81177V2.80957V2.80738V2.80519V2.803V2.80081V2.79862V2.79643V2.79424V2.79205V2.78986V2.78767V2.78549V2.7833V2.78111V2.77893V2.77674V2.77455V2.77237V2.77019V2.768V2.76582V2.76364V2.76145V2.75927V2.75709V2.75491V2.75273V2.75055V2.74837V2.74619V2.74401V2.74183V2.73965V2.73748V2.7353V2.73312V2.73095V2.72877V2.72659V2.72442V2.72225V2.72007V2.7179V2.71573V2.71355V2.71138V2.70921V2.70704V2.70487V2.7027V2.70053V2.69836C0.5 2.58194 0.59947 2.48717 0.709636 2.48717H0.711803H0.713976H0.716154H0.718337H0.720525H0.722718H0.724916H0.72712H0.729328H0.731542H0.73376H0.735984H0.738212H0.740445H0.742683H0.744926H0.747173H0.749425H0.751682H0.753944H0.75621H0.75848H0.760755H0.763035H0.765319H0.767608H0.769901H0.772198H0.774499H0.776805H0.779115H0.781429H0.783747H0.78607H0.788396H0.790726H0.793061H0.795399H0.797742H0.800088H0.802438H0.804792H0.80715H0.809511H0.811876H0.814245H0.816617H0.818993H0.821373H0.823756H0.826142H0.828532H0.830925H0.833322H0.835722H0.838125H0.840532H0.842941H0.845354H0.84777H0.850189H0.852612H0.855037H0.857465H0.859896H0.86233H0.864767H0.867207H0.869649H0.872095H0.874543H0.876993H0.879447H0.881903H0.884361H0.886822H0.889286H0.891752H0.894221H0.896692H0.899165H0.90164H0.904118H0.906598H0.90908H0.911565H0.914051H0.91654H0.919031H0.921523H0.924018H0.926515H0.929013H0.931514H0.934016H0.93652H0.939026H0.941533H0.944042H0.946553H0.949065H0.951579H0.954095H0.956612H0.95913H0.96165H0.964171H0.966694H0.969218H0.971743H0.974269H0.976797H0.979325H0.981855H0.984386H0.986918H0.989451H0.991985H0.99452H0.997055H0.999592H1.00213H1.00467H1.00721H1.00975H1.01229H1.01483H1.01737H1.01991H1.02245H1.025H1.02754H1.03008H1.03263H1.03517H1.03772H1.04026H1.04281H1.04535H1.0479H1.05045H1.05299H1.05554H1.05808H1.06063H1.06318H1.06572H1.06827H1.07081H1.07336H1.0759H1.07845H1.08099H1.08353H1.08608H1.08862H1.09116H1.09371H1.09625H1.09879H1.10133H1.10387H1.10641H1.10894H1.11148H1.11402H1.11655H1.11909H1.12162H1.12415H1.12669H1.12922H1.13175H1.13427H1.1368H1.13933H1.14185H1.14438H1.1469H1.14942H1.15194H1.15446H1.15697H1.15949H1.162H1.16451H1.16702H1.16953H1.17204H1.17455H1.17705H1.17955H1.18205H1.18455H1.18705H1.18954H1.19203H1.19452H1.19701H1.1995H1.20198H1.20446H1.20694H1.20942Z" fill="white" stroke="white"/>
<path d="M24.4622 2.48717H24.4645C24.4747 2.72737 24.4832 3.01279 24.4832 3.2147L25.4564 3.37595C25.6178 2.9023 25.9504 2.53156 26.4857 2.39169V2.39392V2.3969V2.39988V2.40286V2.40585V2.40883V2.41182V2.41481V2.41781V2.4208V2.4238V2.42679V2.42979V2.43279V2.43579V2.4388V2.4418V2.44481V2.44781V2.45082V2.45383V2.45684V2.45985V2.46286V2.46587V2.46889V2.4719V2.47491V2.47793V2.48095V2.48396V2.48698V2.49V2.49302V2.49603V2.49905V2.50207V2.50509V2.50811V2.51113V2.51415V2.51717V2.52019V2.52321V2.52622V2.52924V2.53226V2.53528V2.5383V2.54131V2.54433V2.54735V2.55036V2.55338V2.55639V2.55941V2.56242V2.56543V2.56844V2.57145V2.57446V2.57747V2.58047V2.58348V2.58648V2.58949V2.59249V2.59549V2.59849V2.60148V2.60448V2.60747V2.61046V2.61346V2.61644V2.61943V2.62242V2.6254V2.62838V2.63136V2.63434V2.63731V2.64028V2.64326V2.64622V2.64919V2.65215V2.65511V2.65807V2.66103V2.66398V2.66693V2.66988V2.67283V2.67577V2.67871V2.68165V2.68458V2.68751V2.69044V2.69336V2.69628V2.6992V2.70212V2.70503V2.70794V2.71084V2.71374V2.71664V2.71953V2.72242V2.72531V2.72819V2.73107V2.73395V2.73682V2.73968V2.74255V2.74541V2.74826V2.75111V2.75396V2.7568V2.75964V2.76247V2.7653V2.76813V2.77095V2.77376V2.77657V2.77938V2.78218V2.78497V2.78777V2.79055V2.79333V2.79611V2.79888V2.80165V2.80441V2.80717V2.80992V2.81266V2.8154V2.81814V2.82086V2.82359V2.82631V2.82902V2.83172V2.83442V2.83712V2.83981V2.84249V2.84517V2.84784V2.8505V2.85316V2.85581V2.85846V2.8611V2.86373V2.86636V2.86898V2.8716V2.8742V2.8768V2.8794V2.88199V2.88457V2.88714V2.88971V2.89227V2.89482V2.89737V2.89991V2.90244V2.90497V2.90748V2.90999V2.9125V2.91499V2.91748V2.91996V2.92243V2.9249V2.92736V2.92981V2.93225V2.93468V2.93711V2.93953V2.94194V2.94434V2.94674V2.94912V2.9515V2.95387V2.95623V2.95859V2.96093V2.96327V2.96559V2.96791V2.97022V2.97253V2.97482V2.9771V2.97938V2.98165V2.9839V2.98615V2.98839V2.99062C26.4857 3.11787 26.4207 3.18995 26.2982 3.2061L26.2973 3.20621C25.766 3.27721 25.2711 3.49036 24.9321 3.98768C24.6125 4.45658 24.4832 5.10607 24.4832 5.93278V8.47235H23.7625V3.87717V3.37717H23.7528V3.37578V3.37346V3.37114V3.36881V3.36649V3.36417V3.36185V3.35953V3.35721V3.35489V3.35257V3.35026V3.34794V3.34562V3.34331V3.34099V3.33868V3.33636V3.33405V3.33174V3.32942V3.32711V3.3248V3.32249V3.32018V3.31787V3.31556V3.31325V3.31094V3.30864V3.30633V3.30402V3.30172V3.29941V3.29711V3.2948V3.2925V3.2902V3.28789V3.28559V3.28329V3.28099V3.27869V3.27639V3.27409V3.27179V3.2695V3.2672V3.2649V3.26261V3.26031V3.25801V3.25572V3.25343V3.25113V3.24884V3.24655V3.24426V3.24196V3.23967V3.23738V3.23509V3.23281V3.23052V3.22823V3.22594V3.22365V3.22137V3.21908V3.2168V3.21451V3.21223V3.20995V3.20766V3.20538V3.2031V3.20082V3.19854V3.19626V3.19398V3.1917V3.18942V3.18714V3.18486V3.18259V3.18031V3.17803V3.17576V3.17348V3.17121V3.16893V3.16666V3.16439V3.16212V3.15984V3.15757V3.1553V3.15303V3.15076V3.14849V3.14623V3.14396V3.14169V3.13942V3.13716V3.13489V3.13263V3.13036V3.1281V3.12583V3.12357V3.12131V3.11905V3.11679V3.11452V3.11226V3.11V3.10774V3.10549V3.10323V3.10097V3.09871V3.09646V3.0942V3.09194V3.08969V3.08743V3.08518V3.08293V3.08067V3.07842V3.07617V3.07392V3.07167V3.06942V3.06717V3.06492V3.06267V3.06042V3.05817V3.05592V3.05368V3.05143V3.04918V3.04694V3.04469V3.04245V3.04021V3.03796V3.03572V3.03348V3.03124V3.02899V3.02675V3.02451V3.02227V3.02004V3.0178V3.01556V3.01332V3.01108V3.00885V3.00661V3.00438V3.00214V2.99991V2.99767V2.99544V2.9932V2.99097V2.98874V2.98651V2.98428V2.98205V2.97982V2.97759V2.97536V2.97313V2.9709V2.96867V2.96645V2.96422V2.96199V2.95977V2.95754V2.95532V2.95309V2.95087V2.94865V2.94643V2.9442V2.94198V2.93976V2.93754V2.93532V2.9331V2.93088V2.92866V2.92644V2.92423V2.92201V2.91979V2.91758V2.91536V2.91315V2.91093V2.90872V2.9065V2.90429V2.90208V2.89986V2.89765V2.89544V2.89323V2.89102V2.88881V2.8866V2.88439V2.88218V2.87998V2.87777V2.87556V2.87336V2.87115V2.86894V2.86674V2.86453V2.86233V2.86013V2.85792V2.85572V2.85352V2.85132V2.84912V2.84691V2.84471V2.84251V2.84032V2.83812V2.83592V2.83372V2.83152V2.82933V2.82713V2.82493V2.82274V2.82054V2.81835V2.81615V2.81396V2.81177V2.80957V2.80738V2.80519V2.803V2.80081V2.79862V2.79643V2.79424V2.79205V2.78986V2.78767V2.78549V2.7833V2.78111V2.77893V2.77674V2.77455V2.77237V2.77019V2.768V2.76582V2.76364V2.76145V2.75927V2.75709V2.75491V2.75273V2.75055V2.74837V2.74619V2.74401V2.74183V2.73965V2.73748V2.7353V2.73312V2.73095V2.72877V2.72659V2.72442V2.72225V2.72007V2.7179V2.71573V2.71355V2.71138V2.70921V2.70704V2.70487V2.7027V2.70053V2.69836C23.7528 2.58194 23.8523 2.48717 23.9624 2.48717H23.9646H23.9668H23.969H23.9711H23.9733H23.9755H23.9777H23.9799H23.9821H23.9844H23.9866H23.9888H23.991H23.9933H23.9955H23.9977H24H24.0022H24.0045H24.0068H24.009H24.0113H24.0136H24.0158H24.0181H24.0204H24.0227H24.025H24.0273H24.0296H24.0319H24.0342H24.0366H24.0389H24.0412H24.0435H24.0459H24.0482H24.0506H24.0529H24.0552H24.0576H24.06H24.0623H24.0647H24.0671H24.0694H24.0718H24.0742H24.0766H24.079H24.0813H24.0837H24.0861H24.0885H24.0909H24.0933H24.0958H24.0982H24.1006H24.103H24.1054H24.1078H24.1103H24.1127H24.1151H24.1176H24.12H24.1225H24.1249H24.1274H24.1298H24.1323H24.1347H24.1372H24.1396H24.1421H24.1446H24.147H24.1495H24.152H24.1544H24.1569H24.1594H24.1619H24.1644H24.1669H24.1693H24.1718H24.1743H24.1768H24.1793H24.1818H24.1843H24.1868H24.1893H24.1918H24.1943H24.1969H24.1994H24.2019H24.2044H24.2069H24.2094H24.2119H24.2145H24.217H24.2195H24.222H24.2246H24.2271H24.2296H24.2321H24.2347H24.2372H24.2397H24.2423H24.2448H24.2473H24.2499H24.2524H24.2549H24.2575H24.26H24.2626H24.2651H24.2676H24.2702H24.2727H24.2753H24.2778H24.2803H24.2829H24.2854H24.288H24.2905H24.2931H24.2956H24.2982H24.3007H24.3033H24.3058H24.3083H24.3109H24.3134H24.316H24.3185H24.3211H24.3236H24.3262H24.3287H24.3313H24.3338H24.3363H24.3389H24.3414H24.344H24.3465H24.3491H24.3516H24.3541H24.3567H24.3592H24.3618H24.3643H24.3668H24.3694H24.3719H24.3744H24.377H24.3795H24.382H24.3846H24.3871H24.3896H24.3921H24.3947H24.3972H24.3997H24.4022H24.4047H24.4073H24.4098H24.4123H24.4148H24.4173H24.4198H24.4223H24.4248H24.4274H24.4299H24.4324H24.4349H24.4374H24.4399H24.4423H24.4448H24.4473H24.4498H24.4523H24.4548H24.4573H24.4597H24.4622Z" fill="white" stroke="white"/>
</svg>
