<svg width="90" height="89" viewBox="0 0 90 89" fill="none" xmlns="http://www.w3.org/2000/svg">
<path d="M25.1393 49.3352L25.1388 49.3313C23.9968 39.825 30.0417 31.3852 38.6599 28.484C39.9428 28.1088 41.2945 27.471 42.2871 26.5198C43.2066 25.7238 44.1658 24.5849 45.1202 23.02C45.7593 24.0637 46.3739 24.9238 47.0038 25.6226C48.2173 27.0533 49.7023 27.9643 51.3044 28.4813L51.3084 28.4825C59.3646 31.0447 65.1875 38.2654 65.1875 46.8854C65.1875 58.3847 54.8938 67.5204 42.8014 66.296C33.6006 65.2922 26.1661 58.1695 25.1393 49.3352Z" stroke="#F65275" stroke-width="2"/>
<path d="M43.7314 4.468V12H41.5474V6.26H38.4114V12H36.2414V4.468H43.7314ZM45.8254 4.468H47.9954V7.408H51.2714V4.468H53.4554V12H51.2714V9.186H47.9954V12H45.8254V4.468Z" fill="#555568"/>
<path d="M43.6836 78.9992V86.5312H41.4996V80.7912H38.3636V86.5312H36.1936V78.9992H43.6836ZM54.2195 84.7392V88.1553H52.1895V86.5312H46.8975V88.1553H44.8675V84.7392H45.1755C45.6422 84.7299 45.9642 84.4546 46.1415 83.9132C46.3189 83.3719 46.4309 82.6019 46.4775 81.6032L46.5755 78.9992H53.1415V84.7392H54.2195ZM48.4515 81.7572C48.4235 82.5226 48.3629 83.1479 48.2695 83.6332C48.1855 84.1186 48.0222 84.4872 47.7795 84.7392H50.9575V80.7912H48.4935L48.4515 81.7572Z" fill="#555568"/>
<path d="M6.28659 45.0799C6.73459 45.2199 7.07992 45.4346 7.32259 45.7239C7.57459 46.0132 7.70059 46.3586 7.70059 46.7599C7.70059 47.2359 7.53725 47.6559 7.21059 48.0199C6.88392 48.3746 6.43592 48.6499 5.86659 48.8459C5.29725 49.0419 4.65325 49.1399 3.93459 49.1399C3.34659 49.1399 2.76792 49.0792 2.19859 48.9579C1.62925 48.8366 1.10192 48.6546 0.616586 48.4119L1.20459 46.8859C1.99792 47.2686 2.87525 47.4599 3.83659 47.4599C4.34992 47.4599 4.75125 47.3852 5.04059 47.2359C5.33925 47.0772 5.48859 46.8579 5.48859 46.5779C5.48859 46.3352 5.38592 46.1532 5.18059 46.0319C4.97525 45.9012 4.67659 45.8359 4.28459 45.8359H2.74459V44.4779H4.08859C4.47125 44.4779 4.76525 44.4172 4.97059 44.2959C5.17592 44.1746 5.27859 43.9972 5.27859 43.7639C5.27859 43.5212 5.14792 43.3346 4.88659 43.2039C4.63459 43.0732 4.27059 43.0079 3.79459 43.0079C3.06659 43.0079 2.27325 43.1806 1.41459 43.5259L0.882586 42.0139C1.92792 41.5566 2.94525 41.3279 3.93459 41.3279C4.61592 41.3279 5.22259 41.4119 5.75459 41.5799C6.29592 41.7479 6.72059 41.9952 7.02859 42.3219C7.33659 42.6392 7.49059 43.0126 7.49059 43.4419C7.49059 43.7966 7.38325 44.1186 7.16859 44.4079C6.95392 44.6879 6.65992 44.9119 6.28659 45.0799ZM14.0213 48.9999L12.3693 46.6899L10.6613 48.9999H8.28126L11.1793 45.2059L8.37926 41.4679H10.8293L12.4253 43.6659L14.0633 41.4679H16.3873L13.5873 45.1499L16.4993 48.9999H14.0213Z" fill="#555568"/>
<path d="M78.007 49.1119C77.2044 49.1119 76.481 48.9486 75.837 48.6219C75.2024 48.2859 74.703 47.8239 74.339 47.2359C73.9844 46.6479 73.807 45.9806 73.807 45.2339C73.807 44.4872 73.9844 43.8199 74.339 43.2319C74.703 42.6439 75.2024 42.1866 75.837 41.8599C76.481 41.5239 77.2044 41.3559 78.007 41.3559C78.8004 41.3559 79.491 41.5239 80.079 41.8599C80.6764 42.1866 81.1104 42.6579 81.381 43.2739L79.687 44.1839C79.295 43.4932 78.7304 43.1479 77.993 43.1479C77.4237 43.1479 76.9524 43.3346 76.579 43.7079C76.2057 44.0812 76.019 44.5899 76.019 45.2339C76.019 45.8779 76.2057 46.3866 76.579 46.7599C76.9524 47.1332 77.4237 47.3199 77.993 47.3199C78.7397 47.3199 79.3044 46.9746 79.687 46.2839L81.381 47.2079C81.1104 47.8052 80.6764 48.2719 80.079 48.6079C79.491 48.9439 78.8004 49.1119 78.007 49.1119ZM87.2488 48.9999L85.5968 46.6899L83.8888 48.9999H81.5088L84.4068 45.2059L81.6068 41.4679H84.0568L85.6528 43.6659L87.2908 41.4679H89.6148L86.8148 45.1499L89.7268 48.9999H87.2488Z" fill="#555568"/>
</svg>
