<svg width="65" height="65" viewBox="0 0 65 65" fill="none" xmlns="http://www.w3.org/2000/svg">
<circle cx="32.5" cy="32.5" r="32.5" fill="#181818"/>
<path d="M39.1687 40.3645C37.7516 39.6566 36.3397 39.2749 34.8861 39.2663C33.3966 39.2576 31.9278 39.6408 30.4291 40.3883C31.1724 38.8793 31.5451 37.3946 31.5143 35.8803C31.4844 34.4125 31.076 32.9784 30.3326 31.5282C31.8149 32.25 33.2808 32.6303 34.7713 32.6384C36.2985 32.6467 37.7891 32.2641 39.2872 31.5303C38.5492 33.018 38.1561 34.4927 38.1425 35.995C38.1291 37.4713 38.4824 38.915 39.1687 40.3645Z" fill="white" stroke="white" stroke-width="2"/>
<path d="M18.86 15V22H17.936V15.896H13.904V22H12.98V15H18.86ZM25.77 15H26.694V22H25.77V18.948H21.738V22H20.814V15H21.738V18.052H25.77V15Z" fill="white"/>
</svg>
