<svg width="20" height="18" viewBox="0 0 20 18" fill="none" xmlns="http://www.w3.org/2000/svg">
<path d="M9.75351 16.7735L10 17L10.2465 16.7735C10.6652 16.3891 11.1732 15.9096 11.7359 15.3784C12.1508 14.9864 12.5958 14.5664 13.0572 14.1351C15.617 11.7428 16.4356 10.9196 17.3161 9.68486C18.2558 8.36735 18.9347 7.41531 18.9925 6.0005C19.0619 4.76811 18.647 3.55595 17.8312 2.60772C17.1388 1.82072 16.194 1.28106 15.1478 1.07491C14.1305 0.897165 13.0812 1.03764 12.1518 1.476C11.3114 1.85314 10.5743 2.41629 10 3.12001C9.42567 2.41629 8.68857 1.85314 7.84816 1.476C6.91874 1.03787 5.86949 0.897404 4.85217 1.07491C3.80595 1.28106 2.86123 1.82072 2.16885 2.60772C1.35299 3.55595 0.938067 4.76811 1.0075 6.0005C1.06527 7.41531 1.74415 8.36735 2.68388 9.68486C3.56443 10.9196 4.38301 11.7428 6.94275 14.1351C7.40421 14.5664 7.84921 14.9864 8.2641 15.3784C8.82674 15.9096 9.33477 16.3891 9.75351 16.7735Z"/>
</svg>
