<svg width="14" height="19" viewBox="0 0 14 19" fill="none" xmlns="http://www.w3.org/2000/svg">
<path fill-rule="evenodd" clip-rule="evenodd" d="M13.2902 6.83376H12.1507V5.31424C12.1507 3.90481 11.5908 2.55312 10.5942 1.5565C9.59762 0.559891 8.24592 0 6.8365 0C5.42707 0 4.07538 0.559891 3.07876 1.5565C2.08215 2.55312 1.52226 3.90481 1.52226 5.31424V6.83376H0.382844C0.281706 6.83352 0.184602 6.8734 0.112831 6.94466C0.0410597 7.01592 0.000482467 7.11274 0 7.21387L0 16.7084C0.00072441 17.1117 0.161425 17.4981 0.446825 17.783C0.732226 18.0679 1.11901 18.2279 1.52226 18.2279H12.1507C12.554 18.2279 12.9408 18.0679 13.2262 17.783C13.5116 17.4981 13.6723 17.1117 13.673 16.7084V7.21387C13.6725 7.11274 13.6319 7.01592 13.5602 6.94466C13.4884 6.8734 13.3913 6.83352 13.2902 6.83376ZM7.97591 14.7641C7.98036 14.8176 7.97375 14.8714 7.9565 14.9222C7.93925 14.973 7.91173 15.0197 7.87565 15.0594C7.84011 15.0993 7.79658 15.1311 7.74788 15.153C7.69919 15.1748 7.64644 15.1861 7.59307 15.1861H6.07993C6.02656 15.1861 5.97381 15.1748 5.92511 15.153C5.87642 15.1311 5.83288 15.0993 5.79735 15.0594C5.76127 15.0197 5.73375 14.973 5.7165 14.9222C5.69925 14.8714 5.69264 14.8176 5.69708 14.7641L5.9432 12.6092C5.74866 12.4704 5.5901 12.2872 5.4807 12.0747C5.3713 11.8623 5.31423 11.6268 5.31424 11.3878C5.31424 10.9841 5.47462 10.5969 5.7601 10.3114C6.04558 10.0259 6.43277 9.86552 6.8365 9.86552C7.24023 9.86552 7.62742 10.0259 7.9129 10.3114C8.19838 10.5969 8.35876 10.9841 8.35876 11.3878C8.35877 11.6268 8.3017 11.8623 8.1923 12.0747C8.0829 12.2872 7.92433 12.4704 7.7298 12.6092L7.97591 14.7641ZM9.8719 6.83376H3.80109V5.31424C3.80109 4.5092 4.12089 3.73713 4.69014 3.16788C5.25939 2.59863 6.03146 2.27883 6.8365 2.27883C7.64154 2.27883 8.41361 2.59863 8.98285 3.16788C9.5521 3.73713 9.8719 4.5092 9.8719 5.31424V6.83376Z"/>
</svg>
