<svg width="134" height="50" viewBox="0 0 134 50" fill="none" xmlns="http://www.w3.org/2000/svg">
<path d="M10.3452 23.956L6.50965 17.1791H2.98508V23.956H0.00473653V5.35266H7.26122C8.88529 5.35266 10.2588 5.93734 11.3819 7.10669C12.5222 8.25832 13.0923 9.66686 13.0923 11.3323C13.0923 12.5194 12.7554 13.609 12.0816 14.6012C11.4251 15.5756 10.5612 16.2843 9.48999 16.7273L13.6106 23.956H10.3452ZM2.98508 8.22289V14.4417H7.26122C8.05597 14.4417 8.72979 14.1405 9.28266 13.5381C9.83554 12.9357 10.112 12.2005 10.112 11.3323C10.112 10.4641 9.83554 9.72887 9.28266 9.12648C8.72979 8.52409 8.05597 8.22289 7.26122 8.22289H2.98508Z" fill="white"/>
<path d="M55.3172 5.35266V23.956H52.3368V10.6945L46.8167 20.0493H46.4539L40.9338 10.6679V23.956H37.9535V5.35266H41.167L46.6353 14.6543L52.1295 5.35266H55.3172Z" fill="white"/>
<path d="M71.5294 23.956L70.2596 20.2088H62.5366L61.2667 23.956H58.0272L64.6099 5.35266H68.1863L74.743 23.956H71.5294ZM63.5214 17.3385H69.2747L66.3981 8.94045L63.5214 17.3385Z" fill="white"/>
<path d="M88.356 5.35266H91.3363V23.956H89.0039L80.4516 11.3323V23.956H77.4713V5.35266H79.8037L88.356 17.9764V5.35266Z" fill="white"/>
<path d="M109.421 23.956H105.87L98.7173 15.1061V23.956H95.737V5.35266H98.7173V13.6976L105.611 5.35266H109.162L101.827 14.4151L109.421 23.956Z" fill="white"/>
<path d="M112.13 5.35266H115.11V23.956H112.13V5.35266Z" fill="white"/>
<path d="M124.126 23.956L117.828 5.35266H121.094L125.914 20.2619L130.761 5.35266H134L127.702 23.956H124.126Z" fill="white"/>
<path d="M6.29759 49.6545L0 31.0512H3.26542L8.08579 45.9604L12.9321 31.0512H16.1716L9.874 49.6545H6.29759Z" fill="white"/>
<path d="M18.8873 31.0512H21.8676V49.6545H18.8873V31.0512Z" fill="white"/>
<path d="M29.2507 46.7311H36.6367V49.6545H26.2703V31.0512H29.2507V46.7311Z" fill="white"/>
<path d="M42.6065 46.7311H49.9926V49.6545H39.6262V31.0512H42.6065V46.7311Z" fill="white"/>
<path d="M65.3059 49.6545L64.036 45.9073H56.313L55.0432 49.6545H51.8037L58.3863 31.0512H61.9627L68.5195 49.6545H65.3059ZM57.2979 43.037H63.0512L60.1745 34.639L57.2979 43.037Z" fill="white"/>
<path d="M88.2132 40.0339V41.3096C88.2132 43.8609 87.3925 45.9516 85.7512 47.5816C84.1098 49.1939 81.9675 50 79.324 50C76.5251 50 74.2099 49.0698 72.3785 47.2095C70.5644 45.3492 69.6573 43.0636 69.6573 40.3528C69.6573 37.6598 70.5644 35.3831 72.3785 33.5228C74.2099 31.6447 76.4733 30.7057 79.1685 30.7057C80.8617 30.7057 82.408 31.1043 83.8075 31.9016C85.207 32.6989 86.2954 33.7708 87.0729 35.1173L84.5072 36.6322C84.0235 35.7463 83.3064 35.0376 82.3562 34.5061C81.4059 33.9568 80.3434 33.6822 79.1685 33.6822C77.268 33.6822 75.7044 34.32 74.4777 35.5957C73.251 36.8714 72.6377 38.4659 72.6377 40.3794C72.6377 42.2929 73.251 43.8786 74.4777 45.1366C75.7217 46.3945 77.3458 47.0235 79.3499 47.0235C80.9567 47.0235 82.2612 46.6425 83.2633 45.8807C84.2826 45.1011 84.9305 44.0647 85.2069 42.7713H79.1426V40.0339H88.2132Z" fill="white"/>
<path d="M94.6956 46.7311H102.73V49.6545H91.7153V31.0512H102.6V33.9746H94.6956V38.8114H101.952V41.7082H94.6956V46.7311Z" fill="white"/>
<path fill-rule="evenodd" clip-rule="evenodd" d="M23.9989 24.2501C23.9989 24.2501 24.5485 24.3062 25.1067 24.3062C25.665 24.3062 26.2298 24.2501 26.2298 24.2501C29.0157 24.0236 31.397 22.3217 32.7464 20.3188C34.8032 17.2548 34.5796 13.7229 33.7113 11.2937C32.8298 8.2059 27.8186 2.93671 26.1971 1.18416L25.0532 0L23.9771 1.07649C22.4753 2.66213 17.7079 7.68133 16.4673 11.2937C15.6511 13.6781 15.1214 16.8805 17.5068 20.326C19.1283 22.9012 21.7897 24.0593 23.9989 24.2501ZM26.2298 21.1847C27.9893 20.9 29.0182 20.2984 30.1791 18.8106C31.6918 16.5454 31.5639 14.4172 31.183 12.7839L26.2298 18.4827C26.208 18.5066 26.1971 18.5304 26.1971 18.5662L26.2298 21.1847ZM26.3821 15.3592L30.4979 10.6302C29.3879 8.79424 27.7207 6.76804 26.1971 5.00358V15.2757C26.1971 15.383 26.3168 15.4426 26.3821 15.3592ZM21.5352 8.14443C22.4223 6.89543 23.2184 5.96715 24.1913 5.04522L22.7854 6.5256L21.5352 8.14443ZM23.988 16.3129L24.1913 5.04522L22.7854 6.5256L21.5352 8.14443C20.6742 9.02717 19.4221 11.5908 19.1283 12.4492C18.9324 13.0214 18.8255 13.831 18.7711 14.7132L23.8356 17.2309C23.9009 17.2667 23.988 17.2071 23.988 17.1236V16.3129ZM19.1454 17.1236C19.37 17.9452 19.6329 18.1876 20.0786 18.9497C21.1569 20.2085 21.8285 20.7046 23.9989 21.2949V19.6273C23.9989 19.5796 23.9771 19.5438 23.9336 19.52L19.1454 17.1236Z" fill="white"/>
</svg>
