<svg width="24" height="24" viewBox="0 0 24 24" fill="none" xmlns="http://www.w3.org/2000/svg">
<path d="M1.59363 24C2.45516 24 3.92267 23.4165 6.74142 18.4256C8.36577 17.6805 10.1486 17.0131 11.9111 16.4907C13.1919 16.1115 14.4738 15.8133 15.7263 15.6045C17.7913 16.872 20.191 17.6835 21.8994 17.6835C23.7883 17.6835 23.9833 16.6149 23.9982 16.2877C24.0188 15.8395 23.859 15.4245 23.5363 15.0869C22.8513 14.3699 21.4548 14.0064 19.386 14.0064C18.3565 14.0064 17.2189 14.0992 16.001 14.2821C14.7688 13.4693 13.7509 12.5115 13.0481 11.5021C12.3877 10.5547 11.8017 9.51813 11.3037 8.41787C12.6523 4.46827 12.9148 1.87413 12.0836 0.705867C11.7548 0.244267 11.2677 0 10.6745 0C10.0123 0 9.47081 0.2928 9.10887 0.846667C8.03397 2.49147 8.86908 5.92613 9.94718 8.47093C9.44494 9.8888 8.81814 11.4168 8.12759 12.9067C7.34875 14.5875 6.57872 16.1157 5.83776 17.4531C3.7213 18.4544 0.34643 20.3163 0.0260933 22.128C-0.0664601 22.6531 0.0882401 23.1344 0.473657 23.5197C0.787859 23.8339 1.17514 24 1.59363 24ZM19.3858 15.2696C21.7775 15.2696 22.4678 15.7973 22.6225 15.9592C22.7284 16.0699 22.7393 16.1584 22.7348 16.2448C22.7108 16.2821 22.4992 16.42 21.8991 16.42C20.9613 16.42 19.4786 16.0773 17.8828 15.3331C18.4077 15.2909 18.9097 15.2696 19.3858 15.2696ZM10.1667 1.5376C10.2923 1.34533 10.4444 1.2632 10.6745 1.2632C10.8861 1.2632 10.9791 1.33307 11.0538 1.43787C11.4243 1.95867 11.4491 3.56613 10.5703 6.55653C9.75781 4.1208 9.71673 2.22587 10.1667 1.5376ZM9.27397 13.4376C9.78262 12.34 10.2579 11.2211 10.6764 10.1379L10.6932 10.1755L10.7199 10.0984C11.1125 10.8429 11.5443 11.5539 12.0111 12.224C12.5875 13.0517 13.3445 13.844 14.2388 14.5608L14.1121 14.5805L14.1662 14.6152C13.2999 14.7987 12.4253 15.0211 11.5523 15.2797C10.2771 15.6576 8.99071 16.1093 7.75711 16.6109L7.79685 16.5397L7.74671 16.5632C8.24895 15.5931 8.75999 14.5475 9.27397 13.4376ZM1.27036 22.3477C1.37492 21.7563 2.45862 20.7045 4.6367 19.4872C2.68614 22.5579 1.77741 22.7368 1.59363 22.7368C1.53309 22.7368 1.46374 22.7235 1.36692 22.6269C1.26343 22.5229 1.25303 22.4461 1.27036 22.3477Z" fill="white"/>
</svg>
