<svg width="13" height="15" viewBox="0 0 13 15" fill="none" xmlns="http://www.w3.org/2000/svg">
<path d="M4.63061 0.000500443C4.56576 0.00788931 4.50449 0.0340907 4.45434 0.0758757C4.4042 0.117661 4.36738 0.173203 4.34842 0.235658L3.97739 1.43758H1.12937C1.04067 1.43759 0.955608 1.47282 0.892889 1.53554C0.83017 1.59826 0.794931 1.68333 0.794922 1.77202V3.76303C0.794931 3.85173 0.83017 3.93679 0.892889 3.99951C0.955608 4.06223 1.04067 4.09747 1.12937 4.09747H12.1661C12.2548 4.09747 12.3399 4.06223 12.4026 3.99951C12.4653 3.93679 12.5006 3.85173 12.5006 3.76303V1.77202C12.5006 1.68333 12.4653 1.59826 12.4026 1.53554C12.3399 1.47282 12.2548 1.43759 12.1661 1.43758H9.31809L8.94706 0.235658C8.92591 0.167619 8.88357 0.108115 8.82623 0.0658158C8.7689 0.0235166 8.69955 0.000633353 8.62829 0.000500443H4.66719C4.655 -0.000166814 4.64279 -0.000166814 4.63061 0.000500443ZM4.9128 0.669394H8.38268L8.61784 1.43758H4.67764L4.9128 0.669394ZM1.46382 2.10647H11.8317V3.42858H1.46382V2.10647ZM11.4763 4.49986C11.3904 4.5039 11.3093 4.54091 11.2499 4.6032C11.1905 4.66548 11.1575 4.74825 11.1575 4.8343L10.3528 14.0473H2.9427L2.13794 4.8343C2.1326 4.74928 2.09503 4.66949 2.03288 4.61122C1.97072 4.55296 1.88868 4.5206 1.80349 4.52076C1.75676 4.52121 1.71064 4.53146 1.6681 4.55083C1.62557 4.5702 1.58757 4.59827 1.55656 4.63322C1.52554 4.66818 1.50219 4.70925 1.48801 4.75379C1.47384 4.79832 1.46916 4.84533 1.47427 4.89179L2.38354 14.7162H2.46716C2.55077 14.7162 2.55003 14.7164 2.63438 14.7162H10.6611C10.6611 14.7162 10.8283 14.7162 10.9119 14.7162L11.8212 4.89179C11.8299 4.84242 11.8273 4.79173 11.8138 4.74348C11.8002 4.69523 11.776 4.65064 11.7429 4.61301C11.7098 4.57538 11.6686 4.54568 11.6225 4.52609C11.5763 4.50651 11.5264 4.49754 11.4763 4.49986ZM6.61116 5.61294C6.52895 5.62199 6.453 5.66118 6.39799 5.72295C6.34298 5.78471 6.31281 5.86467 6.31329 5.94738V11.9204C6.31267 11.9647 6.32086 12.0087 6.33738 12.0498C6.35391 12.091 6.37845 12.1284 6.40956 12.16C6.44068 12.1915 6.47776 12.2166 6.51865 12.2337C6.55954 12.2508 6.60342 12.2596 6.64774 12.2596C6.69206 12.2596 6.73594 12.2508 6.77683 12.2337C6.81772 12.2166 6.8548 12.1915 6.88592 12.16C6.91704 12.1284 6.94157 12.091 6.9581 12.0498C6.97463 12.0087 6.98281 11.9647 6.98219 11.9204V5.94738C6.98247 5.90021 6.97276 5.85351 6.95371 5.81035C6.93467 5.7672 6.9067 5.72856 6.87166 5.69697C6.83662 5.66539 6.7953 5.64157 6.7504 5.62709C6.70551 5.6126 6.65805 5.60778 6.61116 5.61294ZM3.88856 5.94216C3.80059 5.95264 3.72037 5.99759 3.6655 6.06715C3.61064 6.13671 3.58561 6.22519 3.59591 6.31318L4.13939 11.6225C4.14385 11.6664 4.15692 11.7091 4.17785 11.7479C4.19878 11.7868 4.22716 11.8212 4.26137 11.8491C4.29558 11.877 4.33495 11.8979 4.37723 11.9105C4.41952 11.9232 4.46388 11.9275 4.5078 11.923C4.55172 11.9185 4.59434 11.9055 4.63321 11.8846C4.67208 11.8636 4.70644 11.8352 4.73435 11.801C4.76225 11.7668 4.78314 11.7274 4.79582 11.6852C4.80851 11.6429 4.81274 11.5985 4.80828 11.5546L4.26481 6.24525C4.26095 6.20027 4.24802 6.15654 4.22681 6.11669C4.2056 6.07685 4.17654 6.0417 4.14138 6.01338C4.10623 5.98507 4.0657 5.96416 4.02225 5.95191C3.9788 5.93967 3.93332 5.93635 3.88856 5.94216ZM9.32854 5.94216C9.25146 5.95034 9.17962 5.98504 9.12529 6.04032C9.07096 6.0956 9.03752 6.16804 9.03068 6.24525L8.4872 11.5546C8.48274 11.5985 8.48697 11.6429 8.49966 11.6852C8.51235 11.7274 8.53324 11.7668 8.56114 11.801C8.58904 11.8352 8.62341 11.8636 8.66228 11.8846C8.70115 11.9055 8.74376 11.9185 8.78768 11.923C8.8316 11.9275 8.87597 11.9232 8.91825 11.9105C8.96054 11.8979 8.99991 11.877 9.03412 11.8491C9.06833 11.8212 9.09671 11.7868 9.11764 11.7479C9.13857 11.7091 9.15163 11.6664 9.15609 11.6225L9.69957 6.31318C9.70543 6.26305 9.69986 6.21223 9.68328 6.16455C9.66671 6.11687 9.63956 6.07356 9.60386 6.03787C9.56817 6.00217 9.52486 5.97502 9.47718 5.95844C9.42949 5.94187 9.37868 5.9363 9.32854 5.94216Z" />
</svg>
