<svg width="15" height="34" viewBox="0 0 15 34" fill="none" xmlns="http://www.w3.org/2000/svg">
<path fill-rule="evenodd" clip-rule="evenodd" d="M10.8096 29L7.49951 33.489L4.18945 29H6.99951H7.99951H10.8096Z" fill="#221F20"/>
<path d="M7.20596 7.79191C7.33757 7.92353 7.51597 7.99759 7.7021 7.99787V8C7.88843 7.99888 8.06679 7.92418 8.1983 7.79217C8.32981 7.66017 8.40378 7.48155 8.4042 7.29521V4.70213C8.4042 4.51592 8.33024 4.33733 8.19856 4.20565C8.06689 4.07398 7.88831 4 7.7021 4C7.51588 4 7.33731 4.07398 7.20564 4.20565C7.07396 4.33733 7 4.51592 7 4.70213V7.29574C7.00028 7.48187 7.07435 7.6603 7.20596 7.79191Z" fill="#EB8271"/>
<path fill-rule="evenodd" clip-rule="evenodd" d="M7.5 22C5.51088 21.9983 3.60381 21.253 2.19759 19.9277C0.791361 18.6025 0.000967262 16.8056 0 14.9318V7.06521C0 5.1914 0.79017 3.39433 2.19669 2.06935C3.60322 0.744362 5.51088 0 7.5 0C9.48912 0 11.3968 0.744362 12.8033 2.06935C14.2098 3.39433 15 5.1914 15 7.06521V14.9318C14.999 16.8056 14.2086 18.6025 12.8024 19.9277C11.3962 21.253 9.48911 21.9983 7.5 22ZM14.0031 7.06521C14.0031 5.44046 13.318 3.88226 12.0984 2.73338C10.8788 1.58451 9.22474 0.939081 7.5 0.939081C5.77526 0.939081 4.12117 1.58451 2.90159 2.73338C1.68202 3.88226 0.996887 5.44046 0.996887 7.06521V14.9318C0.996887 16.5566 1.68202 18.1148 2.90159 19.2637C4.12117 20.4126 5.77526 21.058 7.5 21.058C9.22474 21.058 10.8788 20.4126 12.0984 19.2637C13.318 18.1148 14.0031 16.5566 14.0031 14.9318V7.06521Z" fill="#221F20"/>
</svg>
