<svg width="18" height="20" viewBox="0 0 18 20" fill="none" xmlns="http://www.w3.org/2000/svg">
<path d="M9 10C11.8406 10 14.1429 7.76172 14.1429 5C14.1429 2.23828 11.8406 0 9 0C6.15938 0 3.85714 2.23828 3.85714 5C3.85714 7.76172 6.15938 10 9 10ZM12.8491 11.2734L10.9286 18.75L9.64286 13.4375L10.9286 11.25H7.07143L8.35714 13.4375L7.07143 18.75L5.15089 11.2734C2.28616 11.4062 0 13.6836 0 16.5V18.125C0 19.1602 0.863839 20 1.92857 20H16.0714C17.1362 20 18 19.1602 18 18.125V16.5C18 13.6836 15.7138 11.4062 12.8491 11.2734Z" fill="white"/>
</svg>
